<svg xmlns="http://www.w3.org/2000/svg" width="300.36" height="362.01">
    <path d="M288.93 8.35a3.1 3.1 0 1 0-6.08 1.24 3.1 3.1 0 0 0 6.08-1.24M161.64 292.93a4.65 4.65 0 1 0-9.3-.1 4.65 4.65 0 0 0 9.3.1"
          fill="#275835"/>
    <path d="M201.52 314.38a4.65 4.65 0 1 0-9.3-.1 4.65 4.65 0 0 0 9.3.1m-24.32 30.3a3.72 3.72 0 1 0-7.43-.08 3.72 3.72 0 0 0 7.44.08M286.32 50.2a6.16 6.16 0 0 0-12.31-.16 6.15 6.15 0 0 0 12.3.16m-6.24 8.83a8.92 8.92 0 1 1 .17-17.84 8.92 8.92 0 0 1-.17 17.84"
          fill="#f5de06"/>
    <path d="M175.27 329.15a6.07 6.07 0 0 1-6.2-5.93 6.06 6.06 0 0 1 6.2-5.92 6.06 6.06 0 0 1 6.19 5.92 6.07 6.07 0 0 1-6.19 5.93m0-14.83a9 9 0 0 0-9.12 8.9c0 4.91 4.08 8.9 9.12 8.9a9.02 9.02 0 0 0 9.12-8.9 9 9 0 0 0-9.12-8.9"
          fill="#275835"/>
    <path d="M158.04 329.8a6 6 0 0 0-11.77 2.42 6 6 0 0 0 11.77-2.42" fill="#f5de06"/>
    <path d="M156.72 354.3a5.21 5.21 0 1 0-10.21 2.1 5.21 5.21 0 0 0 10.21-2.1" fill="#275835"/>
    <path d="M164.7 307.05a3.11 3.11 0 1 0-6.1 1.26 3.11 3.11 0 0 0 6.1-1.26m16.21-5.41a3.11 3.11 0 1 0-6.1 1.27 3.11 3.11 0 0 0 6.1-1.27"
          fill="#f5de06"/>
    <path d="M205.21 9.38c-14.77 5.4-24.67 10.26-70 18.3-37.89 6.73-64.48 6.72-90.58 13.27-12.02 2.99-21.8 10.86-25.4 27.21-1.65 7.48-9.06 43.64-10.1 48.58-1.08 5.13 3.57 6.39 5.4 4.6 24.31-23.77 45.38-26.6 77.27-30 19.1-2.03 44.56-4.5 55.7-11.93-16.79 19.69-51.82 73.23-72.22 115.03-25.03 51.23-42.17 93.8-45.92 139.2-.6 7.9 5.52 10.6 8.22 9.16 27.9-16.93 57.87-27.79 85.47-36.62-4.45-8.76-4.8-32.64 2.78-70.1 4.2-20.61 11.2-45.9 20.11-68.38 13.64-34.32 27.43-63.22 48.86-102.44 10.3-18.89 15.85-34.6 17.8-49.58-.2-7.37-5.11-7.13-7.39-6.3"
          fill="#275835"/>
    <path d="M205.21 9.38c-14.77 5.4-24.67 10.26-70 18.3-37.89 6.73-64.48 6.72-90.58 13.27-12.02 2.99-21.8 10.86-25.4 27.21-1.65 7.48-9.06 43.64-10.1 48.58-1.08 5.13 3.57 6.39 5.4 4.6 24.31-23.77 45.38-26.6 77.27-30 19.1-2.03 44.56-4.5 55.7-11.93-16.79 19.69-51.82 73.23-72.22 115.03-25.03 51.23-42.17 93.8-45.92 139.2-.6 7.9 5.52 10.6 8.22 9.16 27.9-16.93 57.87-27.79 85.47-36.62-4.45-8.76-4.8-32.64 2.78-70.1 4.2-20.61 11.2-45.9 20.11-68.38 13.64-34.32 27.43-63.22 48.86-102.44 10.3-18.89 15.85-34.6 17.8-49.58-.2-7.37-5.11-7.13-7.39-6.3z"
          fill="none" stroke="#275835" stroke-width="17.96" stroke-linecap="round" stroke-linejoin="round"
          stroke-miterlimit="10"/>
    <path d="M202 4.47c-14.76 5.4-24.66 10.26-70 18.3-37.88 6.73-64.47 6.73-90.57 13.27-12.02 3-21.8 10.9-25.4 27.25-1.65 7.48-9.06 43.64-10.1 48.57-1.08 5.13 3.57 6.39 5.4 4.6C35.64 92.7 56.7 89.86 88.6 86.47c19.1-2.03 44.56-4.5 55.7-11.93-16.79 19.69-51.82 73.23-72.22 115.03-25.03 51.22-42.16 93.79-45.91 139.2-.61 7.9 5.5 10.6 8.21 9.15 27.9-16.92 57.87-27.78 85.46-36.62-4.44-8.75-4.8-32.63 2.78-70.1 4.21-20.6 11.21-45.9 20.12-68.37 13.64-34.33 27.44-63.21 48.86-102.44 10.3-18.9 15.84-34.65 17.79-49.63-.19-7.37-5.1-7.13-7.39-6.3"
          fill="#fff"/>
    <path d="M262.22 57.98a5.2 5.2 0 1 0-10.2 2.1 5.2 5.2 0 0 0 10.2-2.1" fill="#275835"/>
    <path d="M238.98 76.47a6.06 6.06 0 0 1-6.19-5.92 6.06 6.06 0 0 1 6.19-5.91c3.4 0 6.18 2.65 6.18 5.9a6.07 6.07 0 0 1-6.18 5.93m0-14.8a9 9 0 0 0-9.12 8.88 9 9 0 0 0 9.12 8.89 9 9 0 0 0 9.1-8.9 9 9 0 0 0-9.1-8.88m26.72 21.03a6.01 6.01 0 0 0-11.75 2.4 6 6 0 0 0 11.75-2.4"
          fill="#f5de06"/>
    <path d="M277.24 71.6a3.1 3.1 0 1 0-6.09 1.24 3.1 3.1 0 0 0 6.09-1.25" fill="#275835"/>
    <path d="M272.89 103.7a3.1 3.1 0 1 0-6.09 1.24 3.1 3.1 0 0 0 6.09-1.24m-1.96-72.9a5.78 5.78 0 1 1 .01-11.57 5.78 5.78 0 0 1-.01 11.56"
          fill="#f5de06"/>
    <path d="M229.7 91.91a4.07 4.07 0 1 0 8.15 0 4.07 4.07 0 0 0-8.14 0m26.69-55.88a4.08 4.08 0 1 1-8.15 0 4.08 4.08 0 0 1 8.15 0"
          fill="#275835"/>
    <path d="M212.45 102.93a81.74 81.74 0 1 0 0 163.47 81.75 81.75 0 1 0 0-163.47" fill="#eb1a2c"/>
    <path d="M212.11 142.78l-21.1 4.38s.63 1.56.29 3.6c-.34 2.05-10.93 62.1-10.93 62.1-2.25 1.7-11.52 4.77-10.18-3.89l10-56.23c.31-1.84-.9-3.37-.9-3.37l-21.69 4.56s.58 3.43.26 5.36c-.35 1.94-8.64 48.52-9.15 53-1.7 14.56 7.16 19.89 20.37 17.17 0 0 8.32-2.47 12.42-6.04 0 0 .38 3.06 1.41 3.13 1.06.08 16.53-3.65 16.53-3.65l4.32-24.17h-.03c2.07-11.64 8.91-50.8 9.21-52.6.36-1.94-.83-3.35-.83-3.35M251.88 157l-5.96 34.72c-1.06 5.6-3.32 8.9-10.58 10.4-1.3.27-2.7.62-2.7.62l9.3-53.23 1.75-.32c7.22-1.5 8.93 3.13 8.2 7.82M266.3 136c-3.32-1.84-7.84-2.4-13.61-1.2-3.3.7-10.4 4.81-10.4 4.81-.32-1-1.43-2.26-2.6-2.2l-18.76 3.63s1.26 1.74.82 4.06c-.2 1.12-10.5 57.73-16.6 91.78-.56 2.96-.92 4.9-1 5.22-.74 3.16-1.81 4.3-1.81 4.3l21.86-3.58s1.1-.81 1.84-3.9c.1-.42 3.85-20.73 3.95-21.13 0-.07.02-.16.04-.22l7.76-1.6c20.2-4.15 27.16-14 29.82-28.53.55-4.24 5.06-30.06 5.54-34.15.86-7.72-1.31-14.26-6.85-17.29"
          fill="#fff"/>
    <path d="M138.21 256.07l7.9-7.75 1.3 1.33-7.9 7.74-1.3-1.32z" fill="#f5de06"/>
    <path d="M138.21 256.07l7.9-7.75 1.3 1.33-7.9 7.74-1.3-1.32z" fill="none" stroke="#f5de06" stroke-width=".52"
          stroke-miterlimit="10"/>
    <path d="M148.3 259.12c.74-.98.72-1.85-.1-2.6-.67-.6-1.63-.77-2.66.12l2.77 2.48zm-4.67-3.15c2.02-2.26 4.35-1.65 5.58-.55 1.33 1.19 1.89 3.12-.27 5.53l-.3.32-4.04-3.63c-.9 1.13-.67 2.18.2 2.96.77.7 1.45.84 2.28.8l.09 1.36a4.3 4.3 0 0 1-3.45-1.16c-1.48-1.32-2.04-3.46-.1-5.63"
          fill="#f5de06"/>
    <path d="M148.3 259.12c.74-.98.72-1.85-.1-2.6-.67-.6-1.63-.77-2.66.12l2.77 2.48zm-4.67-3.15c2.02-2.26 4.35-1.65 5.58-.55 1.33 1.19 1.89 3.12-.27 5.53l-.3.32-4.04-3.63c-.9 1.13-.67 2.18.2 2.96.77.7 1.45.84 2.28.8l.09 1.36a4.3 4.3 0 0 1-3.45-1.16c-1.48-1.32-2.04-3.46-.1-5.63z"
          fill="none" stroke="#f5de06" stroke-width=".52" stroke-miterlimit="10"/>
    <path d="M148.15 265.35l4.6-6.49 1.5 1.07-.62.9a3.6 3.6 0 0 1 2.94.56c1.09.77 1.21 1.5 1.02 2.32.91-.2 2.03-.15 3.02.55 1.32.93 1.34 2.14.5 3.3l-3.3 4.65-1.5-1.06 3.04-4.28c.51-.72.54-1.2-.17-1.7-.61-.44-1.35-.44-2.26-.34l-3.18 4.49-1.5-1.07 3.03-4.28c.51-.72.54-1.2-.17-1.7-.6-.42-1.34-.44-2.26-.33l-3.18 4.48-1.5-1.07z"
          fill="#f5de06"/>
    <path d="M148.15 265.35l4.6-6.49 1.5 1.07-.62.9a3.6 3.6 0 0 1 2.94.56c1.09.77 1.21 1.5 1.02 2.32.91-.2 2.03-.15 3.02.55 1.32.93 1.34 2.14.5 3.3l-3.3 4.65-1.5-1.06 3.04-4.28c.51-.72.54-1.2-.17-1.7-.61-.44-1.35-.44-2.26-.34l-3.18 4.49-1.5-1.07 3.03-4.28c.51-.72.54-1.2-.17-1.7-.6-.42-1.34-.44-2.26-.33l-3.18 4.48-1.5-1.07z"
          fill="none" stroke="#f5de06" stroke-width=".52" stroke-miterlimit="10"/>
    <path d="M166.96 272.68c.71-1.3.67-2.54-.55-3.21-1.17-.64-2.23-.13-3 1.28-.72 1.33-.7 2.57.54 3.24 1.17.64 2.23.13 3.01-1.3m-5.18-2.83c1.4-2.58 3.67-2.7 5.38-1.77 1.7.92 2.84 2.9 1.43 5.48-1.39 2.55-3.68 2.7-5.38 1.78-1.7-.93-2.82-2.94-1.43-5.49"
          fill="#f5de06"/>
    <path d="M166.96 272.68c.71-1.3.67-2.54-.55-3.21-1.17-.64-2.23-.13-3 1.28-.72 1.33-.7 2.57.54 3.24 1.17.64 2.23.13 3.01-1.3zm-5.18-2.82c1.4-2.58 3.67-2.7 5.38-1.77 1.7.92 2.84 2.9 1.43 5.48-1.39 2.55-3.68 2.7-5.38 1.78-1.7-.93-2.82-2.94-1.43-5.49z"
          fill="none" stroke="#f5de06" stroke-width=".52" stroke-miterlimit="10"/>
    <path d="M168.74 278.03l3.13-7.32 1.7.73-.5 1.17c.82-.4 1.96-.7 3.17-.19 1.34.58 1.87 1.62 1.25 3.06l-2.27 5.32-1.7-.73 2.07-4.83c.34-.8.2-1.35-.58-1.68-.74-.32-1.52-.22-2.4.1l-2.17 5.1-1.7-.73z"
          fill="#f5de06"/>
    <path d="M168.74 278.03l3.13-7.32 1.7.73-.5 1.17c.82-.4 1.96-.7 3.17-.19 1.34.58 1.87 1.62 1.25 3.06l-2.27 5.32-1.7-.73 2.07-4.83c.34-.8.2-1.35-.58-1.68-.74-.32-1.52-.22-2.4.1l-2.17 5.1-1.7-.73z"
          fill="none" stroke="#f5de06" stroke-width=".52" stroke-miterlimit="10"/>
    <path d="M177.21 283.27l1.05-1.41-.75-.26.65-1.84 1.94.68-.55 1.6-1.53 1.51-.8-.28z" fill="#f5de06"/>
    <path d="M177.21 283.27l1.05-1.41-.75-.26.65-1.84 1.94.68-.55 1.6-1.53 1.51-.8-.28z" fill="none" stroke="#f5de06"
          stroke-width=".52" stroke-miterlimit="10"/>
    <path d="M185.16 284.02l2.84-10.71 1.8.47-2.84 10.72-1.8-.48z" fill="#f5de06"/>
    <path d="M185.16 284.02l2.84-10.71 1.8.47-2.84 10.72-1.8-.48z" fill="none" stroke="#f5de06" stroke-width=".52"
          stroke-miterlimit="10"/>
    <path d="M191.37 275.96l.34-1.57 1.85.41-.35 1.57-1.84-.4zm-1.99 9.12l1.7-7.77 1.82.4-1.7 7.77-1.82-.4z"
          fill="#f5de06"/>
    <path d="M191.37 275.96l.34-1.57 1.85.41-.35 1.57-1.84-.4zm-1.99 9.12l1.7-7.77 1.82.4-1.7 7.77-1.82-.4z" fill="none"
          stroke="#f5de06" stroke-width=".52" stroke-miterlimit="10"/>
    <path d="M193.86 286.17l.98-7.89 1.82.22-.13 1.09a3.6 3.6 0 0 1 2.86-.9c1.32.17 1.78.75 2 1.56.7-.6 1.7-1.1 2.91-.95 1.6.2 2.19 1.25 2.01 2.66l-.7 5.66-1.83-.22.65-5.2c.1-.88-.1-1.31-.96-1.42-.74-.1-1.39.25-2.14.77l-.68 5.46-1.83-.23.65-5.2c.1-.88-.1-1.3-.96-1.41-.73-.1-1.39.25-2.15.77l-.67 5.45-1.83-.22z"
          fill="#f5de06"/>
    <path d="M193.86 286.17l.98-7.89 1.82.22-.13 1.09a3.6 3.6 0 0 1 2.86-.9c1.32.17 1.78.75 2 1.56.7-.6 1.7-1.1 2.91-.95 1.6.2 2.19 1.25 2.01 2.66l-.7 5.66-1.83-.22.65-5.2c.1-.88-.1-1.31-.96-1.42-.74-.1-1.39.25-2.14.77l-.68 5.46-1.83-.23.65-5.2c.1-.88-.1-1.3-.96-1.41-.73-.1-1.39.25-2.15.77l-.67 5.45-1.83-.22z"
          fill="none" stroke="#f5de06" stroke-width=".52" stroke-miterlimit="10"/>
    <path d="M213.52 282.95c-.09-1.2-.67-1.86-1.78-1.88-.9-.01-1.73.48-1.93 1.82l3.71.06zm-5.6.7c.06-3.03 2.21-4.1 3.86-4.08 1.78.03 3.47 1.12 3.42 4.35l-.01.44-5.44-.09c.06 1.44.93 2.08 2.1 2.1a2.88 2.88 0 0 0 2.24-.9l.96.98a4.3 4.3 0 0 1-3.36 1.39c-2-.04-3.81-1.28-3.77-4.2"
          fill="#f5de06"/>
    <path d="M213.52 282.95c-.09-1.2-.67-1.86-1.78-1.88-.9-.01-1.73.48-1.93 1.82l3.71.06zm-5.6.7c.06-3.03 2.21-4.1 3.86-4.08 1.78.03 3.47 1.12 3.42 4.35l-.01.44-5.44-.09c.06 1.44.93 2.08 2.1 2.1a2.88 2.88 0 0 0 2.24-.9l.96.98a4.3 4.3 0 0 1-3.36 1.39c-2-.04-3.81-1.28-3.77-4.2z"
          fill="none" stroke="#f5de06" stroke-width=".52" stroke-miterlimit="10"/>
    <path d="M225.46 277.95a1 1 0 0 0-1.16-.9c-.72.1-1.15.52-1.05 1.35.08.61.34 1.17.8 1.79.87-.64 1.54-1.28 1.41-2.24m1.02 6.98c-.6-.43-1.24-1-2-1.73a21 21 0 0 1-1.06-1.09c-.75.63-1.22 1.35-1.11 2.15.15 1.15 1 1.58 2.32 1.41a3.3 3.3 0 0 0 1.85-.74m-6-.18c-.22-1.71.83-2.79 2.11-3.65a5.15 5.15 0 0 1-1.03-2.37c-.18-1.4.57-2.83 2.53-3.08 1.81-.24 2.77.74 2.93 1.95.2 1.59-.9 2.62-2.22 3.52.27.3.58.62.94.96.64.63 1.2 1.13 1.7 1.52.38-.76.56-1.7.56-2.75l1.62-.2a8.33 8.33 0 0 1-.82 3.68c.77.38 1.47.5 2.2.41l.2 1.53c-1.3.14-2.32 0-3.39-.54a5.18 5.18 0 0 1-3.15 1.45c-2.4.3-3.96-.74-4.18-2.43"
          fill="#f5de06"/>
    <path d="M225.46 277.95a1 1 0 0 0-1.16-.9c-.72.1-1.15.52-1.05 1.35.08.61.34 1.17.8 1.79.87-.64 1.54-1.28 1.41-2.24zm1.02 6.98c-.6-.43-1.24-1-2-1.73a21 21 0 0 1-1.06-1.09c-.75.63-1.22 1.35-1.11 2.15.15 1.15 1 1.58 2.32 1.41a3.3 3.3 0 0 0 1.85-.74zm-6-.18c-.22-1.71.83-2.79 2.11-3.65a5.15 5.15 0 0 1-1.03-2.37c-.18-1.4.57-2.83 2.53-3.08 1.81-.24 2.77.74 2.93 1.95.2 1.59-.9 2.62-2.22 3.52.27.3.58.62.94.96.64.63 1.2 1.13 1.7 1.52.38-.76.56-1.7.56-2.75l1.62-.2a8.33 8.33 0 0 1-.82 3.68c.77.38 1.47.5 2.2.41l.2 1.53c-1.3.14-2.32 0-3.39-.54a5.18 5.18 0 0 1-3.15 1.45c-2.4.3-3.96-.74-4.18-2.43z"
          fill="none" stroke="#f5de06" stroke-width=".52" stroke-miterlimit="10"/>
    <path d="M241.37 279.44c-.46-1.62-1.39-2.27-2.53-1.95-.73.2-1.3.87-1.59 1.49l.87 3.07c.65.48 1.43.62 2.07.45 1.34-.38 1.65-1.36 1.18-3.06m-2.86 4l.24.86-1.77.5-3-10.67 1.77-.5 1.13 4.02c.34-.75.97-1.51 2.11-1.84 1.75-.49 3.4.46 4.15 3.12.74 2.65-.2 4.31-2.16 4.87-.83.23-1.73.12-2.47-.35"
          fill="#f5de06"/>
    <path d="M241.37 279.44c-.46-1.62-1.39-2.27-2.53-1.95-.73.2-1.3.87-1.59 1.49l.87 3.07c.65.48 1.43.62 2.07.45 1.34-.38 1.65-1.36 1.18-3.06zm-2.86 4l.24.86-1.77.5-3-10.67 1.77-.5 1.13 4.02c.34-.75.97-1.51 2.11-1.84 1.75-.49 3.4.46 4.15 3.12.74 2.65-.2 4.31-2.16 4.87-.83.23-1.73.12-2.47-.35z"
          fill="none" stroke="#f5de06" stroke-width=".52" stroke-miterlimit="10"/>
    <path d="M245.46 279.96l-2.06-5.32 1.73-.67 1.9 4.92c.32.82.82 1.06 1.58.77.75-.29 1.23-.93 1.63-1.74l-2-5.16 1.74-.67 2.87 7.42-1.73.67-.39-1a3.95 3.95 0 0 1-2.26 2.19c-1.3.5-2.44.06-3-1.4"
          fill="#f5de06"/>
    <path d="M245.46 279.96l-2.06-5.32 1.73-.67 1.9 4.92c.32.82.82 1.06 1.58.77.75-.29 1.23-.93 1.63-1.74l-2-5.16 1.74-.67 2.87 7.42-1.73.67-.39-1a3.95 3.95 0 0 1-2.26 2.19c-1.3.5-2.44.06-3-1.4z"
          fill="none" stroke="#f5de06" stroke-width=".52" stroke-miterlimit="10"/>
    <path d="M258.61 272.34c-.74-1.5-1.78-1.97-2.84-1.44a2.67 2.67 0 0 0-1.28 1.76l1.43 2.85c.73.36 1.52.35 2.11.05 1.25-.62 1.37-1.64.58-3.22m-2.05 4.48l.4.78-1.65.83-4.95-9.91 1.64-.83 1.87 3.74c.2-.8.67-1.67 1.73-2.2 1.62-.81 3.42-.2 4.66 2.27 1.23 2.47.61 4.28-1.21 5.2-.77.37-1.67.44-2.49.12"
          fill="#f5de06"/>
    <path d="M258.61 272.34c-.74-1.5-1.78-1.97-2.84-1.44a2.67 2.67 0 0 0-1.28 1.76l1.43 2.85c.73.36 1.52.35 2.11.05 1.25-.62 1.37-1.64.58-3.22zm-2.05 4.48l.4.78-1.65.83-4.95-9.91 1.64-.83 1.87 3.74c.2-.8.67-1.67 1.73-2.2 1.62-.81 3.42-.2 4.66 2.27 1.23 2.47.61 4.28-1.21 5.2-.77.37-1.67.44-2.49.12z"
          fill="none" stroke="#f5de06" stroke-width=".52" stroke-miterlimit="10"/>
    <path d="M266.7 267.57c-.89-1.42-1.96-1.8-2.97-1.17-.65.4-1.01 1.2-1.1 1.88l1.68 2.7c.77.3 1.56.2 2.12-.15 1.18-.73 1.2-1.76.27-3.26m-1.61 4.65l.46.75-1.56.98-5.88-9.41 1.57-.97 2.21 3.54c.11-.81.51-1.73 1.52-2.36 1.53-.96 3.39-.5 4.85 1.83 1.46 2.34 1.02 4.2-.71 5.28-.73.45-1.62.6-2.46.36"
          fill="#f5de06"/>
    <path d="M266.7 267.57c-.89-1.42-1.96-1.8-2.97-1.17-.65.4-1.01 1.2-1.1 1.88l1.68 2.7c.77.3 1.56.2 2.12-.15 1.18-.73 1.2-1.76.27-3.26zm-1.61 4.65l.46.75-1.56.98-5.88-9.41 1.57-.97 2.21 3.54c.11-.81.51-1.73 1.52-2.36 1.53-.96 3.39-.5 4.85 1.83 1.46 2.34 1.02 4.2-.71 5.28-.73.45-1.62.6-2.46.36z"
          fill="none" stroke="#f5de06" stroke-width=".52" stroke-miterlimit="10"/>
    <path d="M272.12 268.65l-6.51-8.98 1.5-1.1 6.51 8.98-1.5 1.1z" fill="#f5de06"/>
    <path d="M272.12 268.65l-6.51-8.98 1.5-1.1 6.51 8.98-1.5 1.1z" fill="none" stroke="#f5de06" stroke-width=".52"
          stroke-miterlimit="10"/>
    <path d="M276.63 259.1c-.86-.86-1.73-.98-2.58-.27-.7.57-1 1.5-.29 2.65l2.87-2.38zm-3.8 4.17c-1.94-2.33-1-4.55.27-5.6 1.38-1.14 3.37-1.4 5.43 1.08l.28.34-4.19 3.46c.98 1.06 2.06.98 2.96.24a2.9 2.9 0 0 0 1.13-2.14l1.35.12a4.28 4.28 0 0 1-1.65 3.24c-1.53 1.26-3.73 1.5-5.59-.74"
          fill="#f5de06"/>
    <path d="M276.63 259.1c-.86-.86-1.73-.98-2.58-.27-.7.57-1 1.5-.29 2.65l2.87-2.38zm-3.8 4.17c-1.94-2.33-1-4.55.27-5.6 1.38-1.14 3.37-1.4 5.43 1.08l.28.34-4.19 3.46c.98 1.06 2.06.98 2.96.24a2.9 2.9 0 0 0 1.13-2.14l1.35.12a4.28 4.28 0 0 1-1.65 3.24c-1.53 1.26-3.73 1.5-5.59-.74z"
          fill="none" stroke="#f5de06" stroke-width=".52" stroke-miterlimit="10"/>
    <path d="M281.21 259.97l-.06-1.5a3.92 3.92 0 0 0 2.45-1.08c.7-.7.96-1.29.5-1.76-.46-.47-1.17-.04-2.01.47-1.2.73-2.62 1.61-3.9.3-.98-1-.78-2.51.47-3.73a4.68 4.68 0 0 1 3.12-1.49l.2 1.48a4 4 0 0 0-2.2.95c-.74.7-.72 1.2-.4 1.52.45.46 1.15.04 1.97-.47 1.19-.73 2.61-1.65 3.91-.32 1.17 1.2.64 2.81-.66 4.08a5.02 5.02 0 0 1-3.39 1.55"
          fill="#f5de06"/>
    <path d="M281.21 259.97l-.06-1.5a3.92 3.92 0 0 0 2.45-1.08c.7-.7.96-1.29.5-1.76-.46-.47-1.17-.04-2.01.47-1.2.73-2.62 1.61-3.9.3-.98-1-.78-2.51.47-3.73a4.68 4.68 0 0 1 3.12-1.49l.2 1.48a4 4 0 0 0-2.2.95c-.74.7-.72 1.2-.4 1.52.45.46 1.15.04 1.97-.47 1.19-.73 2.61-1.65 3.91-.32 1.17 1.2.64 2.81-.66 4.08a5.02 5.02 0 0 1-3.39 1.55z"
          fill="none" stroke="#f5de06" stroke-width=".52" stroke-miterlimit="10"/>
    <path d="M51.9 361.6l.35-1.47a3.9 3.9 0 0 0 2.64-.36c.87-.47 1.28-.98.97-1.56-.3-.56-1.11-.35-2.06-.1-1.35.38-2.96.84-3.83-.78-.66-1.23-.06-2.62 1.48-3.46a4.65 4.65 0 0 1 3.4-.56l-.2 1.47a3.98 3.98 0 0 0-2.39.3c-.9.49-1.01.96-.8 1.36.3.57 1.1.36 2.03.1 1.34-.4 2.96-.88 3.84.75.8 1.48-.16 2.88-1.75 3.75-1.3.7-2.7.86-3.68.56"
          fill="#275835"/>
    <path d="M51.9 361.6l.35-1.47a3.9 3.9 0 0 0 2.64-.36c.87-.47 1.28-.98.97-1.56-.3-.56-1.11-.35-2.06-.1-1.35.38-2.96.84-3.83-.78-.66-1.23-.06-2.62 1.48-3.46a4.65 4.65 0 0 1 3.4-.56l-.2 1.47a3.98 3.98 0 0 0-2.39.3c-.9.49-1.01.96-.8 1.36.3.57 1.1.36 2.03.1 1.34-.4 2.96-.88 3.84.75.8 1.48-.16 2.88-1.75 3.75-1.3.7-2.7.86-3.68.56z"
          fill="none" stroke="#275835" stroke-width=".52" stroke-miterlimit="10"/>
    <path d="M59.87 358.59l-3.63-7.08 1.65-.85 3.63 7.08-1.65.85zm-4.27-8.3l-.73-1.43 1.68-.86.73 1.43-1.68.86z"
          fill="#275835"/>
    <path d="M59.87 358.59l-3.63-7.08 1.65-.85 3.63 7.08-1.65.85zm-4.27-8.3l-.73-1.43 1.68-.86.73 1.43-1.68.86z"
          fill="none" stroke="#275835" stroke-width=".52" stroke-miterlimit="10"/>
    <path d="M63.4 356.76l-3.48-7.15 1.66-.8.56 1.14c.23-.88.75-1.95 1.93-2.52 1.3-.64 2.44-.36 3.13 1.05l2.53 5.2-1.65.8-2.3-4.72c-.39-.78-.9-1.03-1.66-.66-.73.36-1.15 1.01-1.49 1.88l2.44 4.97-1.66.81z"
          fill="#275835"/>
    <path d="M63.4 356.76l-3.48-7.15 1.66-.8.56 1.14c.23-.88.75-1.95 1.93-2.52 1.3-.64 2.44-.36 3.13 1.05l2.53 5.2-1.65.8-2.3-4.72c-.39-.78-.9-1.03-1.66-.66-.73.36-1.15 1.01-1.49 1.88l2.44 4.97-1.66.81z"
          fill="none" stroke="#275835" stroke-width=".52" stroke-miterlimit="10"/>
    <path d="M69.4 349.45c-1.26-2.76.16-4.61 1.77-5.34 1.8-.82 3.01-.17 3.96.74L73.94 346c-.66-.68-1.35-.84-2.16-.47-.95.43-1.47 1.42-.69 3.15.7 1.54 1.72 2.1 2.83 1.6.76-.35 1.18-.82 1.11-2.02l1.62-.13c.01 1.4-.4 2.75-2.15 3.55-1.68.76-3.9.42-5.1-2.23"
          fill="#275835"/>
    <path d="M69.4 349.45c-1.26-2.76.16-4.61 1.77-5.34 1.8-.82 3.01-.17 3.96.74L73.94 346c-.66-.68-1.35-.84-2.16-.47-.95.43-1.47 1.42-.69 3.15.7 1.54 1.72 2.1 2.83 1.6.76-.35 1.18-.82 1.11-2.02l1.62-.13c.01 1.4-.4 2.75-2.15 3.55-1.68.76-3.9.42-5.1-2.23z"
          fill="none" stroke="#275835" stroke-width=".52" stroke-miterlimit="10"/>
    <path d="M81.6 343.2c-.58-1.07-1.39-1.42-2.4-.99-.83.36-1.4 1.15-1.02 2.46l3.41-1.46zm-4.84 2.93c-1.2-2.79.34-4.65 1.86-5.3 1.64-.7 3.63-.4 4.9 2.58l.17.4-5 2.14c.63 1.29 1.7 1.52 2.77 1.06a2.9 2.9 0 0 0 1.69-1.73l1.27.5a4.3 4.3 0 0 1-2.5 2.63c-1.84.79-4.01.4-5.16-2.28"
          fill="#275835"/>
    <path d="M81.6 343.2c-.58-1.07-1.39-1.42-2.4-.99-.83.36-1.4 1.15-1.02 2.46l3.41-1.46zm-4.84 2.93c-1.2-2.79.34-4.65 1.86-5.3 1.64-.7 3.63-.4 4.9 2.58l.17.4-5 2.14c.63 1.29 1.7 1.52 2.77 1.06a2.9 2.9 0 0 0 1.69-1.73l1.27.5a4.3 4.3 0 0 1-2.5 2.63c-1.84.79-4.01.4-5.16-2.28z"
          fill="none" stroke="#275835" stroke-width=".52" stroke-miterlimit="10"/>
    <path d="M89.55 345.07l-.61-1.53 1.9-.75-2.77-7c-.4.46-1.08.97-1.68 1.2l-.62-1.57a3.09 3.09 0 0 0 1.65-1.43l1.65-.65 3.46 8.78 1.69-.67.6 1.53-5.27 2.09z"
          fill="#275835"/>
    <path d="M89.55 345.07l-.61-1.53 1.9-.75-2.77-7c-.4.46-1.08.97-1.68 1.2l-.62-1.57a3.09 3.09 0 0 0 1.65-1.43l1.65-.65 3.46 8.78 1.69-.67.6 1.53-5.27 2.09z"
          fill="none" stroke="#275835" stroke-width=".52" stroke-miterlimit="10"/>
    <path d="M99.25 334.17c-.89-1.94-2.1-2.4-3.4-1.91-1.26.47-1.73 1.48-1.27 2.7.4 1.09 1.2 1.68 2.66 1.14a3.56 3.56 0 0 0 2.01-1.93m-3.32 7.64l.36-1.6c.6.16 1.33.22 2.14-.08 1.57-.59 2.08-2.38 1.35-4.6a4.29 4.29 0 0 1-2.31 2.15c-1.98.74-3.74.1-4.54-2.03-.78-2.09.38-4.16 2.43-4.94 2.39-.9 4.66.24 5.96 3.7 1.38 3.66.04 6.33-2.4 7.24a4.75 4.75 0 0 1-2.99.16"
          fill="#275835"/>
    <path d="M99.25 334.17c-.89-1.94-2.1-2.4-3.4-1.91-1.26.47-1.73 1.48-1.27 2.7.4 1.09 1.2 1.68 2.66 1.14a3.56 3.56 0 0 0 2.01-1.93zm-3.32 7.64l.36-1.6c.6.16 1.33.22 2.14-.08 1.57-.59 2.08-2.38 1.35-4.6a4.29 4.29 0 0 1-2.31 2.15c-1.98.74-3.74.1-4.54-2.03-.78-2.09.38-4.16 2.43-4.94 2.39-.9 4.66.24 5.96 3.7 1.38 3.66.04 6.33-2.4 7.24a4.75 4.75 0 0 1-2.99.16z"
          fill="none" stroke="#275835" stroke-width=".52" stroke-miterlimit="10"/>
    <path d="M104.32 339.42l-.09-.22c-.53-1.51-.53-3.15 1.6-5.89 1.23-1.6 1.69-2.31 1.3-3.38-.34-.98-1.18-1.28-2.17-.93-.91.32-1.6 1.2-1.9 2.4l-1.64-.43a4.68 4.68 0 0 1 3.07-3.58c2.04-.73 3.7.02 4.32 1.8.45 1.27.33 2.39-1.22 4.37-1.3 1.65-1.85 2.77-1.77 3.58l5.22-1.85.55 1.55-7.27 2.58z"
          fill="#275835"/>
    <path d="M104.32 339.42l-.09-.22c-.53-1.51-.53-3.15 1.6-5.89 1.23-1.6 1.69-2.31 1.3-3.38-.34-.98-1.18-1.28-2.17-.93-.91.32-1.6 1.2-1.9 2.4l-1.64-.43a4.68 4.68 0 0 1 3.07-3.58c2.04-.73 3.7.02 4.32 1.8.45 1.27.33 2.39-1.22 4.37-1.3 1.65-1.85 2.77-1.77 3.58l5.22-1.85.55 1.55-7.27 2.58z"
          fill="none" stroke="#275835" stroke-width=".52" stroke-miterlimit="10"/>
    <path d="M116.77 328.04c-.83-1.99-2.03-2.48-3.34-2.04-1.28.43-1.78 1.43-1.36 2.68.37 1.09 1.14 1.71 2.62 1.21a3.6 3.6 0 0 0 2.08-1.85m-3.58 7.53l.41-1.6c.6.18 1.32.27 2.15 0 1.59-.55 2.16-2.32 1.5-4.56a4.3 4.3 0 0 1-2.39 2.07c-2 .68-3.73-.02-4.46-2.18-.72-2.11.5-4.15 2.6-4.86 2.4-.81 4.65.4 5.83 3.9 1.25 3.7-.17 6.33-2.64 7.16-1.18.4-2.28.31-3 .07"
          fill="#275835"/>
    <path d="M116.77 328.04c-.83-1.99-2.03-2.48-3.34-2.04-1.28.43-1.78 1.43-1.36 2.68.37 1.09 1.14 1.71 2.62 1.21a3.6 3.6 0 0 0 2.08-1.85zm-3.58 7.53l.41-1.6c.6.18 1.32.27 2.15 0 1.59-.55 2.16-2.32 1.5-4.56a4.3 4.3 0 0 1-2.39 2.07c-2 .68-3.73-.02-4.46-2.18-.72-2.11.5-4.15 2.6-4.86 2.4-.81 4.65.4 5.83 3.9 1.25 3.7-.17 6.33-2.64 7.16-1.18.4-2.28.31-3 .07z"
          fill="none" stroke="#275835" stroke-width=".52" stroke-miterlimit="10"/>
    <path d="M292.22 232.73h.76c.89 0 1.6-.3 1.6-1 0-.64-.46-1.06-1.47-1.06-.42 0-.72.04-.89.09v1.97zm-.04 3.92h-1.6v-6.9a13.6 13.6 0 0 1 2.66-.22c1.3 0 1.9.22 2.4.5.38.3.67.85.67 1.53 0 .75-.59 1.34-1.43 1.6v.08c.67.25 1.05.76 1.26 1.68a5.2 5.2 0 0 0 .51 1.73h-1.73c-.21-.25-.34-.88-.55-1.68-.12-.76-.54-1.1-1.43-1.1h-.76v2.78zm-4.25-3.62a5.35 5.35 0 0 0 5.39 5.52c3.03 0 5.26-2.44 5.26-5.48 0-3.07-2.23-5.56-5.3-5.56a5.37 5.37 0 0 0-5.35 5.52m12.43 0c0 3.92-3.08 7-7.08 7a7 7 0 0 1-7.12-7 6.99 6.99 0 0 1 7.12-6.91c4 0 7.08 3.08 7.08 6.91"
          fill="#275835"/>
</svg>