<svg xmlns="http://www.w3.org/2000/svg" viewBox="0 0 300 73.446328"><path fill="#83b81a" d="M218.44528 21.99955c-1.43356238 4.64333124-8.09244706 7.82538623-19.96657626 9.5285289l-28.35379802 4.02354854.7104826-2.3204059c2.34811974-7.63390865 5.68889957-12.84663373 9.9996645-15.60794195 4.30824547-2.75626934 11.32992976-4.1470012 21.06253344-4.1470012 12.79120602 0 18.30122523 2.84696922 16.54769374 8.5232716M61.09606182 58.7128559c-4.6055396.71804092-11.20143824 1.08335998-19.82296808 1.08335998-14.97052318 0-21.5109941-3.0258496-19.61637385-9.0649516 1.35797912-4.33092045 5.28075-6.93350383 11.79350705-7.81530846l34.05025593-4.56774798-6.40442106 20.36464807zM298.46275157 4.1946548c-1.0178545-1.49906787-2.2473421-2.52196124-7.32149787-2.90743584-1.33026527-.1032971-5.73676898-.24438585-13.13133066-.24438585-19.45512958 0-32.66708238 5.9055716-39.42926417 17.5504316 1.85934804-11.72044327-9.56128164-17.5932621-34.30975844-17.5932621-29.04160563 0-47.16898938 11.71036548-54.40230678 35.0907854-2.68320552 8.69459364-2.9527858 15.8220945-.83897412 21.3976192l-6.85792058.45601896c-5.35633327.4031107-12.40321198.76842975-16.72153523.76842975-10.62448607 0-17.22794303-1.78628423-19.78013757-5.35129437-2.2775754-3.19213276-2.0558645-9.13297653.6147438-17.8099341 4.42917868-14.35325992 15.41394493-20.81814758 32.9643765-20.81814758 9.09266547-.02267498 17.95606172.952349 17.95606172.952349 1.2168904-.0781027 1.76108982-1.3504208 1.62503996-2.40354748l-.1738415-1.3680569-.62482155-4.82725048c-.40563013-3.16693836-2.76382766-5.05400027-7.08970923-5.63851076-3.94040697-.2645414-6.86799834-.44846064-11.18380215-.44846064-.08314158 0-.1637637.00755832-.2418664.00755832-22.93447872.05038884-38.92285638 7.5935976-47.9525358 22.59435406C94.87421805 8.5406919 84.2698875 1.0000026 59.70532996 1.0000026c-13.657894 0-23.4459254.39555236-29.37921083 1.169021-4.55515077.5668744-7.33157564 2.4539363-8.33431347 5.6536274L20.0417577 14.0204778c-.35272186 1.13626825.193997 1.70314266 1.6527538 1.70314266l.04283052-.00755833c1.08084054-.1385693 5.23540006-.5492383 12.3377065-1.11611272 9.39247903-.74575477 16.35369672-1.12367104 20.92396415-1.12367104 13.52184414 0 19.22586037 3.37857144 17.10952926 10.14327268-.4635773 1.5015873-1.49654843 2.43378078-3.07119955 2.79406095-12.79372546 2.11381167-22.9395176 3.63807396-30.4449347 4.567748-21.13307783 2.69076383-33.33221503 9.2715458-36.63016434 19.74990426-4.5022425 14.4061682 6.79493453 21.61177175 33.8864922 21.61177175 13.51680526 0 24.86437113-.7885853 34.03261984-2.33048367 5.28075-.88936295 7.95891665-2.23474487 9.02464053-5.6410302l5.03384472-16.05640258c-.52152445 16.0387665 10.73282207 24.13121356 33.7957923 24.13121356 9.98202842 0 19.44757126-.33508576 23.91958046-1.11107383 4.72899226-.81629915 6.9864121-1.84675084 8.029461-5.41428043l1.0228934-5.06155858c4.91543094 7.65658363 15.6961224 11.48361573 32.32695772 11.48361573 17.55295102 0 27.80204026-.49129115 30.71451498-1.46883457 2.4413391-.77346863 3.95552363-2.02815065 4.48712585-3.79427935.11085544-.30989134.1562054-.64245766.20911367-1.01029616l2.11381167-6.81509007c.35272185-1.18413765-.18391925-1.75101205-1.6325983-1.70062322l-11.2291521.53916055c-7.4928199.40311068-13.37067762.61978268-17.6058593.61978268-7.97151384 0-13.44374143-.54167998-16.4368383-1.63007884-4.43925644-1.70818154-6.54299034-5.0993502-6.34899333-10.2289337l35.58207655-4.55515078c15.94050825-2.04074786 26.61538316-6.95113992 32.01454694-14.73873453l-12.05049013 41.9990948c-.2292692.7885853-.13604985 1.4335624.2645414 1.89965913.45098008.51648556 1.22192927.78102695 2.35567808.78102695h14.7311762c2.56983064 0 3.4894269-1.3327847 3.80687656-2.44889743l13.0129169-45.31719965c1.71322043-5.95847986 7.20056467-8.8659157 16.77192406-8.8659157 8.63412705 0 15.15444243.0781027 19.31404084.23682753.11337488.00251944.216672.00251944.33004688.00251944.80370193 0 2.2775754-.2897358 3.00317462-2.27001706l2.28765316-6.21798236c.43586343-1.20933206.34264408-2.27001706-.26706083-3.1644189"/></svg>
