<svg xmlns="http://www.w3.org/2000/svg" width="378" height="88">
    <path d="M371.08 38.5c-.5 8.5-8 10-8 10h-81v17.75c1.5 8.5 10 9.16 10 9.16h85l.24 11.34h-95.39s-15.1 0-17.26-13.14V13.13C266.83 0 281.93 0 281.93 0h95.39l-.24 11.34h-85s-8.5.66-10 9.16v17.75l89 .25zM101 0H12C0 1.67 0 13.33 0 13.33V87l17.92.08L17.67 59H97v28h16.67V16C113 1 101 0 101 0zm-4.67 16.67v30.66h-79V16.67S16.67 11 25.67 11H88c9 0 8.33 5.67 8.33 5.67zm152 70.08l-47.3-45.85L243.32 0h-18.75L191.7 31.86 158.83 0h-18.75l42.31 40.9-47.3 45.85h18.5L191.7 49.9l38.12 36.85h18.5z"/>
</svg>