<svg width="487" height="494" xmlns="http://www.w3.org/2000/svg"><g fill="none"><g transform="translate(26 40.251)"><path fill="#F7D9B5" d="M80 337.75h251v111H80z"/><path fill="#ACB4D1" d="M80 304.75h113v33H80zm195 0h56v33h-56z"/><path fill="#C3CCE5" d="M79 304.75h114v15H79zm195 0h57v15h-57z"/><path fill="#F7D9B5" d="M331 75.75h103v373H331z"/><path fill="#E0BC94" d="M418 76.75h15v372h-15z"/><path fill="#F9E4CF" d="M329 76.75h15v372h-15z"/><path d="M203.413 118.048v.003h-.38c.125 0 .254 0 .38-.003z" opacity=".5" fill="#4D4D4D"/><path fill="#F7D9B5" d="M313 105.75h135v120H313z"/><circle fill="#FCF5F0" cx="380.967" cy="165.971" r="44.33"/><path fill="#ACB4D1" d="M380.834 1.917L359.18 43.612 331 76.75h100l-25.152-28.81z"/><path fill="#E0BC94" d="M433 105.75h15v120h-15z"/><path fill="#F9E4CF" d="M312 105.75h15v120h-15z"/><path fill="#E0BC94" d="M313 210.75h135v15H313z"/><path fill="#F9E4CF" d="M313 105.75h135v15H313z"/><path d="M363.649 206.79s-31.768-31.458-3.648-60.04c30.499-31 64.702 11.994 64.702 11.994s-18.37-56.453-67.703-30.057c-40.333 33.73-12.368 72.809 6.649 78.103" fill="#EFE3DA"/><path fill="#8D98B7" d="M381 0l10.75 50.75 16.25 25 26-2.5-26.5-25.689z"/><path fill="#C3CCE5" d="M382 0l-10.75 50.75-16.25 25-26-2.5 26.5-25.689z"/><path fill="#ACB4D1" d="M1.167 280.917L20 241.75h42l18 39.167"/><path fill="#8D98B7" d="M50 241.75l7.833 40H81l-19.667-40H50"/><path fill="#C3CCE5" d="M32 241.75l-7.833 40H1l19.667-40H32"/><path fill="#ACB4D1" d="M193.166 280.917L212 241.75h42l18 39.167"/><path fill="#8D98B7" d="M242 241.75l7.834 40H273l-19.666-40H242"/><path fill="#C3CCE5" d="M224 241.75l-7.834 40H193l19.666-40H224"/><path fill="#F7D9B5" d="M1 281.75h79v167H1zm192 0h79v167h-79z"/><path fill="#E0BC94" d="M331 225.75h102v15H331zm0 167h102v15H331zm0-55h102v15H331zm0-57h102v15H331zm-74 0h15v168h-15zm-192 0h15v168H65zm15 57h15v111H80zm98 0h15v111h-15zm95 0h15v111h-15zm43 0h15v111h-15z"/><path fill="#F9E4CF" d="M193 280.75h15v168h-15zm-193 1h15v168H0z"/><path fill="#E0BC94" d="M191 337.75h82v15h-82z"/><path fill="#F9E4CF" d="M191 281.75h82v15h-82z"/><path fill="#E0BC94" d="M80 392.75h251v15H80z"/><path fill="#F9E4CF" d="M80 337.75h251v15H80z"/><path fill="#E0BC94" d="M0 337.75h82v15H0z"/><path fill="#F9E4CF" d="M0 281.75h82v15H0z"/><path fill="#E0BC94" d="M0 392.75h82v15H0z"/><path fill="#8D98B7" d="M316 303.75h15v34h-15zm-43 0h15v34h-15zm-193 0h15v34H80zm98 0h15v34h-15z"/></g><g fill="#3F456B" transform="translate(0 .001)"><path d="M457 121H357a5 5 0 110-10h100a5 5 0 110 10zm25 373H5a5 5 0 010-10h477a5 5 0 110 10z"/><circle cx="328.891" cy="455.75" r="6.473"/><path d="M474 271H339a5 5 0 01-5-5V146a5 5 0 015-5h135a5 5 0 015 5v120a5 5 0 01-5 5zm-130-10h125V151H344v110z"/><path d="M406.967 255.551c-27.201 0-49.33-22.129-49.33-49.33 0-27.201 22.129-49.33 49.33-49.33 27.201 0 49.33 22.129 49.33 49.33 0 27.201-22.129 49.33-49.33 49.33zm0-88.66c-21.687 0-39.33 17.644-39.33 39.33s17.644 39.33 39.33 39.33 39.33-17.644 39.33-39.33-17.644-39.33-39.33-39.33zM357 494a5 5 0 01-5-5V266a5 5 0 1110 0v223a5 5 0 01-5 5zm103 0a5 5 0 01-5-5V266a5 5 0 1110 0v223a5 5 0 01-5 5zm-434 0a5 5 0 01-5-5V266a5 5 0 0110 0v223a5 5 0 01-5 5zm80 0a5 5 0 01-5-5V266a5 5 0 0110 0v223a5 5 0 01-5 5zm113 0a5 5 0 01-5-5V266a5 5 0 1110 0v223a5 5 0 01-5 5zm80 0a5 5 0 01-5-5V266a5 5 0 1110 0v223a5 5 0 01-5 5zm57-343a5 5 0 01-5-5v-30.306c0-1.248.467-2.451 1.309-3.372L378.725 83.4l23.139-44.007a5 5 0 018.852 4.654l-23.438 44.576a4.995 4.995 0 01-.734 1.045L361 117.634V146a5 5 0 01-5 5z"/><path d="M459 151a5 5 0 01-5-5v-28.364l-25.574-27.964a4.966 4.966 0 01-.736-1.049l-23.421-44.576a5 5 0 018.852-4.651L436.242 83.4l26.448 28.92a5 5 0 011.311 3.375V146a5.001 5.001 0 01-5.001 5zm-29.14 74.892a4.979 4.979 0 01-2.695-.792L404.3 210.429a4.997 4.997 0 01-2.3-4.208V178a5 5 0 1110 0v25.488l20.565 13.195a5.001 5.001 0 01-2.705 9.209z"/><path d="M407 47a5 5 0 01-5-5V5a5 5 0 1110 0v37a5 5 0 01-5 5zm52 75a5 5 0 01-5-5V87a5 5 0 1110 0v30a5 5 0 01-5 5zm15 39a5 5 0 01-5-5v-30a5 5 0 1110 0v30a5 5 0 01-5 5zm-135 0a5 5 0 01-5-5v-30a5 5 0 1110 0v30a5 5 0 01-5 5zm17-39a5 5 0 01-5-5V87a5 5 0 1110 0v30a5 5 0 01-5 5zm115 261H9a5 5 0 010-10h462a5 5 0 110 10zm-252-33H106a5 5 0 010-10h113a5 5 0 110 10zm138 0h-58a5 5 0 110-10h58a5 5 0 110 10zm114-23H346a5 5 0 110-10h125a5 5 0 110 10zm-365 0H26a5 5 0 010-10h80a5 5 0 010 10zm193 0h-80a5 5 0 110-10h80a5 5 0 110 10zm172 111H9a5 5 0 010-10h462a5 5 0 110 10z"/><path d="M409 326a5 5 0 01-5-5v-33a5 5 0 1110 0v33a5 5 0 01-5 5zm-26 0a5 5 0 01-5-5v-33a5 5 0 1110 0v33a5 5 0 01-5 5zm-111 57a5 5 0 01-5-5v-33a5 5 0 1110 0v33a5 5 0 01-5 5zm-26 0a5 5 0 01-5-5v-33a5 5 0 1110 0v33a5 5 0 01-5 5zm26 55a5 5 0 01-5-5v-33a5 5 0 1110 0v33a5 5 0 01-5 5zm-26 0a5 5 0 01-5-5v-33a5 5 0 1110 0v33a5 5 0 01-5 5zM79 383a5 5 0 01-5-5v-33a5 5 0 0110 0v33a5 5 0 01-5 5zm-26 0a5 5 0 01-5-5v-33a5 5 0 0110 0v33a5 5 0 01-5 5zm26 55a5 5 0 01-5-5v-33a5 5 0 0110 0v33a5 5 0 01-5 5zm57 0a5 5 0 01-5-5v-33a5 5 0 0110 0v33a5 5 0 01-5 5zm55 0a5 5 0 01-5-5v-33a5 5 0 0110 0v33a5 5 0 01-5 5zm138 0a5 5 0 01-5-5v-33a5 5 0 1110 0v33a5 5 0 01-5 5zm0 56a5 5 0 01-5-5v-16a5 5 0 1110 0v16a5 5 0 01-5 5z"/><circle cx="190.891" cy="455.75" r="6.473"/><path d="M191 494a5 5 0 01-5-5v-16a5 5 0 0110 0v16a5 5 0 01-5 5z"/><g transform="translate(129.418 449.277)"><circle cx="6.473" cy="6.473" r="6.473"/><path d="M6.582 44.723a5 5 0 01-5-5v-16a5 5 0 0110 0v16a5 5 0 01-5 5z"/></g><g transform="translate(46.418 449.277)"><circle cx="6.473" cy="6.473" r="6.473"/><path d="M6.582 44.723a5 5 0 01-5-5v-16a5 5 0 0110 0v16a5 5 0 01-5 5z"/></g><g transform="translate(72.418 449.277)"><circle cx="6.473" cy="6.473" r="6.473"/><path d="M6.582 44.723a5 5 0 01-5-5v-16a5 5 0 0110 0v16a5 5 0 01-5 5z"/></g><g transform="translate(239.418 449.277)"><circle cx="6.473" cy="6.473" r="6.473"/><path d="M6.582 44.723a5 5 0 01-5-5v-16a5 5 0 1110 0v16a5 5 0 01-5 5z"/></g><g transform="translate(265.418 449.277)"><circle cx="6.473" cy="6.473" r="6.473"/><path d="M6.582 44.723a5 5 0 01-5-5v-16a5 5 0 1110 0v16a5 5 0 01-5 5z"/></g><g transform="translate(377.418 449.277)"><circle cx="6.473" cy="6.473" r="6.473"/><path d="M6.582 44.723a5 5 0 01-5-5v-16a5 5 0 1110 0v16a5 5 0 01-5 5z"/></g><g transform="translate(403.418 449.277)"><circle cx="6.473" cy="6.473" r="6.473"/><path d="M6.582 44.723a5 5 0 01-5-5v-16a5 5 0 1110 0v16a5 5 0 01-5 5z"/></g><g transform="translate(427.418 449.277)"><circle cx="6.473" cy="6.473" r="6.473"/><path d="M6.582 44.723a5 5 0 01-5-5v-16a5 5 0 1110 0v16a5 5 0 01-5 5z"/></g><path d="M53 438a5 5 0 01-5-5v-33a5 5 0 0110 0v33a5 5 0 01-5 5zm381-112a5 5 0 01-5-5v-33a5 5 0 1110 0v33a5 5 0 01-5 5zm-25-175a5 5 0 01-5-5v-15a5 5 0 1110 0v15a5 5 0 01-5 5zm-26 0a5 5 0 01-5-5v-15a5 5 0 1110 0v15a5 5 0 01-5 5zm51 0a5 5 0 01-5-5v-15a5 5 0 1110 0v15a5 5 0 01-5 5zm-25 232a5 5 0 01-5-5v-33a5 5 0 1110 0v33a5 5 0 01-5 5zm-26 0a5 5 0 01-5-5v-33a5 5 0 1110 0v33a5 5 0 01-5 5zm51 0a5 5 0 01-5-5v-33a5 5 0 1110 0v33a5 5 0 01-5 5zm-25 55a5 5 0 01-5-5v-33a5 5 0 1110 0v33a5 5 0 01-5 5zm-26 0a5 5 0 01-5-5v-33a5 5 0 1110 0v33a5 5 0 01-5 5zm51 0a5 5 0 01-5-5v-33a5 5 0 1110 0v33a5 5 0 01-5 5zM106.003 326.167a5 5 0 01-4.546-2.913L84.795 287H49.144l-17.471 36.333a5 5 0 11-9.012-4.334l18.834-39.167A5 5 0 0146 277h42a4.999 4.999 0 014.543 2.912l18 39.167a5 5 0 01-4.54 7.088zm192 0a5 5 0 01-4.546-2.913L276.795 287h-35.651l-17.472 36.333a5 5 0 11-9.012-4.334l18.834-39.167a5 5 0 014.506-2.833h42a4.999 4.999 0 014.543 2.912l18 39.167a5 5 0 01-4.54 7.089zM163 494a5 5 0 01-5-5V378a5 5 0 0110 0v111a5 5 0 01-5 5z"/></g></g></svg>