<svg xmlns="http://www.w3.org/2000/svg" viewBox="-.68 -.85 1015 1015"><linearGradient id="a" x1="-74.2" x2="1001.25" y1="-54.65" y2="984.59" gradientUnits="userSpaceOnUse"><stop offset="0" stop-color="#dff4ff"/><stop offset=".1" stop-color="#d6eaf5"/><stop offset=".27" stop-color="#bfd0d9"/><stop offset=".49" stop-color="#98a5ac"/><stop offset=".75" stop-color="#646b6e"/><stop offset="1" stop-color="#2b2b2b"/></linearGradient><path fill="url(#a)" d="M506.86 0C226.94 0 0 226.92 0 506.85c0 279.92 226.94 506.85 506.86 506.85 279.94 0 506.86-226.93 506.86-506.85C1013.72 226.92 786.8 0 506.86 0zm0 988.35c-265.94 0-481.5-215.57-481.5-481.5S240.93 25.34 506.87 25.34s481.51 215.58 481.51 481.5c0 265.94-215.57 481.51-481.51 481.51z"/><path fill="#333" d="M992 506.85c0 267.91-217.22 485.13-485.14 485.13-267.92 0-485.12-217.22-485.12-485.13 0-267.93 217.2-485.13 485.12-485.13S992 238.92 992 506.85z"/><radialGradient id="b" cx="-6.32" cy="33.52" r="720.11" fx="-6.32" fy="33.52" gradientUnits="userSpaceOnUse"><stop offset="0" stop-color="#fff"/><stop offset=".31" stop-color="#a8a8a8"/><stop offset=".65" stop-color="#4f4f4f"/><stop offset=".89" stop-color="#161616"/><stop offset="1"/></radialGradient><path fill="url(#b)" d="M988.37 506.85c0 265.93-215.57 481.5-481.51 481.5s-481.5-215.57-481.5-481.5S240.92 25.34 506.86 25.34s481.51 215.58 481.51 481.5z"/><linearGradient id="c" x1="54.04" x2="738.99" y1="304.85" y2="966.73" gradientTransform="rotate(180 465.49 584.65)" gradientUnits="userSpaceOnUse"><stop offset="0" stop-color="#dff4ff"/><stop offset=".09" stop-color="#d6eaf5"/><stop offset=".23" stop-color="#bed0d9"/><stop offset=".42" stop-color="#96a4ac"/><stop offset=".65" stop-color="#5f686d"/><stop offset=".91" stop-color="#1a1d1e"/><stop offset="1"/></linearGradient><path fill="url(#c)" d="M829.68 506.85c0 178.28-144.53 322.8-322.82 322.8s-322.82-144.52-322.82-322.8c0-178.3 144.53-322.82 322.82-322.82s322.82 144.53 322.82 322.82z"/><path d="M519.79 175.31l33.53-88.88v88.88h25.47V48.02h-38.27l-34.82 91.14h.34l-34.82-91.14h-38.27v127.29h25.47V86.43l33.53 88.88zm349.52 57.07l-43.51 63.45 68.35-33.61 18.53 22.23-107.56 54.01-21.74-26.32 41.7-62.86-.25-.31-69.36 29.68-21.98-26.14 72.53-96.04 18.54 22.24-45.41 61.16 70.28-31.35z"/><path fill="#333" d="M281.43 208.07c-10.25-9.95-26.07-12.95-40.94-3.73 2.85-7.37 1.69-14.86.18-19.02-6.41-11.66-8.66-13.14-13.9-17.56-17.1-14.33-35.08-2.1-47.92 13.22L116.73 255l97.65 81.92 65.5-78.05c14.97-17.83 17.28-35.52 1.55-50.81zm-126.32 35.7l37.3-44.47c4.34-5.14 14.11-4.94 20.38.34 6.91 5.8 6.93 14 2.3 19.55l-36.9 43.95-23.08-19.37zm102.93 7.4l-38.9 46.34-24.35-20.47 39.18-46.7c4.44-5.29 14.32-6.82 20.98-1.24 7.5 6.32 8.25 15.92 3.09 22.06z"/><radialGradient id="d" cx="-135.65" cy="-39.81" r="1730.31" fx="-135.65" fy="-39.81" gradientUnits="userSpaceOnUse"><stop offset="0" stop-color="#fff"/><stop offset=".31" stop-color="#fdfdfd"/><stop offset=".45" stop-color="#f6f6f6"/><stop offset=".56" stop-color="#e9e9e9"/><stop offset=".65" stop-color="#d7d7d7"/><stop offset=".72" stop-color="#bfbfbf"/><stop offset=".79" stop-color="#a2a2a2"/><stop offset=".86" stop-color="gray"/><stop offset=".92" stop-color="#575757"/><stop offset=".97" stop-color="#2b2b2b"/><stop offset="1" stop-color="#141414"/></radialGradient><path fill="url(#d)" d="M520.06 170.39l33.53-88.87v88.87h25.47V43.1h-38.28l-34.81 91.14h.33L471.49 43.1h-38.28v127.29h25.47V81.52l33.54 88.87z"/><radialGradient id="e" cx="-135.72" cy="-39.81" r="1730.46" fx="-135.72" fy="-39.81" gradientUnits="userSpaceOnUse"><stop offset="0" stop-color="#fff"/><stop offset=".31" stop-color="#fdfdfd"/><stop offset=".45" stop-color="#f6f6f6"/><stop offset=".56" stop-color="#e9e9e9"/><stop offset=".65" stop-color="#d7d7d7"/><stop offset=".72" stop-color="#bfbfbf"/><stop offset=".79" stop-color="#a2a2a2"/><stop offset=".86" stop-color="gray"/><stop offset=".92" stop-color="#575757"/><stop offset=".97" stop-color="#2b2b2b"/><stop offset="1" stop-color="#141414"/></radialGradient><path fill="url(#e)" d="M869.56 223.84l-43.49 63.45 68.34-33.62 18.52 22.24-107.55 54.01-21.74-26.32 41.71-62.86-.25-.32-69.38 29.69-21.96-26.15 72.53-96.03 18.54 22.23-45.41 61.16 70.26-31.33z"/><radialGradient id="f" cx="-135.82" cy="-40.32" r="1731.79" fx="-135.82" fy="-40.32" gradientUnits="userSpaceOnUse"><stop offset="0" stop-color="#fff"/><stop offset=".31" stop-color="#fdfdfd"/><stop offset=".45" stop-color="#f6f6f6"/><stop offset=".56" stop-color="#e9e9e9"/><stop offset=".65" stop-color="#d7d7d7"/><stop offset=".72" stop-color="#bfbfbf"/><stop offset=".79" stop-color="#a2a2a2"/><stop offset=".86" stop-color="gray"/><stop offset=".92" stop-color="#575757"/><stop offset=".97" stop-color="#2b2b2b"/><stop offset="1" stop-color="#141414"/></radialGradient><path fill="url(#f)" d="M276.87 205.56c-10.23-9.95-26.07-12.95-40.92-3.74a28.34 28.34 0 0 0 .17-19c-6.42-11.68-8.64-13.13-13.93-17.57-17.1-14.33-35.05-2.1-47.88 13.23l-62.14 74.02 97.65 81.93 65.5-78.06c14.95-17.84 17.28-35.51 1.55-50.8zm-126.32 35.7l37.3-44.45c4.32-5.16 14.1-4.95 20.38.32 6.91 5.8 6.93 14.02 2.27 19.54l-36.87 43.96-23.08-19.37zm102.95 7.4L214.6 295l-24.4-20.47 39.22-46.73c4.43-5.26 14.29-6.8 20.95-1.21 7.55 6.32 8.29 15.9 3.13 22.05z"/><radialGradient id="g" cx="174.25" cy="200.08" r="466.72" fx="174.25" fy="200.08" gradientUnits="userSpaceOnUse"><stop offset="0" stop-color="#e6e6e6"/><stop offset=".1" stop-color="#d6d6d6"/><stop offset=".31" stop-color="#adadad"/><stop offset=".59" stop-color="#6c6c6c"/><stop offset=".93" stop-color="#121212"/><stop offset="1"/></radialGradient><path fill="url(#g)" d="M194.79 506.85c0-172.36 139.72-312.08 312.07-312.08 172.37 0 312.07 139.72 312.07 312.08 0 172.35-139.7 312.07-312.07 312.07-172.35 0-312.07-139.72-312.07-312.07z"/><radialGradient id="h" cx="301.91" cy="262.85" r="678.74" fx="301.91" fy="262.85" gradientUnits="userSpaceOnUse"><stop offset="0" stop-color="#fff"/><stop offset=".34" stop-color="#fdfdfd"/><stop offset=".48" stop-color="#f6f6f6"/><stop offset=".58" stop-color="#eaeaea"/><stop offset=".67" stop-color="#d8d8d8"/><stop offset=".74" stop-color="#c2c2c2"/><stop offset=".8" stop-color="#a6a6a6"/><stop offset=".86" stop-color="#848484"/><stop offset=".91" stop-color="#5f5f5f"/><stop offset=".95" stop-color="#404040"/><stop offset=".96" stop-color="#404040"/><stop offset="1" stop-color="#404040"/><stop offset="1"/></radialGradient><path fill="url(#h)" d="M203.76 506.85c0-167.4 135.7-303.11 303.1-303.11s303.12 135.71 303.12 303.11-135.72 303.11-303.12 303.11-303.1-135.7-303.1-303.1z"/><radialGradient id="i" cx="102.62" cy="5.56" r="1202.06" fx="102.62" fy="5.56" gradientUnits="userSpaceOnUse"><stop offset=".17" stop-color="#fff"/><stop offset=".2" stop-color="#e0eff7"/><stop offset=".24" stop-color="#b2d9ec"/><stop offset=".29" stop-color="#8bc5e2"/><stop offset=".34" stop-color="#6bb5da"/><stop offset=".38" stop-color="#52a9d4"/><stop offset=".44" stop-color="#41a0cf"/><stop offset=".49" stop-color="#369bcd"/><stop offset=".56" stop-color="#39c"/><stop offset=".61" stop-color="#3396c8"/><stop offset=".66" stop-color="#328ebc"/><stop offset=".7" stop-color="#3180a8"/><stop offset=".75" stop-color="#2f6d8c"/><stop offset=".8" stop-color="#2d5468"/><stop offset=".85" stop-color="#2a373d"/><stop offset=".87" stop-color="#292929"/></radialGradient><path fill="url(#i)" d="M203.28 506.85h303.58V203.28c-167.67 0-303.58 135.9-303.58 303.57z"/><radialGradient id="j" cx="102.62" cy="5.55" r="1202.04" fx="102.62" fy="5.55" gradientUnits="userSpaceOnUse"><stop offset=".17" stop-color="#fff"/><stop offset=".2" stop-color="#e0eff7"/><stop offset=".24" stop-color="#b2d9ec"/><stop offset=".29" stop-color="#8bc5e2"/><stop offset=".34" stop-color="#6bb5da"/><stop offset=".38" stop-color="#52a9d4"/><stop offset=".44" stop-color="#41a0cf"/><stop offset=".49" stop-color="#369bcd"/><stop offset=".56" stop-color="#39c"/><stop offset=".61" stop-color="#3396c8"/><stop offset=".66" stop-color="#328ebc"/><stop offset=".7" stop-color="#3180a8"/><stop offset=".75" stop-color="#2f6d8c"/><stop offset=".8" stop-color="#2d5468"/><stop offset=".85" stop-color="#2a373d"/><stop offset=".87" stop-color="#292929"/></radialGradient><path fill="url(#j)" d="M506.86 506.85v303.58c167.67 0 303.58-135.93 303.58-303.58H506.86z"/><radialGradient id="k" cx="180.63" cy="205.95" r="457.77" fx="180.63" fy="205.95" gradientUnits="userSpaceOnUse"><stop offset="0" stop-color="#e6e6e6"/><stop offset=".1" stop-color="#d6d6d6"/><stop offset=".31" stop-color="#adadad"/><stop offset=".59" stop-color="#6c6c6c"/><stop offset=".93" stop-color="#121212"/><stop offset="1"/></radialGradient><path fill="url(#k)" d="M812.95 501.46H512.24V200.75h-10.76v300.71H200.77v10.77h300.71v300.71h10.76V512.23h300.71z"/><linearGradient id="l" x1="446.84" x2="893.25" y1="91.65" y2="523.04" gradientUnits="userSpaceOnUse"><stop offset="0" stop-color="#f0f4ff"/><stop offset=".11" stop-color="#ebeff9"/><stop offset=".25" stop-color="#dce0ea"/><stop offset=".4" stop-color="#c4c7cf"/><stop offset=".57" stop-color="#a2a4ab"/><stop offset=".75" stop-color="#76777c"/><stop offset=".93" stop-color="#414243"/><stop offset="1" stop-color="#2b2b2b"/></linearGradient><path fill="url(#l)" d="M512.24 209.27c160.14 2.84 289.37 132.06 292.23 292.19h5.36c-2.86-163.1-134.48-294.74-297.59-297.59v5.4z"/><path fill="#C2D7E8" d="M208.73 501.42c2.84-160.35 132.26-289.75 292.6-292.6v-5.39C338 206.3 206.21 338.1 203.35 501.42h5.38z"/><linearGradient id="m" x1="84.49" x2="530.91" y1="455.87" y2="887.27" gradientUnits="userSpaceOnUse"><stop offset="0" stop-color="#f0f4ff"/><stop offset=".11" stop-color="#ebeff9"/><stop offset=".25" stop-color="#dce0ea"/><stop offset=".4" stop-color="#c4c7cf"/><stop offset=".57" stop-color="#a2a4ab"/><stop offset=".75" stop-color="#76777c"/><stop offset=".93" stop-color="#414243"/><stop offset="1" stop-color="#2b2b2b"/></linearGradient><path fill="url(#m)" d="M501.48 804.43c-160.14-2.84-289.37-132.07-292.22-292.2h-5.38c2.87 163.1 134.49 294.74 297.6 297.59v-5.39z"/><path fill="#12404F" d="M804.48 512.23c-2.87 160.13-132.1 289.36-292.24 292.2v5.39c163.11-2.85 294.75-134.49 297.6-297.6h-5.37z"/><linearGradient id="n" x1="300.46" x2="531.95" y1="302.04" y2="525.74" gradientUnits="userSpaceOnUse"><stop offset="0" stop-color="#c2d7e8"/><stop offset=".13" stop-color="#bacfe1"/><stop offset=".34" stop-color="#a4bacd"/><stop offset=".6" stop-color="#8098ac"/><stop offset=".89" stop-color="#4e697f"/><stop offset="1" stop-color="#3a566d"/></linearGradient><path fill="url(#n)" d="M495.72 203.43v292.12H203.61v5.76h297.87V203.43z"/><linearGradient id="o" x1="184.52" x2="626.46" y1="356.85" y2="783.91" gradientUnits="userSpaceOnUse"><stop offset="0" stop-color="#f0f4ff"/><stop offset=".1" stop-color="#e8ebf6"/><stop offset=".26" stop-color="#d1d4dd"/><stop offset=".46" stop-color="#abaeb5"/><stop offset=".7" stop-color="#78797d"/><stop offset=".96" stop-color="#363637"/><stop offset="1" stop-color="#2b2b2b"/></linearGradient><path fill="url(#o)" d="M495.23 807V518.39h-289.2v-5.69h294.89V807z"/><linearGradient id="p" x1="510.26" x2="665.27" y1="515.27" y2="665.07" gradientUnits="userSpaceOnUse"><stop offset="0" stop-color="#d9def0"/><stop offset=".12" stop-color="#d4daec"/><stop offset=".26" stop-color="#c7cfe2"/><stop offset=".41" stop-color="#b0bcd1"/><stop offset=".57" stop-color="#90a1b8"/><stop offset=".72" stop-color="#677f99"/><stop offset=".88" stop-color="#355674"/><stop offset=".97" stop-color="#173d5d"/></linearGradient><path fill="url(#p)" d="M518.41 807V518.39h288.6v-5.69H512.74V807z"/><linearGradient id="q" x1="351.68" x2="793.13" y1="194.78" y2="621.37" gradientUnits="userSpaceOnUse"><stop offset="0" stop-color="#f0f4ff"/><stop offset=".11" stop-color="#ebeff9"/><stop offset=".25" stop-color="#dce0ea"/><stop offset=".4" stop-color="#c4c7cf"/><stop offset=".57" stop-color="#a2a4ab"/><stop offset=".75" stop-color="#76777c"/><stop offset=".93" stop-color="#414243"/><stop offset="1" stop-color="#2b2b2b"/></linearGradient><path fill="url(#q)" d="M518.41 206.01v288.6h288.6v5.69H512.74V206.01z"/></svg>