<svg xmlns="http://www.w3.org/2000/svg" width="399.46" height="169.22" version="1"><path d="M32.32 148.6H20.77v-35.56h11.55c7.9 0 11.57 5.9 11.57 16.46 0 14.5-4.4 19.1-11.57 19.1M20.77 61.44h11.26c5.82 0 10.53 4.28 10.53 16.07 0 11.92-5.44 16.04-10.53 16.04H20.77V61.44zm30.82 40.5v-.09c4.57-3.21 11.9-8.74 11.9-26.5C63.48 52.38 51.5 42 35.32 42H0v126.03h35.15c19.92 0 29.62-14.77 29.62-36.77 0-20.52-8.06-26.19-13.18-29.31zm51.37-40.5h11.26c5.82 0 10.51 4.28 10.51 16.07 0 11.92-5.42 16.04-10.5 16.04h-11.27V61.44m42.33 64.41c0-15.7-4.88-20.12-11.51-23.9v-.1c4.58-3.21 11.83-8.74 11.83-26.5 0-22.96-11.91-33.35-28.09-33.35H82.2v126.03h20.75l.02-55h11.26c5.9 0 10.13 4.91 10.13 16.05v38.95h20.93v-42.18zm40.48-95.25c0-9.47 8.7-10.7 13.51-10.7 4.8 0 13.48 1.2 13.48 10.7l-.01 62.95h-27l.02-62.95M199.28 0c-8.78 0-34.24 1.99-34.24 27.47v140.58h20.76v-55h26.96v54.97h20.77V27.47C233.53 1.94 208.03 0 199.28 0zm96.44 41.97v99.22c0 5.04-4.17 8.42-10.37 8.42-6.23 0-10.33-3.38-10.33-8.42L275 41.97l-20.75.03v102.5c0 19.52 20.06 24.72 31.12 24.72 10.96 0 31.11-5.23 31.11-24.74V41.98h-20.76m82.98 126.03V68.84c0-5.05-4.18-8.42-10.38-8.42-6.23 0-10.33 3.38-10.33 8.42v99.17l-20.77.02V65.53c0-19.52 20.07-24.72 31.13-24.72 10.96 0 31.1 5.23 31.1 24.74v102.46H378.7"/></svg>