<svg width="489" height="418" xmlns="http://www.w3.org/2000/svg">
    <g fill="none">
        <path d="M217.413 66.298v.003h-.38c.125 0 .254 0 .38-.003z" opacity=".5" fill="#4D4D4D"/>
        <path fill="#CC9E71" d="M308 221h165l7.317 8.669L473 243.667V317l7.317 8.671L470 340.667V412H281z"/>
        <path fill="#E2B68D" d="M382 317h96v10h-96zm-50-96h146v10H332z"/>
        <path d="M345 221v28s-18-4-18 15.75V299h34l2.667 19H398v30l24 62h-18l-20.75-57.5-2.466-31.75L312 317.1V257l18-11.5V221h15z"
              fill="#AA7F59"/>
        <path d="M231 124v-15l-19.5-8.667-8.562-37.38L179 48.333 173 29H15.958s-10.854.917-10.73 12.417C5.354 52.917 16 50.5 16 50.5V125"
              fill="#FCE8D2"/>
        <path d="M16 125s-12.486-.695-10.41 12.819C7.666 151.333 16 146.5 16 146.5l.25 73.5S3 220.667 4 231s12 12.667 12 12.667L16.25 317s-11.332-2.372-10.624 8.481C6.334 336.334 16 338.5 16 338.5V413h389l-23-64v-32h-32v-18l-36.667-1.333L312 261.459S311.333 248 332 247v-26h-38l1-17h-50l-.5-34.333s-2.833-18.334 19.333-18.667l.167-26-33-1.333"
              fill="#F7DBB5"/>
        <path fill="#FFF5EB" d="M46 125H13V47.167L6.5 39 13 29h33z"/>
        <path fill="#FCE8D2"
              d="M46 221H13v-77.833L6.5 135l6.5-10h33zm0 96H13v-77.833L6.5 231l6.5-10h33zm0 96H13v-77.833L6.5 327l6.5-10h33z"/>
        <path fill="#E5BD8F" d="M16 397h385v16H16z"/>
        <path fill="#AA7F59" d="M400 397h70v16h-70zm-50-97h120v16H350z"/>
        <path fill="#E5BD8F" d="M16 300h334v16H16zm0-96h278v16H16z"/>
        <path fill="#FFF1E1" d="M8 317h374v10H8zm0-96h324v10H8zm0-96h257v10H8z"/>
        <path fill="#FFF5EB" d="M8 29h170v10H8z"/>
        <path d="M75.116 376.119c0-8.848-8.776-18.41-19.058-18.41S37 366.491 37 375.34V414h38.333l-.217-37.881z"
              fill="#A07858"/>
        <path d="M68.5 366.333s-17.5-7.316-17.5 10.5V413H38v-35s-1.469-13.002 8.849-17.668c10.318-4.666 19.31 2.03 19.31 2.03l2.341 3.971z"
              fill="#775843"/>
        <path d="M146.116 376.119c0-8.848-8.776-18.41-19.058-18.41S108 366.491 108 375.34V414h38.333l-.217-37.881z"
              fill="#A07858"/>
        <path d="M139.5 366.333s-17.5-7.316-17.5 10.5V413h-13v-35s-1.469-13.002 8.849-17.668c10.318-4.666 19.31 2.03 19.31 2.03l2.341 3.971z"
              fill="#775843"/>
        <path d="M217.116 376.119c0-8.848-8.776-18.41-19.058-18.41S179 366.491 179 375.34V414h38.333l-.217-37.881z"
              fill="#A07858"/>
        <path d="M210.5 366.333s-17.5-7.316-17.5 10.5V413h-13v-35s-1.469-13.002 8.849-17.668c10.318-4.666 19.31 2.03 19.31 2.03l2.341 3.971z"
              fill="#775843"/>
        <path d="M287.116 376.119c0-8.848-8.776-18.41-19.058-18.41S249 366.491 249 375.34V414h38.333l-.217-37.881z"
              fill="#A07858"/>
        <path d="M280.5 366.333s-17.5-7.316-17.5 10.5V413h-13v-35s-1.469-13.002 8.849-17.668c10.318-4.666 19.31 2.03 19.31 2.03l2.341 3.971z"
              fill="#775843"/>
        <path d="M75.116 279.119c0-8.848-8.776-18.41-19.058-18.41S37 269.491 37 278.34V317h38.333l-.217-37.881z"
              fill="#A07858"/>
        <path d="M68.5 269.333s-17.5-7.316-17.5 10.5V316H38v-35s-1.469-13.002 8.849-17.668c10.318-4.666 19.31 2.03 19.31 2.03l2.341 3.971z"
              fill="#775843"/>
        <path d="M146.116 279.119c0-8.848-8.776-18.41-19.058-18.41S108 269.491 108 278.34V317h38.333l-.217-37.881z"
              fill="#A07858"/>
        <path d="M139.5 269.333s-17.5-7.316-17.5 10.5V316h-13v-35s-1.469-13.002 8.849-17.668c10.318-4.666 19.31 2.03 19.31 2.03l2.341 3.971z"
              fill="#775843"/>
        <path d="M217.116 279.119c0-8.848-8.776-18.41-19.058-18.41S179 269.491 179 278.34V317h38.333l-.217-37.881z"
              fill="#A07858"/>
        <path d="M210.5 269.333s-17.5-7.316-17.5 10.5V316h-13v-35s-1.469-13.002 8.849-17.668c10.318-4.666 19.31 2.03 19.31 2.03l2.341 3.971z"
              fill="#775843"/>
        <path d="M75.116 183.119c0-8.848-8.776-18.41-19.058-18.41S37 173.491 37 182.34V221h38.333l-.217-37.881z"
              fill="#A07858"/>
        <path d="M68.5 173.333s-17.5-7.316-17.5 10.5V220H38v-35s-1.469-13.002 8.849-17.668c10.318-4.666 19.31 2.03 19.31 2.03l2.341 3.971z"
              fill="#775843"/>
        <path d="M146.116 183.119c0-8.848-8.776-18.41-19.058-18.41S108 173.491 108 182.34V221h38.333l-.217-37.881z"
              fill="#A07858"/>
        <path d="M139.5 173.333s-17.5-7.316-17.5 10.5V220h-13v-35s-1.469-13.002 8.849-17.668c10.318-4.666 19.31 2.03 19.31 2.03l2.341 3.971z"
              fill="#775843"/>
        <path d="M217.116 183.119c0-8.848-8.776-18.41-19.058-18.41S179 173.491 179 182.34V221h38.333l-.217-37.881z"
              fill="#A07858"/>
        <path d="M210.5 173.333s-17.5-7.316-17.5 10.5V220h-13v-35s-1.469-13.002 8.849-17.668c10.318-4.666 19.31 2.03 19.31 2.03l2.341 3.971z"
              fill="#775843"/>
        <path d="M287.116 279.119c0-8.848-8.776-18.41-19.058-18.41S249 269.491 249 278.34V317h38.333l-.217-37.881z"
              fill="#A07858"/>
        <path d="M280.5 269.333s-17.5-7.316-17.5 10.5V316h-13v-35s-1.469-13.002 8.849-17.668c10.318-4.666 19.31 2.03 19.31 2.03l2.341 3.971zm102.616 9.786c0-8.848-8.776-18.41-19.058-18.41S345 269.491 345 278.34V317h38.333l-.217-37.881z"
              fill="#775843"/>
        <path d="M376.5 269.333s-17.5-7.316-17.5 10.5V316h-13v-35s-1.469-13.002 8.849-17.668c10.318-4.666 19.31 2.03 19.31 2.03l2.341 3.971z"
              fill="#604431"/>
        <path d="M453.116 279.119c0-8.848-8.776-18.41-19.058-18.41S415 269.491 415 278.34V317h38.333l-.217-37.881z"
              fill="#775843"/>
        <path d="M446.5 269.333s-17.5-7.316-17.5 10.5V316h-13v-35s-1.469-13.002 8.849-17.668c10.318-4.666 19.31 2.03 19.31 2.03l2.341 3.971z"
              fill="#604431"/>
        <path d="M454.116 375.119c0-8.848-8.776-18.41-19.058-18.41S416 365.491 416 374.34V413h38.333l-.217-37.881z"
              fill="#775843"/>
        <path d="M447.5 365.333s-17.5-7.316-17.5 10.5V412h-13v-35s-1.469-13.002 8.849-17.668c10.318-4.666 19.31 2.03 19.31 2.03l2.341 3.971z"
              fill="#604431"/>
        <path d="M358.116 376.119c0-8.848-8.776-18.41-19.058-18.41S320 366.491 320 375.34V414h38.333l-.217-37.881z"
              fill="#A07858"/>
        <path d="M351.5 366.333s-17.5-7.316-17.5 10.5V413h-13v-35s-1.469-13.002 8.849-17.668c10.318-4.666 19.31 2.03 19.31 2.03l2.341 3.971z"
              fill="#775843"/>
        <path d="M161.756 30l7.497 28.625 21.999 10.688 9.375 43.469L202.938 125H251v16s-19 3.5-19 28.75V222h85v13s-18 4.359-18 26.68V317h69v37l18.25 51 13.625-4.25L383 350v-35h-21l-.75-16-50.25-3.25V263s0-15.97 20-15.97V219h-36v-15h-50v-32s-1-21 20-21v-28h-34v-15l-19.5-6.33-9.031-40.836L181 49.286 175.335 30h-13.579z"
              fill="#E5BD8F"/>
        <path fill="#F7DBB5" d="M16 109h215v16H16z"/>
        <path fill="#A07858" d="M44 69h24v25H44zm71 0h24v25h-24z"/>
        <path d="M470 159v62H310.5l11.5-62h148zm-24 43v-25h-24v25h24zm-73 0v-25h-24v25h24z" fill="#A55337"/>
        <path fill="#775843" d="M210 94h-24V69h19.667z"/>
        <path fill="#FCE8D2" d="M160.199 29H14.251L8.25 5H165z"/>
        <path fill="#F7DBB5" d="M11 18h149v11H11z"/>
        <path fill="#AA7F59" d="M453 221v192h17v-73l10.317-10.25L471 316v-71l9.492-14-11.992-11.5z"/>
        <path fill="#823926" d="M312 204h158v16H312z"/>
        <path fill="#BA715D" d="M311.244 218.852l10.147-61.036 12.927 2.15L324.171 221z"/>
        <path fill="#BA715D" d="M321 159h146v10H321z"/>
        <path fill="#823926" d="M455 159h15v61h-15z"/>
        <g fill="#3F456B">
            <path d="M484 418H5a5 5 0 010-10h479a5 5 0 010 10z"/>
            <path d="M405.084 418.001a5.003 5.003 0 01-4.704-3.305l-23.083-64A5 5 0 01377 349v-27H16a5 5 0 010-10h366a5 5 0 015 5v31.126l22.787 63.178a5 5 0 01-4.703 6.697z"/>
            <path d="M361 322a5 5 0 01-5-5v-13h-44a5 5 0 01-5-5v-39c0-4.369 1.597-8.249 4.619-11.221 4.378-4.306 10.863-5.886 15.381-6.459V226H16a5 5 0 010-10h316a5 5 0 015 5v26a5 5 0 01-1.494 3.565c-.956.94-2.235 1.432-3.589 1.435-2.345-.048-9.969.632-13.298 3.921-1.104 1.092-1.619 2.388-1.619 4.08v34h44a5 5 0 015 5v18a5 5 0 01-5 4.999z"/>
            <path d="M295 226a5 5 0 01-5-5v-12h-45a5 5 0 01-5-5v-37c0-12.708 10.614-18.394 18.861-20.281l.107-16.719H18a5 5 0 010-10h246a4.999 4.999 0 015 5.033l-.167 26a5 5 0 01-4.647 4.955C263.624 156.031 250 157.206 250 167v32h45a5 5 0 015 5v17a5 5 0 01-5 5zM173 34H17a5 5 0 010-10h156a5 5 0 010 10z"/>
            <path d="M231 130a5 5 0 01-5-5v-13.885l-15.846-4.52a4.997 4.997 0 01-3.51-3.729l-8.565-38.729-19.03-10.352a5.005 5.005 0 01-2.371-2.86l-6.562-20.394a5.002 5.002 0 019.52-3.064l5.95 18.489 19.273 10.484a4.997 4.997 0 012.493 3.312l8.414 38.042 16.607 4.737a5 5 0 013.628 4.808V125a5.002 5.002 0 01-5.001 5zm-215 0a5 5 0 01-5-5V54.603C4.679 52.268.375 45.769.375 39.833c0-8.639 7.122-15.667 15.875-15.667a5 5 0 010 10c-3.239 0-5.875 2.542-5.875 5.667 0 3.128 3.404 5.667 5.625 5.667a5 5 0 015 5V125a5 5 0 01-5 5z"/>
            <path d="M16 226a5 5 0 01-5-5v-70.397C4.679 148.268.375 141.769.375 135.833c0-8.639 7.122-15.667 15.875-15.667a5 5 0 010 10c-3.239 0-5.875 2.542-5.875 5.667 0 3.128 3.404 5.667 5.625 5.667a5 5 0 015 5V221a5 5 0 01-5 5z"/>
            <path d="M16 322a5 5 0 01-5-5v-70.398C4.679 244.263.375 237.756.375 231.813c0-8.65 7.122-15.688 15.875-15.688a5 5 0 010 10c-3.239 0-5.875 2.551-5.875 5.688 0 3.14 3.404 5.688 5.625 5.688a5 5 0 015 5V317a5 5 0 01-5 5z"/>
            <path d="M16 418a5 5 0 01-5-5v-70.469C5.334 340.359.375 334.739.375 327.75c0-8.685 7.122-15.75 15.875-15.75a5 5 0 010 10c-3.185 0-5.875 2.633-5.875 5.75 0 3.174 3.404 5.75 5.625 5.75a5 5 0 015 5V413a5 5 0 01-5 5zm454-96a5 5 0 01-5-5v-74.5a5 5 0 015-5c2.184 0 5.531-2.576 5.531-5.75 0-3.117-2.733-5.75-5.969-5.75H322a5 5 0 010-10h147.562c8.805 0 15.969 7.065 15.969 15.75 0 5.957-4.264 12.479-10.531 14.836V317a5 5 0 01-5 5z"/>
            <path d="M470 418a5 5 0 01-5-5v-74.5a5 5 0 015-5c2.184 0 5.531-2.576 5.531-5.75 0-3.117-2.733-5.75-5.969-5.75a5 5 0 010-10c8.805 0 15.969 7.065 15.969 15.75 0 5.957-4.264 12.479-10.531 14.836V413a5 5 0 01-5 5z"/>
            <path d="M178.5 333.5a2.5 2.5 0 01-2.5-2.5v-14a2.5 2.5 0 115 0v14a2.5 2.5 0 01-2.5 2.5zm-49 0a2.5 2.5 0 01-2.5-2.5v-14a2.5 2.5 0 115 0v14a2.5 2.5 0 01-2.5 2.5zm16 0a2.5 2.5 0 01-2.5-2.5v-14a2.5 2.5 0 115 0v14a2.5 2.5 0 01-2.5 2.5zm-49 0A2.5 2.5 0 0194 331v-14a2.5 2.5 0 115 0v14a2.5 2.5 0 01-2.5 2.5zm16 0a2.5 2.5 0 01-2.5-2.5v-14a2.5 2.5 0 115 0v14a2.5 2.5 0 01-2.5 2.5zm132 0a2.5 2.5 0 01-2.5-2.5v-14a2.5 2.5 0 115 0v14a2.5 2.5 0 01-2.5 2.5zm17 0a2.5 2.5 0 01-2.5-2.5v-14a2.5 2.5 0 115 0v14a2.5 2.5 0 01-2.5 2.5zm-99 0a2.5 2.5 0 01-2.5-2.5v-14a2.5 2.5 0 115 0v14a2.5 2.5 0 01-2.5 2.5zm-99 0A2.5 2.5 0 0161 331v-14a2.5 2.5 0 115 0v14a2.5 2.5 0 01-2.5 2.5zm16 0A2.5 2.5 0 0177 331v-14a2.5 2.5 0 115 0v14a2.5 2.5 0 01-2.5 2.5zm-49 0A2.5 2.5 0 0128 331v-14a2.5 2.5 0 115 0v14a2.5 2.5 0 01-2.5 2.5zm16 0A2.5 2.5 0 0144 331v-14a2.5 2.5 0 115 0v14a2.5 2.5 0 01-2.5 2.5zm149 0a2.5 2.5 0 01-2.5-2.5v-14a2.5 2.5 0 115 0v14a2.5 2.5 0 01-2.5 2.5zm16 0a2.5 2.5 0 01-2.5-2.5v-14a2.5 2.5 0 115 0v14a2.5 2.5 0 01-2.5 2.5zm17 0a2.5 2.5 0 01-2.5-2.5v-14a2.5 2.5 0 115 0v14a2.5 2.5 0 01-2.5 2.5zm82 0a2.5 2.5 0 01-2.5-2.5v-14a2.5 2.5 0 115 0v14a2.5 2.5 0 01-2.5 2.5zm17 0a2.5 2.5 0 01-2.5-2.5v-14a2.5 2.5 0 115 0v14a2.5 2.5 0 01-2.5 2.5zm-50 0a2.5 2.5 0 01-2.5-2.5v-14a2.5 2.5 0 115 0v14a2.5 2.5 0 01-2.5 2.5zm17 0a2.5 2.5 0 01-2.5-2.5v-14a2.5 2.5 0 115 0v14a2.5 2.5 0 01-2.5 2.5zm66 0a2.5 2.5 0 01-2.5-2.5v-14a2.5 2.5 0 115 0v14a2.5 2.5 0 01-2.5 2.5zm-16 0a2.5 2.5 0 01-2.5-2.5v-14a2.5 2.5 0 115 0v14a2.5 2.5 0 01-2.5 2.5zm-166-96a2.5 2.5 0 01-2.5-2.5v-14a2.5 2.5 0 115 0v14a2.5 2.5 0 01-2.5 2.5zm-49 0a2.5 2.5 0 01-2.5-2.5v-14a2.5 2.5 0 115 0v14a2.5 2.5 0 01-2.5 2.5zm16 0a2.5 2.5 0 01-2.5-2.5v-14a2.5 2.5 0 115 0v14a2.5 2.5 0 01-2.5 2.5zm-49 0A2.5 2.5 0 0194 235v-14a2.5 2.5 0 115 0v14a2.5 2.5 0 01-2.5 2.5zm16 0a2.5 2.5 0 01-2.5-2.5v-14a2.5 2.5 0 115 0v14a2.5 2.5 0 01-2.5 2.5zm132 0a2.5 2.5 0 01-2.5-2.5v-14a2.5 2.5 0 115 0v14a2.5 2.5 0 01-2.5 2.5zm17 0a2.5 2.5 0 01-2.5-2.5v-14a2.5 2.5 0 115 0v14a2.5 2.5 0 01-2.5 2.5zm-99 0a2.5 2.5 0 01-2.5-2.5v-14a2.5 2.5 0 115 0v14a2.5 2.5 0 01-2.5 2.5zm-99 0A2.5 2.5 0 0161 235v-14a2.5 2.5 0 115 0v14a2.5 2.5 0 01-2.5 2.5zm16 0A2.5 2.5 0 0177 235v-14a2.5 2.5 0 115 0v14a2.5 2.5 0 01-2.5 2.5zm-49 0A2.5 2.5 0 0128 235v-14a2.5 2.5 0 115 0v14a2.5 2.5 0 01-2.5 2.5zm16 0A2.5 2.5 0 0144 235v-14a2.5 2.5 0 115 0v14a2.5 2.5 0 01-2.5 2.5zm149 0a2.5 2.5 0 01-2.5-2.5v-14a2.5 2.5 0 115 0v14a2.5 2.5 0 01-2.5 2.5zm16 0a2.5 2.5 0 01-2.5-2.5v-14a2.5 2.5 0 115 0v14a2.5 2.5 0 01-2.5 2.5zm17 0a2.5 2.5 0 01-2.5-2.5v-14a2.5 2.5 0 115 0v14a2.5 2.5 0 01-2.5 2.5zm82 0a2.5 2.5 0 01-2.5-2.5v-14a2.5 2.5 0 115 0v14a2.5 2.5 0 01-2.5 2.5zm-33 0a2.5 2.5 0 01-2.5-2.5v-14a2.5 2.5 0 115 0v14a2.5 2.5 0 01-2.5 2.5zm17 0a2.5 2.5 0 01-2.5-2.5v-14a2.5 2.5 0 115 0v14a2.5 2.5 0 01-2.5 2.5zm150 0a2.5 2.5 0 01-2.5-2.5v-14a2.5 2.5 0 115 0v14a2.5 2.5 0 01-2.5 2.5zm16 0a2.5 2.5 0 01-2.5-2.5v-14a2.5 2.5 0 115 0v14a2.5 2.5 0 01-2.5 2.5zm-49 0a2.5 2.5 0 01-2.5-2.5v-14a2.5 2.5 0 115 0v14a2.5 2.5 0 01-2.5 2.5zm16 0a2.5 2.5 0 01-2.5-2.5v-14a2.5 2.5 0 115 0v14a2.5 2.5 0 01-2.5 2.5zm-49 0a2.5 2.5 0 01-2.5-2.5v-14a2.5 2.5 0 115 0v14a2.5 2.5 0 01-2.5 2.5zm16 0a2.5 2.5 0 01-2.5-2.5v-14a2.5 2.5 0 115 0v14a2.5 2.5 0 01-2.5 2.5zm-49 0a2.5 2.5 0 01-2.5-2.5v-14a2.5 2.5 0 115 0v14a2.5 2.5 0 01-2.5 2.5zm16 0a2.5 2.5 0 01-2.5-2.5v-14a2.5 2.5 0 115 0v14a2.5 2.5 0 01-2.5 2.5zm83 96a2.5 2.5 0 01-2.5-2.5v-14a2.5 2.5 0 115 0v14a2.5 2.5 0 01-2.5 2.5zm16 0a2.5 2.5 0 01-2.5-2.5v-14a2.5 2.5 0 115 0v14a2.5 2.5 0 01-2.5 2.5zm-49 0a2.5 2.5 0 01-2.5-2.5v-14a2.5 2.5 0 115 0v14a2.5 2.5 0 01-2.5 2.5zm16 0a2.5 2.5 0 01-2.5-2.5v-14a2.5 2.5 0 115 0v14a2.5 2.5 0 01-2.5 2.5zm-33 0a2.5 2.5 0 01-2.5-2.5v-14a2.5 2.5 0 115 0v14a2.5 2.5 0 01-2.5 2.5zm-216-192a2.5 2.5 0 01-2.5-2.5v-14a2.5 2.5 0 115 0v14a2.5 2.5 0 01-2.5 2.5zm-49 0a2.5 2.5 0 01-2.5-2.5v-14a2.5 2.5 0 115 0v14a2.5 2.5 0 01-2.5 2.5zm16 0a2.5 2.5 0 01-2.5-2.5v-14a2.5 2.5 0 115 0v14a2.5 2.5 0 01-2.5 2.5zm-49 0A2.5 2.5 0 0194 139v-14a2.5 2.5 0 115 0v14a2.5 2.5 0 01-2.5 2.5zm16 0a2.5 2.5 0 01-2.5-2.5v-14a2.5 2.5 0 115 0v14a2.5 2.5 0 01-2.5 2.5zm132 0a2.5 2.5 0 01-2.5-2.5v-14a2.5 2.5 0 115 0v14a2.5 2.5 0 01-2.5 2.5zm-82 0a2.5 2.5 0 01-2.5-2.5v-14a2.5 2.5 0 115 0v14a2.5 2.5 0 01-2.5 2.5zm-99 0A2.5 2.5 0 0161 139v-14a2.5 2.5 0 115 0v14a2.5 2.5 0 01-2.5 2.5zm16 0A2.5 2.5 0 0177 139v-14a2.5 2.5 0 115 0v14a2.5 2.5 0 01-2.5 2.5zm-49 0A2.5 2.5 0 0128 139v-14a2.5 2.5 0 115 0v14a2.5 2.5 0 01-2.5 2.5zm16 0A2.5 2.5 0 0144 139v-14a2.5 2.5 0 115 0v14a2.5 2.5 0 01-2.5 2.5zm149 0a2.5 2.5 0 01-2.5-2.5v-14a2.5 2.5 0 115 0v14a2.5 2.5 0 01-2.5 2.5zm16 0a2.5 2.5 0 01-2.5-2.5v-14a2.5 2.5 0 115 0v14a2.5 2.5 0 01-2.5 2.5zm17 0a2.5 2.5 0 01-2.5-2.5v-14a2.5 2.5 0 115 0v14a2.5 2.5 0 01-2.5 2.5zm-99-96A2.5 2.5 0 01127 43V29a2.5 2.5 0 115 0v14a2.5 2.5 0 01-2.5 2.5zm16 0A2.5 2.5 0 01143 43V29a2.5 2.5 0 115 0v14a2.5 2.5 0 01-2.5 2.5zm-49 0A2.5 2.5 0 0194 43V29a2.5 2.5 0 115 0v14a2.5 2.5 0 01-2.5 2.5zm16 0A2.5 2.5 0 01110 43V29a2.5 2.5 0 115 0v14a2.5 2.5 0 01-2.5 2.5zm50 0A2.5 2.5 0 01160 43V29a2.5 2.5 0 115 0v14a2.5 2.5 0 01-2.5 2.5zm-99 0A2.5 2.5 0 0161 43V29a2.5 2.5 0 115 0v14a2.5 2.5 0 01-2.5 2.5zm16 0A2.5 2.5 0 0177 43V29a2.5 2.5 0 115 0v14a2.5 2.5 0 01-2.5 2.5zm-49 0A2.5 2.5 0 0128 43V29a2.5 2.5 0 115 0v14a2.5 2.5 0 01-2.5 2.5zm16 0A2.5 2.5 0 0144 43V29a2.5 2.5 0 115 0v14a2.5 2.5 0 01-2.5 2.5z"
                  opacity=".5"/>
            <path d="M75.333 418H38a5 5 0 01-5-5v-37.66c0-12.189 11.008-22.881 23.558-22.881 6.198 0 12.133 2.581 16.711 7.268 4.351 4.455 6.847 10.247 6.847 15.892l.217 37.353a5 5 0 01-5 5.028zM43 408h27.304l-.188-32.353c0-6.114-5.922-13.188-13.558-13.188S43 369.383 43 375.34V408zm102.833 10H108a5 5 0 01-5-5v-37.66c0-11.975 11.348-22.881 23.808-22.881 12.46 0 23.808 11.039 23.808 23.16l.217 37.353a5 5 0 01-5 5.028zM113 408h27.804l-.188-32.353c0-5.989-6.159-13.188-13.808-13.188-6.254 0-13.808 5.746-13.808 12.881V408zm103.333 10H179a5 5 0 01-5-5v-37.66c0-12.189 11.008-22.881 23.558-22.881 6.198 0 12.133 2.581 16.711 7.268 4.351 4.455 6.847 10.247 6.847 15.892l.217 37.353a5 5 0 01-5 5.028zM184 408h27.304l-.188-32.353c0-6.114-5.922-13.188-13.558-13.188S184 369.383 184 375.34V408zm102.833 10H249a5 5 0 01-5-5v-37.66c0-11.975 11.348-22.881 23.808-22.881 12.46 0 23.808 11.039 23.808 23.16l.217 37.353a5 5 0 01-5 5.028zM254 408h27.804l-.188-32.353c0-5.989-6.159-13.188-13.808-13.188-6.254 0-13.808 5.746-13.808 12.881V408zM75.333 322H38a5 5 0 01-5-5v-37.66c0-12.189 11.008-22.881 23.558-22.881 6.198 0 12.133 2.581 16.711 7.268 4.351 4.455 6.847 10.247 6.847 15.892l.217 37.353a5 5 0 01-5 5.028zM43 312h27.304l-.188-32.353c0-6.114-5.922-13.188-13.558-13.188S43 273.383 43 279.34V312zm32.333-86H38a5 5 0 01-5-5v-37.66c0-12.189 11.008-22.881 23.558-22.881 6.198 0 12.133 2.581 16.711 7.268 4.351 4.455 6.847 10.247 6.847 15.892l.217 37.353a5 5 0 01-5 5.028zM43 216h27.304l-.188-32.353c0-6.114-5.922-13.188-13.558-13.188S43 177.383 43 183.34V216zm102.833 106H108a5 5 0 01-5-5v-37.66c0-11.975 11.348-22.881 23.808-22.881 12.46 0 23.808 11.039 23.808 23.16l.217 37.353a5 5 0 01-5 5.028zM113 312h27.804l-.188-32.353c0-5.989-6.159-13.188-13.808-13.188-6.254 0-13.808 5.746-13.808 12.881V312zm103.333 10H179a5 5 0 01-5-5v-37.66c0-12.189 11.008-22.881 23.558-22.881 6.198 0 12.133 2.581 16.711 7.268 4.351 4.455 6.847 10.247 6.847 15.892l.217 37.353a5 5 0 01-5 5.028zM184 312h27.304l-.188-32.353c0-6.114-5.922-13.188-13.558-13.188S184 273.383 184 279.34V312zm-38.167-87H108a5 5 0 01-5-5v-37.66c0-11.975 11.348-22.881 23.808-22.881 12.46 0 23.808 11.039 23.808 23.16l.217 37.353a5 5 0 01-5 5.028zM113 215h27.804l-.188-32.353c0-5.989-6.159-13.188-13.808-13.188-6.254 0-13.808 5.746-13.808 12.881V215zm103.333 10H179a5 5 0 01-5-5v-37.66c0-12.189 11.008-22.881 23.558-22.881 6.198 0 12.133 2.581 16.711 7.268 4.351 4.455 6.847 10.247 6.847 15.892l.217 37.353a5 5 0 01-5 5.028zM184 215h27.304l-.188-32.353c0-6.114-5.922-13.188-13.558-13.188S184 176.383 184 182.34V215zm102.833 107H249a5 5 0 01-5-5v-37.66c0-11.975 11.348-22.881 23.808-22.881 12.46 0 23.808 11.039 23.808 23.16l.217 37.353a5 5 0 01-5 5.028zM254 312h27.804l-.188-32.353c0-5.989-6.159-13.188-13.808-13.188-6.254 0-13.808 5.746-13.808 12.881V312zm128.333 10c-2.748 0-4.983-2.169-5-4.921l-.217-37.406c0-7.333-7.417-13.201-13.558-13.201-7.636 0-13.558 6.923-13.558 12.868V299a5 5 0 01-10 0v-19.66c0-12.176 11.008-22.856 23.558-22.856 6.199 0 12.135 2.587 16.715 7.284 4.349 4.46 6.843 10.256 6.843 15.901l.217 37.353a4.947 4.947 0 01-4.971 4.979l-.029-.001zm70.5 0H415a5 5 0 01-5-5v-37.66c0-11.975 11.348-22.881 23.808-22.881 12.46 0 23.808 11.039 23.808 23.16l.217 37.353a5 5 0 01-5 5.028zM420 312h27.804l-.188-32.353c0-5.989-6.159-13.188-13.808-13.188-6.254 0-13.808 5.746-13.808 12.881V312zm-62.667 106H320a5 5 0 01-5-5v-37.66c0-12.189 11.008-22.881 23.558-22.881 6.198 0 12.133 2.581 16.711 7.268 4.351 4.455 6.847 10.247 6.847 15.892l.217 37.353a5 5 0 01-5 5.028zM325 408h27.304l-.188-32.353c0-6.114-5.922-13.188-13.558-13.188S325 369.383 325 375.34V408zm130.333 10H418a5 5 0 01-5-5v-37.66c0-12.189 11.008-22.881 23.558-22.881 6.198 0 12.133 2.581 16.711 7.268 4.351 4.455 6.847 10.247 6.847 15.892l.217 37.353a5 5 0 01-5 5.028zM423 408h27.304l-.188-32.353c0-6.114-5.922-13.188-13.558-13.188S423 369.383 423 375.34V408z"/>
            <circle cx="91.891" cy="350.75" r="6.473"/>
            <circle cx="161.891" cy="350.75" r="6.473"/>
            <circle cx="231.891" cy="350.75" r="6.473"/>
            <circle cx="91.891" cy="253.75" r="6.473"/>
            <circle cx="161.891" cy="253.75" r="6.473"/>
            <circle cx="91.891" cy="158.75" r="6.473"/>
            <circle cx="30.891" cy="23.75" r="6.473"/>
            <circle cx="63.891" cy="23.75" r="6.473"/>
            <circle cx="96.891" cy="23.75" r="6.473"/>
            <circle cx="129.891" cy="23.75" r="6.473"/>
            <circle cx="161.891" cy="158.75" r="6.473"/>
            <circle cx="231.891" cy="253.75" r="6.473"/>
            <circle cx="399.891" cy="253.75" r="6.473"/>
            <circle cx="399.891" cy="350.75" r="6.473"/>
            <circle cx="301.891" cy="350.75" r="6.473"/>
            <path d="M68 99H44a5 5 0 01-5-5V69a5 5 0 015-5h24a5 5 0 015 5v25a5 5 0 01-5 5zM49 89h14V74H49v15zm90 10h-24a5 5 0 01-5-5V69a5 5 0 015-5h24a5 5 0 015 5v25a5 5 0 01-5 5zm-19-10h14V74h-14v15zm326 118h-24a5 5 0 01-5-5v-25a5 5 0 015-5h24a5 5 0 015 5v25a5 5 0 01-5 5zm-19-10h14v-15h-14v15zm-54 10h-24a5 5 0 01-5-5v-25a5 5 0 015-5h24a5 5 0 015 5v25a5 5 0 01-5 5zm-19-10h14v-15h-14v15zM209 99h-23a5 5 0 01-5-5V69a5 5 0 015-5h18a5 5 0 010 10h-13v15h18a5 5 0 010 10zm-48.801-65H14.251A5.002 5.002 0 019.4 30.213l-6.001-24A4.997 4.997 0 018.25 0H165a5 5 0 014.903 5.981l-4.801 24A4.999 4.999 0 01160.199 34zM18.155 24H156.1l2.801-14H14.654l3.501 14z"/>
            <path d="M470 226H310.5a4.998 4.998 0 01-4.916-5.912l11.5-62A5 5 0 01322 154h148a5 5 0 015 5v62a5 5 0 01-5 5zm-153.487-10H465v-52H326.158l-9.645 52zM470 322h-91a5 5 0 010-10h91a5 5 0 010 10z"/>
        </g>
    </g>
</svg>