<svg xmlns="http://www.w3.org/2000/svg" width="300" height="130" version="1">
    <defs>
        <clipPath id="b">
            <path d="M6.97 52.63H119.2V7.52H6.97v45.1z"/>
        </clipPath>
        <clipPath id="a">
            <path d="M-42.1 721.18h612v-792h-612v792z"/>
        </clipPath>
    </defs>
    <g transform="translate(-8.4 -9.73) scale(2.51207)" clip-path="url(#a)">
        <g fill="#211e1e" clip-path="url(#b)">
            <path d="M101.37 34.72c-.03-.21-.03-.4 1.02-.72a32.8 32.8 0 0 0 5.14-2.05c1.54-.86 1.8-.98 2.17-.74.36.24.25.83.25 1.24v4.2c.57-.94 2.43-4.03 3.9-4.94 1.17-.72 1.58-.78 2.3-.8.86 0 2.9.52 2.99 2.68.07 1.68-1.18 2.36-1.96 2.25-.64-.09-1.09-.67-1.47-1.26-.37-.6-.98-.94-1.58-.74-.6.2-3.97 2.4-4.16 5.5-.14 2.3 0 9.43 0 9.43 0 1.08.41 1.5.9 1.79.48.3 2.25.3 2.74.38.5.07.49.19.49.34 0 .15 0 .23-.45.23H101.8c-.38 0-.53-.08-.53-.3 0-.3.5-.25.87-.3.38-.06 2.39.1 2.96-.9.42-.66.37-1.72.37-1.72l-.06-12.54c0-1.01-.3-1.16-.57-1.32-.29-.16-.75-.25-1.73.09-.93.3-1.56.59-1.74.2m-41.45 0c-.16-.3.14-.5 1.02-.74.98-.26 3.13-.91 4.83-1.87 1.7-.97 2-1.07 2.36-.95.36.12.32.76.32 1.27v16.22c0 .91.12 1.3.53 1.67.42.38 1.45.6 2.79.6.6 0 .8.07.8.33s-.2.26-.44.26H60.37c-.36 0-.45-.16-.45-.31 0-.2.16-.31.7-.31.47 0 2.6.16 3.08-.95.2-.42.28-1.01.28-1.56V35.5c0-.97-.76-1.4-1.63-1.2-1.03.24-2.22.81-2.43.41m6-11.22a2.9 2.9 0 1 0 0-5.79 2.9 2.9 0 0 0 0 5.8m14.13 18.4c.59 5.26 3.72 9.35 7.6 8.67 3.9-.7 5.84-4.4 5.37-10.36-.48-6.05-3.47-9.07-7.5-8.7-4.16.38-6.05 5.12-5.47 10.39m3.86-11.32c5-.94 12.14.17 13.76 8.01 1.62 7.85-3.78 12.02-8.47 13.04-4.58 1-12.35.29-13.75-8.15a10.98 10.98 0 0 1 8.46-12.9M24.57 50.24h2.9c10.82 0 13.72-1 17.53-6.06 3.8-5.06 4.25-12.31 4.25-14.77 0-2.45-.65-8.6-4.45-13.81-3.81-5.2-10.17-6.56-15.73-6.56h-4.52c-1.08 0-1.13.48-1.13 1.23v39.02c0 .85.3.95 1.15.95m-17.6.91c0-.4.5-.46.98-.47 5.5-.16 6.53-.35 7.16-1 .35-.36.85-.66.85-3.2v-35.1c0-3.15-3.83-2.65-6.53-2.93-.95-.1-1.03-.22-1.03-.5 0-.27.18-.4.68-.43h22.17c24.39 0 25.63 17.83 25.63 22.58 0 10.22-6.75 21.45-20.87 21.45H7.68c-.35 0-.72-.05-.72-.4"/>
        </g>
    </g>
</svg>