<svg xmlns="http://www.w3.org/2000/svg" viewBox="0 0 480 178.9">
    <path fill="#FFF" fill-rule="evenodd"
          d="M280.3 45.7l.1-.2-.1.2M133.2 174.8l-.1-.1-.1-.1.2.2zM334.1 43.9l.1.1.1.1-.2-.2zM452.9 105c2.9-3.8 3.4-7.4 3.4-12.7V75.4c2 1.6 4.1 2.2 5.7 2.6 2.5.5 11 1.1 15.8-11.3 1.4-3.6 2.2-7.9 2.2-11.2 0-8.1-5.7-16.8-15-16.8-5 0-9.1 2.9-11.7 6.9l-.7-.9-.1-.1c-3.1-3.7-7.6-5.8-12.3-5.8-5.3 0-10.4 2.7-13.2 7.1-1.1 1.7-1.8 3.3-2.3 5-2.5-3.1-4.7-5.8-4.7-5.8-3.4-4.2-7.4-6.2-12.2-6.2-6.6 0-12 3.4-14.7 8.7-.6-1.2-1.3-2.3-2.4-3.5-3-3.4-7.4-5.3-12-5.3s-9 1.9-11.9 5.3c-.9.9-1.5 1.9-2.1 2.8-2.8-4.8-8.1-8.1-14-8.1-5.4 0-10.2 2.7-13.3 7.3 0 0-.4.5-.9 1.4-.6-1.1-1.3-2.2-2.3-3.3-3-3.4-7.5-5.4-12.1-5.4-6.4 0-11.7 3.5-14.3 8.9-.5-1-1.1-2-1.9-3l-.1-.1c-3.1-3.7-7.6-5.8-12.3-5.8-5.3 0-10.3 2.7-13.2 7.1-1.1 1.7-1.8 3.3-2.3 5-2.5-3.1-4.7-5.8-4.7-5.8-3.4-4.2-7.4-6.2-12.2-6.2-6.4 0-11.7 3.2-14.4 8.2-.5-.8-1-1.6-1.7-2.4-3-3.6-7.8-5.8-12.5-5.8-4.8 0-9.4 2.2-12.5 6.1-1.2 1.5-1.9 2.8-2.5 4.3-.7-1.8-1.7-3.6-3.3-5.3-3-3.2-7.4-5.1-11.8-5.1-4.7 0-9.6 2.4-12.6 6.2l-.1.1c-2.5 3.3-3.1 6.1-3.3 10.4-1.7-2.6-3.8-5-6.1-7.1-6.9-6.1-15.2-9.1-25.6-9.1h-11.9c-8.3 0-14.4 3.9-16.7 10.8-.6 1.7-.7 2.8-.8 5.3h-.3c-1.7-9.5-10-16.7-19.9-16.7H50.4c-.4-2.1-1.2-3.9-2.1-5.6 3 .6 6.4.1 9.6-1.7l-2 .5 2.6-.9h.1l.1-.1c4.4-3.3 6.9-8.4 6.9-13.8 0-1.4-.2-2.8-.5-4.2C63.4 6.1 58 1.3 51.1.1c-3.3-.5-10.3.2-15.9 4.3-4.3 3.2-7.1 7.8-7.8 13.4-.1.9-.2 1.7-.2 2.5 0 2 .4 3.8.9 5.5-5.6-2.7-12.2-2.1-18.1 2h-.1c-6.3 4.5-8.1 9.7-8.6 13.3-.3 2.7 0 5.5 1.1 8-1.5 3-2.4 6.3-2.4 9.8v98.5c0 11.2 9.1 20.4 20.3 20.4h84.9c9.8 0 18.1-7.1 19.9-16.4h.9v1.2c.1 1.3.2 2.3.5 3.4 1 3.7 3.2 6.6 6.6 8.8 3.3 2.2 6.5 2.7 11.7 2.7h8.2c4.3 0 8.3-.3 11.1-.8h.1c6.2-1.3 12.2-4.4 16.9-8.7l1.2-1.2.1-.1c1.8-1.8 3.3-3.8 4.6-5.9 1.2 2 2.6 3.9 4.1 5.7 7 7.9 17.2 12.5 27.9 12.5 10.6 0 20.7-4.5 27.8-12.5l.8-1c.5 2.2 1.3 4.1 2.7 6l.1.2c3 3.9 7.8 6.2 12.7 6.2 4.7 0 9.2-2.1 12.3-5.8l.1-.1c1.6-2.1 2.6-4.1 3.1-6.5l4.8 6.1c3.2 4.1 7.5 6.4 12.6 6.4 4.9 0 9.6-2.3 12.5-6 1.4-1.9 2.3-3.7 2.8-5.9l.2.2c5.9 8 15.3 12.8 25.1 12.8 8.9 0 17.4-3.9 23.3-10.8l1.7-2.2c4.1-5.5 6-12 6-20.4v-9.9c1.5.5 3.2.8 5 .8V160l.1 2.7c.2 3.4 1 5.8 2.6 8.4l.2.3c3.1 4.2 7.8 6.6 13.1 6.6 5.6 0 10.4-2.7 13.3-7.3 1.5-2.4 2.2-4.8 2.5-7.8 0 0 0-1 .1-1.8h1.7c.2 1.3.6 2.6 1.2 3.8 3.8 8.6 14.4 14.1 26.9 14.1 8.9 0 15.7-2.5 20.9-7.7 1.8-1.8 3.2-3.8 4.4-6 2-3.8 3-8.1 3-12.4 0-7-2.7-13.6-7.3-17.9 2.3-2 4-4.7 4.7-7.8 1.7 1.3 3.8 2.1 6.1 2.1 4.7 0 8.7-3.4 9.5-8v-.4l.1-1.3c0-5.4-4.3-9.7-9.7-9.7-3.7 0-6.9 2.1-8.6 5-1.8-2.7-4.5-5-7.7-6.7 1.3-1 2.3-2 3.2-3.2zm13.4 18.9zM427 45.7l.1-.1-.1.1zM366.8 44l.1-.1-.1.1z"
          clip-rule="evenodd"/>
    <path fill="#F5821F" fill-rule="evenodd"
          d="M232.6 45c-2.9 0-5.7 1.4-7.5 3.7-1.8 2.1-2.1 3.4-2.1 7.8V80c0 4.1-1.9 6.5-5.3 6.5-3.3 0-5.3-2.6-5.3-6.8V56.5c0-4.2-.7-6.4-2.6-8.4-1.8-1.8-4.5-3.1-7.2-3.1-2.8 0-5.8 1.5-7.7 3.8-1.7 2.2-2 3.6-2 9.2v20.7c0 7.8 1.1 11.9 4.8 16.9 4.7 6.4 12.2 10.2 20 10.2 7 0 13.9-3.2 18.6-8.6 4.2-4.8 6.2-10.5 6.2-18.5V57.8c0-5.3-.4-7.1-2.3-9.3-1.8-2.1-4.8-3.5-7.6-3.5M184 64.4c-1.6-4.4-4.3-8.3-7.8-11.5-5.7-5.1-12.5-7.5-21.4-7.5h-11.9c-5.6 0-9.3 2.2-10.7 6.4-.4 1.3-.4 1.9-.4 6.8V91c0 4.1 0 5 .3 6.4.6 2.3 1.9 3.9 4.1 5.3 1.8 1.2 3.6 1.6 8.2 1.6h8.2c4.1 0 7.6-.3 10-.7 5.1-1.1 10.1-3.6 13.9-7.1 6-5.6 9.5-13.5 9.5-21.6-.1-3.7-.8-7.2-2-10.5zm-24.7 0l.9.4c3.8 1.9 6.3 5.8 6.3 10.2 0 3.6-1.9 7.2-4.8 9.4-2.3 1.6-3.9 1.9-10.6 1.9V63.5h1.6c3.1 0 5 .3 6.6.9zM293.5 45c-3.2 0-6.3 1.7-7.9 4.2-1.4 2-1.8 3.8-1.8 7.7v10.9l-2.8-3.5-12.6-15.5c-2.2-2.7-4.4-3.9-7.2-3.9-6.2.1-10.2 4.2-10.2 10.5v37.3c0 4.3.4 6.1 2 8.3 1.9 2.4 4.8 3.8 7.8 3.8 2.9 0 5.7-1.3 7.5-3.5 1.7-2.1 2.2-3.9 2.2-7.8V81.1l15.4 19.7c2 2.6 4.6 4 7.7 4 3 0 5.8-1.3 7.6-3.6 1.7-2.2 2.1-4.1 2.1-8.8v-36c0-3.6-.6-5.7-2.3-7.8-1.9-2.3-4.6-3.6-7.5-3.6zm55.7 29.2l6.8-9.8 3.1-4.6c1-1.4 1.5-3.3 1.5-5.1 0-5.2-4.5-9.7-9.8-9.7-3.3 0-6.1 1.6-8 4.5l-10.1 14.9-.7 1V56c0-3.5-.7-5.7-2.6-7.7-1.8-2-4.5-3.3-7.3-3.3-5.8 0-9.7 4.4-9.7 10.9v37.8c0 6.8 3.8 11.1 9.9 11.1 5.8 0 9.7-4.4 9.7-11.2V83.4l14.6 18.5c1.4 1.8 4.1 2.9 6.8 2.9 5.3 0 9.7-4.5 9.7-9.9 0-2-.6-3.8-1.9-5.3l-12-15.4zm91-29.2c-3.2 0-6.3 1.7-7.9 4.2-1.4 2-1.8 3.8-1.8 7.7v10.9l-2.8-3.5-12.6-15.5c-2.2-2.7-4.4-3.9-7.2-3.9-6.1 0-10.2 4.1-10.2 10.4v37.3c0 4.3.4 6.1 2 8.3 1.9 2.4 4.8 3.8 7.8 3.8 2.9 0 5.7-1.3 7.5-3.5 1.7-2.1 2.2-3.9 2.2-7.8V81.1l15.4 19.7c2 2.6 4.6 4 7.7 4 3 0 5.8-1.3 7.6-3.6 1.7-2.2 2.1-4.1 2.1-8.8v-36c0-3.6-.6-5.7-2.3-7.8-1.9-2.3-4.5-3.6-7.5-3.6zm24.8 0c-5.1 0-8.6 6.2-8.6 11.3 0 2.3 0 5.3.5 8.1.7 3.5 2.4 6.6 6.3 7.3 4.1.8 6.9-3 8.6-7.3 1.2-3.2 1.8-6.8 1.8-9 .1-5.1-3.4-10.4-8.6-10.4zm-86.2 0c-2.8 0-5.4 1.2-7.2 3.2-2 2.2-2.5 4-2.5 8.9v36.5c0 4.1.6 6.1 2.5 8.1 1.7 1.8 4.6 3.1 7.2 3.1 2.6 0 5.4-1.2 7.2-3.3 1.8-1.9 2.5-4.2 2.5-7.9V57.1c0-4.8-.6-6.8-2.6-9-1.7-2-4.3-3.1-7.1-3.1z"
          clip-rule="evenodd"/>
    <path fill="#E11383" fill-rule="evenodd"
          d="M361.2 120.7c-.2-2.5-.8-3.8-2.1-5.4-1.7-2.1-4.7-3.5-7.5-3.5-2.9 0-5.6 1.4-7.4 3.7-1.3 1.6-1.9 2.7-2 5.2 0 .7-.1 1.5-.1 2.5v23.5c0 4.1-2 6.7-5.5 6.7s-5.5-2.7-5.5-7v-23.3c0-.9 0-1.8-.1-2.5-.3-2.6-1-4.2-2.5-5.8-1.7-1.8-4.4-3-7.1-3-2.8 0-5.7 1.5-7.6 3.7-1.2 1.5-1.7 2.6-1.9 5.1-.1 1-.1 2.3-.1 4v20.8c0 7.7 1.1 11.8 4.6 16.6l.1.2c4.7 6.3 12.1 10.2 19.9 10.2 6.9 0 13.8-3.2 18.6-8.6.5-.6 1-1.2 1.4-1.7 3.2-4.4 4.7-9.7 4.7-16.6v-21c.2-1.5.2-2.7.1-3.8m106.1-1c1.5 0 2.7-.7 2.7-2.3 0-.7-.3-1.5-1-1.8-.6-.4-1.4-.4-2.1-.4h-3.7v8.5h1v-3.9h1.9l.6 1 1.8 2.9h1.2l-1.9-2.9-.5-1.1m-1.4-.8h-1.6v-3h2.4c1.1 0 2.2.2 2.2 1.5 0 1.7-1.8 1.5-3 1.5z"
          clip-rule="evenodd"/>
    <path fill="#E11383" fill-rule="evenodd"
          d="M473.6 120.7c.1-.4.1-.9.1-1.3 0-4.2-3.4-7.6-7.6-7.6-4.2 0-7.7 3.4-7.7 7.6 0 .5 0 .9.1 1.3.6 3.6 3.8 6.3 7.5 6.3 3.8 0 6.9-2.7 7.6-6.3h-.9c-.6 3.1-3.3 5.4-6.6 5.4s-6-2.3-6.6-5.4c-.1-.4-.1-.9-.1-1.3 0-3.7 3-6.7 6.7-6.7s6.7 3 6.7 6.7c0 .5 0 .9-.1 1.3h.9m-295.8 41.5c5.3-5.5 8.4-12.9 8.4-20.5 0-3.6-.7-7.2-1.9-10.6-1.5-3.9-3.8-7.4-6.8-10.4l-1-.9c-5.7-5.1-12.5-7.5-21.3-7.5h-12c-5.6 0-9.2 2.2-10.5 6.3-.2.7-.3 1.1-.4 2-.1.9-.1 2.3-.1 4.7V162c0 .9.1 1.4.3 2.1.6 2.3 1.8 3.8 4 5.2 1.7 1.2 3.5 1.6 8.1 1.6h8.2c4.1 0 7.6-.3 10-.7 5.1-1 10-3.6 13.8-7.1l1.2-.9m-26.4-31.1v-.9h1.8c3.2 0 5.2.3 6.9.9l.7.3c3.9 1.9 6.4 5.9 6.4 10.3 0 3.7-1.9 7.4-4.8 9.5-2.3 1.6-4 1.9-10.7 2h-.2v-22.1zm96.7 0c-1.4-3.9-3.6-7.4-6.4-10.4-5.7-6-13.7-9.8-22.7-9.8s-17.1 3.8-22.8 9.8c-2.8 3-4.9 6.5-6.3 10.3-1.2 3.2-1.8 6.7-1.8 10.3 0 8 2.9 15.3 7.8 20.8 5.6 6.4 13.9 10.4 23.2 10.4 9.1 0 17.4-4 23-10.4 4.9-5.5 7.9-12.7 7.9-20.5 0-3.7-.7-7.2-1.9-10.5m-29 22.5c-6.5 0-11.8-5.4-11.8-11.9 0-4.7 2.9-8.8 7.1-10.6 1.4-.6 3-.9 4.7-.9 1.7 0 3.2.3 4.7.9 4.2 1.8 7.1 5.9 7.1 10.6 0 6.5-5.3 11.9-11.8 11.9zm86.4-32.9c-.2-2.2-.9-3.8-2.2-5.4-1.8-2.2-4.4-3.5-7.3-3.5-3.1 0-6.2 1.7-7.8 4.2-1 1.4-1.4 2.7-1.6 4.7-.1.8-.1 1.8-.1 2.9v11.5l-3.3-4.1-8.4-10.4-4.1-5c-2.2-2.7-4.3-3.8-7.1-3.8-5.5 0-9.4 3.5-9.9 8.8 0 .5-.1 1-.1 1.4v37.3c0 1 0 1.9.1 2.7.2 2.5.7 3.9 1.9 5.6 1.8 2.3 4.7 3.7 7.7 3.7 2.9 0 5.6-1.3 7.4-3.5 1.4-1.7 2-3.2 2.1-5.8v-14.8l11.5 14.7 4.2 5.4c2 2.6 4.5 3.9 7.6 3.9 3 0 5.7-1.3 7.5-3.6 1.2-1.6 1.8-3.1 2-5.7.1-.9.1-1.9.1-3v-36.1c-.1-.6-.1-1.4-.2-2.1m107.7 0c-.2-4.3-3.4-7.6-7.8-8.2-.6-.1-.9-.1-1.7-.2h-24.5c-7.7 0-8.5.1-10.5 1-2.6 1.1-4.7 4.3-4.9 7.4v.5c0 2.3 1 4.5 2.7 6.3 1.7 1.7 3.9 2.5 7.2 2.5h5.4v29.7c0 .9 0 1.6.1 2.3.1 2.4.6 3.7 1.6 5.3 1.8 2.5 4.7 4 7.9 4 3.3 0 6.2-1.6 7.9-4.3.9-1.5 1.4-2.9 1.6-5 .1-.7.1-1.5.1-2.5v-29.6h4.5c3.5 0 5.9-.7 7.4-2.1 1.9-1.7 3.1-4.3 3.1-6.9l-.1-.2m37.2 18.2c-2.7-2.3-7.5-4.7-12.5-6.2-2-.6-3.3-1.2-4.3-1.7-1.2-.7-1.7-1.4-1.7-2.5 0-1.3 1.1-2.5 2.5-2.5 1.1 0 2.1.5 4.2 2.2 2 1.5 3.5 2.4 5 2.9 1 .3 1.9.5 3 .5 1 0 1.9-.2 2.7-.5 2.9-1.1 4.7-3.8 4.7-7.4 0-1-.2-2-.5-2.9-1.9-5.7-9.2-9.8-18.3-9.8-8.8 0-15.7 3.7-19.1 9.8-1.5 2.7-2.4 5.9-2.4 9.4v1c.3 7.6 4.5 12.8 12.7 15.7 1.6.6 3.2 1.1 4.8 1.7 3.1 1.1 3.4 1.3 3.9 1.7 1.1.7 1.6 1.5 1.6 2.6 0 1.6-1 2.7-2.6 2.7-1.5 0-2.1-.4-6.3-3.7-2.5-2-4.5-2.8-6.8-2.8-4.9 0-8.7 3.8-8.7 8.7 0 1.6.3 3 1 4.4 2.7 6 10.9 10.4 21.1 10.4 7.2 0 12.5-2 16.4-5.9 1.3-1.3 2.4-2.8 3.2-4.5 1.5-2.9 2.3-6.1 2.3-9.5 0-5.5-2.3-10.8-5.9-13.8"
          clip-rule="evenodd"/>
    <path fill="#F5821F"
          d="M17 59.4c-4.1-.1-7.9-1.8-10.7-4.4-.3 1.1-.5 2.4-.5 3.6v11.6c1.6-3.4 5.3-7 11.2-10.8m10.4 55.4c-4.7-.6-7.8-2.6-9.1-5.7L6.4 78.9l-.5-1v79.6c0 7.9 6.4 14.3 14.3 14.3h37.5c-1.3-1.3-2.4-2.8-3.3-4.6 0 0-23-44.5-27-52.4"/>
    <path fill="#E11383"
          d="M105.4 44.3H84.2l.1.1c.4.5.7 1.1.9 1.7.2.4.3.9.4 1.4 10.3 26 11.7 29.7 11.9 30.2v.1-.1c.4.9.5 1.9.5 2.9 0 2.4-1 4.9-3.2 7.5 2.6 8 7.3 23.9 15.7 55l.5 1.7v-.1c3.3 10.7-1.6 20.7-12.9 27.3h7.3c7.9 0 14.3-6.4 14.3-14.3V58.6c0-7.9-6.4-14.3-14.3-14.3"/>
    <path fill="#683817"
          d="M61.3 45.6c-6.1 1.3-13.3 3.5-19.9 6.1-6.6 2.6-13.4 5.9-18.7 9.2-9.3 5.5-14.1 10.5-13.2 13.8v.3c0 .4.1.7.2 1l.4.7.2.4 12 30.4c.7 1.8 3 2.9 6.8 3.2.6.1 1.2.4 1.5 1l27.7 53.6c5.3 10.5 20.5 10.2 32.3 5.4 13.3-5.4 19.4-14.6 16.3-24.8l-.5-1.7C97.5 111.3 92.7 95.5 90.3 88c-.2-.6-.1-1.3.4-1.8 2.6-2.8 3.5-5.1 2.8-7l-12-30.4-.1-.4-.2-.8-.5-.9-.2-.2c-1.7-3-8.6-3.3-19.2-.9M37.7 7.9c-3.4 2.5-5.5 6.2-6.2 10.6-.9 6.1 2.6 10.2 5.7 13.8 3.3 3.9 6.2 7.3 4.4 13.2-.2.6-.1 1.1.2 1.6.3.5.7.9 1.3 1 1.1.4 2.3-.3 2.7-1.4 2.5-8.1-1.8-13.2-5.3-17.2-3.3-3.8-5.3-6.4-4.7-10.4.5-3.3 2-5.9 4.5-7.7 3.6-2.7 8.3-3 9.5-2.8 5.1.8 6.6 4.7 7 6.3.3 1.1.3 2.2.2 3.3-.3 2.3-1.4 4.3-3.2 5.7h-.1c-2.1 1.1-3.9 1.1-5 0-1.1-1-1.2-2.6-.8-3.5.4-.8 1.5-1.1 3.1-.9.6.1 1.1 0 1.6-.4.5-.3.8-.8.9-1.4.2-1.2-.6-2.3-1.8-2.5-3.5-.6-6.3.6-7.6 3.1-1.4 2.7-.7 6.3 1.6 8.5 2.6 2.5 6.4 2.7 10.3.6l.3-.2c4.2-3.1 6-8.5 4.8-13.6-1.2-5-5.2-8.6-10.5-9.5-2.3-.1-8.2.3-12.9 3.8M12.4 31.3C8 34.4 6 38.1 5.6 41.7c-.4 3.1.4 6 2 8.3 3.3 4.8 10.1 7.2 17 2.7l.1-.1c3.6-2.7 3.5-8.1 1.1-11.4-2.3-3.2-6-3.7-9.5-1.4-1 .7-1.2 2-.6 3 .3.5.8.8 1.4.9.6.1 1.1 0 1.6-.3 2-1.4 3-.5 3.6.3.7.9 1 2.3.8 3.5-.1.9-.4 1.5-1 1.9-4.7 3.1-8.9 1.4-11-1.6-2.3-3.4-2.1-8.6 3.7-12.7 5.7-3.9 9.9-1.5 11.8.3 3.7 3.4 5.2 9.3 3.1 12.9-.6 1-.2 2.4.8 2.9.5.3 1.1.4 1.6.2.6-.2 1-.5 1.3-1 3-5.4 1.3-13.4-4-18.2-4.6-4.4-11.1-4.7-17-.6"/>
    <path fill="#FFF"
          d="M72.9 54c-7 .8-17.4 3.6-27.4 7.5-10 4-19.6 9.4-25.2 13.7-3.9.3-6.3 0-7.2-.5.6-2.4 10.2-11.2 30-19.1 19.8-7.9 32.5-8.3 34.6-6.9-.2 1-1.7 2.9-4.8 5.3m30 92.8c2.6 8.6-3.9 15.7-13.9 19.7-10.4 4.2-23.1 4.4-27-3.4-1.3-2.7-18.7-34.6-27.2-52.5 8.7-.9 19.3-4 27-7.1 7.8-3.1 17.6-8.1 24.5-13.4 6.3 18.9 15.7 53.8 16.6 56.7M60.4 99.4c-18.3 7.2-32.1 7.8-34.2 6L16.1 80.3c9.4.7 24-3.8 33.6-7.6 9.6-3.8 23.3-10.6 29.7-17.5l10.1 25.1c-.4 2.7-10.8 11.8-29.1 19.1"/>
    <path fill="#F5821F" fill-rule="evenodd"
          d="M67.7 119.1c-1-1.1-2.2-1.9-3.6-2.4-2.3-.9-4.7-.8-7.4-.1-1.2.3-2.5.7-3.7.9-1.8.4-2.6 1.3-2.5 2.5 0 .4.1.6.7 1.9 1.4 3 2.7 6.1 4.1 9.1.5 1.1.6 1.4.9 1.8.5.6 1 1 1.9 1.2.7.2 1.3.2 2.6-.1l2.4-.6c1.2-.3 2.2-.7 2.8-1 1.4-.7 2.5-1.9 3.2-3.3 1.1-2.2 1.2-4.9.3-7.2-.4-.9-1-1.9-1.7-2.7m-4.3 7.9c-.5.6-.9.9-2.9 1.4-.9-2.1-1.8-4.3-2.7-6.4l.5-.1c.9-.2 1.5-.3 2.1-.3h.3c1.4.2 2.6 1.1 3.1 2.3.4 1.1.2 2.3-.4 3.1z"
          clip-rule="evenodd"/>
    <path fill="#E11383" fill-rule="evenodd"
          d="M84 111c-.9-1-2-1.7-3.2-2.1-2.1-.6-4.2-.2-6.8 1.1-1.2.6-2.3 1.1-3.5 1.6-1.6.7-2.5 1.8-2.4 3.2 0 .4.1.6.6 2l3.6 9.3c.4 1.2.5 1.4.8 1.8.4.6 1 .9 1.7 1 .6.1 1.2 0 2.5-.5.8-.3 1.5-.7 2.3-1 1.1-.5 2-1.1 2.6-1.6 1.3-1 2.3-2.5 3-4.1 1-2.6 1.2-5.5.4-7.9-.5-1.1-1-2-1.6-2.8m-4.1 9.3c-.5.8-.9 1.1-2.7 2l-2.4-6.6.5-.2c.9-.4 1.4-.6 1.9-.7h.3c1.3 0 2.3.8 2.8 2 .3 1.1.2 2.5-.4 3.5z"
          clip-rule="evenodd"/>
</svg>
