<svg xmlns="http://www.w3.org/2000/svg" width="282.69" height="189.47" version="1">
    <path fill="#F5D0D8"
          d="M30.7 73.92v.03C7.82 89.07-4.33 109.66 1.42 129.21c11.14 37.9 81.64 48.58 157.99 35.78 79.21-13.29 125.8-43.37 123.17-83.48-1.56-23.76-33.82-47.63-73.2-52.93v22.04c26.07 4.5 44.32 13.52 47.71 31.95 7.17 39.05-38.54 71.12-104.74 78.35-71.33 7.78-128.11-9.73-133.02-49.33-1.7-13.66 1.6-26.79 11.37-37.67"/>
    <path fill="#FFF"
          d="M30.64 74c-9.72 10.86-13 23.96-11.31 37.59 4.9 39.6 61.69 57.11 133.02 49.33 48.95-5.35 90.37-24.27 105.74-49.56a60.56 60.56 0 0 0 2.22-17.03s1.29-11.83-1.64-22.68a17.25 17.25 0 0 0-3.59-5.76 8.06 8.06 0 0 1-1.36-1.87c-.67-3.79-1.41-5.35-1.73-5.78-.3-.4-.83-1.37-1.38-2.38-.68-1.25-1.38-2.54-1.68-2.8-.22-.18-.6-.43-1.05-.73-1.3-.86-3.17-2.1-3.36-3.24l-3-5.75s-4.13-2.61-5.99-3.28c0 0-1.86-1.19-4.24-2.65-.77-.47-1.79-2.15-2.47-3.3a6.7 6.7 0 0 0-.72-1.08c-3.88-2.63-6.23-6.96-6.23-6.96l-2.52-4.78s-4.09-2.12-5.18-2.91a9.5 9.5 0 0 1-1.01-1.1c-1.15-1.36-2.94-3.46-4.46-3.82l-1.09.08s0-.17-1.7.56c0 0-2.34 1.98-2.82 2.33-.48.35-2.06.75-2.32.86-.27.12-.33.25-.33.25l-.81 1.2-3.02 3.73c-.34.36-1.73.87-1.73.87s-4.74 1.94-6.55 2.92c-1.15.62-5.24 2.26-7.32 1.93-2.07-.33-5.25 2.24-6.52 2.26 0 0-.85.32-2.02.72l.7-.24-.57-1.52s-3.8-3.77-4.25-4.26L166.6 24c-.29-.2-.85-.52-1.47-.9a31 31 0 0 1-2.5-1.56 17.43 17.43 0 0 1-1.86-2.53l-.62-.92a9.34 9.34 0 0 1-.14-.19 6.65 6.65 0 0 0-1.62-1.78 8.32 8.32 0 0 1-1.62-1.8l-.73-1.31s-1.63-2.92-3.25-3.41c-1.6-.5-2.31-.86-2.31-.86l-2.2-2.15S144.05.4 143.4.25L142.35 0l-1.07.06c-.18.01-.4.08-.7.25-1.17.66-5.27 3.94-6.15 4.43-.88.5-1.32.98-1.76 1.8-.44.82-5.28 6.4-6.01 6.73-.73.33-3.37 1.15-4.25 1.8 0 0-.59.83-.88 1.32-.3.5-2.05 2.96-2.78 3.44-.74.5-2.93 1.65-2.93 1.65s-1.36 3.55-2.65 5.64l-1.08 1.32-.02.02-1.96 1.38-.69.42c-.48-.92-1.25-2.02-2.25-2.13-.76-.08-.79-1.34-.79-1.34l.07-2.65-.53-1.26-1.46-2.25c-.37-1-.73-2.1-1.04-3.07a15.87 15.87 0 0 0-.95-2.57l-1.75-1.33-.42-.28c-.22-.16-.31-.22-.37-.22-.04 0-.06.04-.1.09-.03.05-.1.13-.19.21l-.13-.08c-.21-.15-.3-.22-.36-.22-.04 0-.06.04-.1.09-.05.06-.12.16-.27.28-.02-.01-.15-.07-.36.08-.79.56-4.31 2.76-5.4 4.34-.6.9-2.76 1.54-2.76 1.54l-1.1.78s-1.59 1.28-2.21 1.4c-.85.15-2.36.3-3.1.92-.73.62-1.81 2.02-1.81 2.02s-.86 1.08-1.35 1.24c-.5.15-1.08 2.94-2.56 5.1-1.47 2.17-5.79 2.33-6.16 2.49-.37.15-1.5 2.47-2 3.25-.48.77-1.73 1.23-2.07 1.37-2.02.82-2.6 1.3-3.95 3l-1.82 4.09-4.05 4.27-5.39 3.72-.57 2.63L50.06 57s-.26-.1-1 1.14c0 0-2.25 2.1-5.83 4.05-1.11.6-.44 1.23.09 1.56l-6.28 8.28c-3.72.48-6.34 1.9-6.34 1.9v.02l-.06.04m235.43 59.7l-.36.05-.35.08-.34.12-.32.15-.3.18-.3.2-.26.24-.25.26-.21.28-.2.31-.15.34-.13.35-.1.38-.05.4-.02.42.02.4.05.38.09.36.12.36.14.33.18.3.2.3.24.26.26.25.28.2.31.2.33.15.35.12.36.1.39.05.4.01.36-.01.36-.05.35-.09.34-.11.32-.15.3-.18.3-.2.26-.24.24-.26.21-.29.2-.3.15-.34.13-.36.1-.38.05-.4.02-.41-.02-.42-.05-.4-.1-.38-.13-.35-.16-.34-.19-.3-.21-.3-.24-.25-.27-.24-.28-.2-.31-.18-.32-.15-.34-.12-.35-.08-.36-.05-.36-.02-.38.02zm.07.65l.3-.01.3.01.3.05.27.07.27.1.25.12.24.15.22.17.2.2.2.21.16.24.14.26.12.28.1.29.07.3.04.33.02.34-.02.34-.04.32-.07.31-.1.3-.12.27-.14.26-.17.24-.18.21-.2.2-.23.17-.24.15-.25.12-.27.1-.27.07-.3.04-.3.02-.32-.02-.31-.04-.3-.08-.28-.1-.25-.14-.25-.16-.21-.17-.2-.2-.18-.23-.16-.24-.13-.26-.11-.27-.09-.29-.1-.6-.01-.32.01-.34.05-.32.07-.31.1-.3.11-.27.15-.26.16-.24.19-.21.2-.2.23-.17.24-.15.25-.12.27-.1.29-.07.28-.05zm-1.13 5.27h.69v-1.79h.65l1.08 1.79h.77l-1.17-1.84.23-.04.2-.06.2-.1.15-.11.13-.15.1-.2.08-.34-.02-.44-.07-.25-.12-.2-.17-.17-.22-.12-.26-.1-.3-.04-.36-.02H265v4.18zm.69-2.37V136h.83l.31.02.3.08.12.07.09.1.06.13.02.28-.04.18-.07.13-.18.14-.14.05-.17.03-1.13.02"/>
    <path fill="#FFF"
          d="M186.08 111.77c.72-.05 1.46-.12 2.13-.2v1.87c0 4.4-1.48 8.24-4.08 10.97-2.58 2.71-6.39 4.45-11.31 4.45a8.85 8.85 0 0 1-5.8-2.22 8.04 8.04 0 0 1-2.68-6.17c0-2.03.55-3.43 1.36-4.46a8.08 8.08 0 0 1 3.57-2.42c1.54-.59 3.32-.93 5.17-1.15a75.6 75.6 0 0 1 5.4-.34c.87-.04 1.7-.07 2.45-.12.22 0 1.98-.08 3.79-.21zm4.96 29.47h16.3l-1.42-2.66c-1.58-2.95-2.08-4.9-2.26-6.72v-.06l-.07-.52c-.03-.35-.08-.89-.12-1.58-.1-1.4-.17-3.44-.12-6 .1-5.23.17-21.89.17-21.89 0-4.25-.35-8.12-1.2-11.52-.84-3.4-2.2-6.4-4.25-8.83a17.59 17.59 0 0 0-8.1-5.37 30.63 30.63 0 0 0-9.72-1.39c-.76 0-1.54.02-2.34.06-4.74.23-8.71 1.1-12.38 2.47a31.69 31.69 0 0 0-9.98 5.87l-.63.54.04 14.14 2.85-2.08a46.54 46.54 0 0 1 9.8-5.67 27.5 27.5 0 0 1 8.95-2.03h.03c.6-.03 1.17-.05 1.71-.05 1.39 0 2.62.1 3.7.32 1.51.3 2.68.81 3.56 1.49a5.77 5.77 0 0 1 1.94 2.75 12 12 0 0 1 .5 4.79l-.04.36c-.1.66-.25.8-.31.86-.13.12-.43.3-1.33.53a29.87 29.87 0 0 1-2.01.25 170.7 170.7 0 0 1-7.46.31c-5.86 0-12.67 1.22-18.12 4.48a20.26 20.26 0 0 0-7.03 6.79c-1.78 2.9-2.8 6.4-2.8 10.54 0 3.52.6 6.62 1.74 9.29a17.1 17.1 0 0 0 4.97 6.6c4.25 3.46 10.12 4.94 16.7 4.94 5.07 0 9.14-1.33 12.31-3.18 1.53-.9 2.85-1.9 3.96-2.93.14.83.36 1.64.63 2.36.3.77.69 1.53 1.19 2.12l.64.62M73.4 84.14c-5.22-6.1-12.48-9.19-20.5-9.19-8.93 0-16.56 3.51-21.92 9.47-5.36 5.95-8.4 14.23-8.39 23.7.02 9.5 2.32 18.15 7.45 24.47a25.99 25.99 0 0 0 9.8 7.46 34.23 34.23 0 0 0 13.9 2.69h.02c5.36 0 9.88-.83 14.03-2.29a53.67 53.67 0 0 0 11.6-5.99l.82-.53v-16.15l-2.91 2.27a60.64 60.64 0 0 1-10.76 6.81c-3.77 1.8-7.46 2.9-10.76 2.9-5.43 0-9.75-1.75-12.71-4.88-2.69-2.84-4.42-7-4.73-12.44l43.15-.03.16-1.93c0-11.39-3.05-20.28-8.25-26.34zm-30.2 7.23c2.32-2.3 5.53-3.6 9.67-3.6 3.7 0 6.7 1.4 8.88 3.77 1.86 2.04 3.19 4.89 3.73 8.38h-26.5c.76-3.72 2.22-6.57 4.22-8.55zm79-15.41h-1.24l-16.15 41.82-15.1-41.82H72.9l25.82 65.27 10.9.05 23.05-58.02-.04 57.96 15.15.02.02-65.29h-25.62M222.75 99c.02-.44.18-1 .47-1.66.3-.65.69-1.31 1.1-1.92a19.6 19.6 0 0 1 1.6-2.02c3.08-3.07 5.94-4.37 7.96-4.93a11.2 11.2 0 0 1 2.97-.4h.15l.17.02c2.1.04 3.56.48 4.6 1.09 1.02.6 1.73 1.4 2.24 2.37.51.99.82 2.15.99 3.4.16 1.25.18 2.53.17 3.74-.02.88 0 1.66 0 2.33l.01 1.26v38.96h15.39v-38.8c0-4.5-.09-8.05-.51-11.01-.43-3-1.2-5.44-2.56-7.75a17.3 17.3 0 0 0-8.52-7.47 23.83 23.83 0 0 0-9.85-1.6 28.13 28.13 0 0 0-10.83 2.42c-.35.14-2.68 1.15-5.49 3.41V75.9h-15.39v65.3h12.6l2.74-1.73V99M132.7 75.35h15.12V60.74h-15.13v14.6"/>
    <path fill="#EA2D55"
          d="M67.7 101.78H37.14c1.24-10.02 6.9-15.74 15.98-15.74 8.36 0 13.96 6.34 14.6 15.74zm-30.96 8.9l43.3-.03v-.14c0-22.13-11.85-33.68-26.9-33.68-16.85 0-28.48 13.2-28.46 31.33.02 18.46 8.96 32.76 29.3 32.77 10.32 0 17.3-3.17 24.63-7.97v-11.47c-6.74 5.25-15.26 10.1-22.6 10.1-11.64 0-19.27-7.56-19.27-20.92m109.35 28.76l.01-61.6h-11.5l-.03 61.59 11.52.01m74.85-40.42c.13-3.06 3.67-6.81 3.67-6.81 6.63-6.6 12.56-5.85 12.56-5.85 9.29.2 9.82 7.45 9.75 12.43-.03 1.49.03 2.7.02 3.58v37.07h11.75V102.5c.02-9.02-.4-13.72-2.81-17.84-4.02-6.85-10.77-8.3-16.75-8.16a26.3 26.3 0 0 0-10.15 2.26s-4.03 1.62-8 5.9l.01-6.88h-11.76v61.65h11.7V99.01m-30.87 10.4v4.07c-.03 9.59-6.45 17.2-17.18 17.2-4.96 0-10.27-3.74-10.27-10.19 0-10.75 13.4-9.85 19.63-10.27 0 0 7.4-.3 7.82-.82zm1.74 30.04l-.02-.02h12.56c-1.67-3.12-2.25-5.3-2.46-7.38 0 0-.42-3.14-.31-8.36.1-5.22.16-21.83.16-21.83 0-16.6-5.47-26.09-23.68-25.22A38.06 38.06 0 0 0 166.24 79a29.82 29.82 0 0 0-9.43 5.54l.03 9.77c7.34-5.34 13.23-7.67 19.67-8.03 8.82-.51 13.92 2.41 13.33 11.26l-.06.44c-.27 1.79-1.06 2.4-2.98 2.88s-9.52.62-9.52.62c-11.47-.11-26.48 4.69-26.48 19.98 0 13.26 8.89 19 21.58 19 9.45 0 15-4.95 17.7-8.62 0 0 .05 2.22.29 3.81a8.2 8.2 0 0 0 1.43 3.8M75.76 77.84l24.37 61.6 8.44.03 24.47-61.63h-10.71l-17.41 45.12-16.3-45.12H75.76m70.34-4.21v-11h-11.57l.01 11h11.56m120.71 60.06l-.36-.02-.38.02-.36.05-.35.08-.34.12-.32.15-.3.18-.3.2-.26.24-.24.26-.22.28-.2.31-.15.34-.13.35-.1.38-.05.4-.02.42.02.4.05.38.09.36.12.36.14.33.18.3.2.3.24.26.26.25.29.2.3.2.33.15.35.12.36.1.39.05.4.01.36-.01.36-.05.35-.09.34-.11.32-.15.3-.18.3-.2.26-.24.24-.26.22-.29.18-.3.16-.34.13-.36.1-.38.06-.4.02-.41-.02-.42-.06-.4-.1-.38-.13-.35-.16-.34-.18-.3-.22-.3-.24-.25-.27-.24-.28-.2-.31-.18-.32-.15-.34-.12-.35-.08-.36-.05zm-.67.65l.3-.01.3.01.3.05.27.07.27.1.25.12.24.15.22.17.2.2.2.21.16.24.14.26.12.28.1.29.07.3.04.33.02.34-.02.34-.04.32-.07.31-.1.3-.12.27-.14.26-.17.24-.18.21-.2.2-.23.17-.24.15-.25.12-.27.1-.27.07-.3.04-.3.02-.32-.02-.31-.04-.3-.08-.28-.1-.25-.14-.25-.16-.21-.17-.2-.2-.18-.23-.16-.24-.13-.26-.11-.27-.09-.29-.1-.6-.01-.32.01-.34.05-.32.07-.31.1-.3.11-.27.15-.26.16-.24.19-.21.2-.2.23-.17.24-.15.25-.12.27-.1.29-.07.28-.05zm-.44 2.9V136h.83l.31.02.3.08.12.07.09.1.06.13.02.28-.04.18-.07.13-.18.14-.14.05-.17.03-1.13.02zm1.25-1.8l-.35-.01H265v4.18h.69v-1.79h.64l1.09 1.79h.77l-1.17-1.84.23-.04.2-.06.2-.1.15-.11.07-.07.12-.17.1-.33.02-.41-.05-.28-.1-.22-.14-.2-.2-.14-.23-.1-.45-.1"/>
    <path fill="none" d="M41.62 13.45h66.1v50.54h-66.1z"/>
    <path fill="none" d="M108.72 64.1V13.46h-67V64.1h67"/>
    <path fill="none" d="M106.95.06h70.63V60.7h-70.63z"/>
    <path fill="none" d="M178.58 61.16V.06h-71v61.1h71"/>
    <path fill="none" d="M170.14 72.5l-6.81-58.45 75.03-8.75 6.82 58.45z"/>
    <path fill="none" d="M246.4 63.77l-6.84-58.6-75.54 8.8 6.83 58.6 75.54-8.8"/>
    <linearGradient id="a" x1="75.07" x2="75.07" y1="13.51" y2="63.99" gradientUnits="userSpaceOnUse">
        <stop offset="0" stop-color="#0078B9"/>
        <stop offset=".13" stop-color="#007AB9"/>
        <stop offset=".26" stop-color="#007EBC"/>
        <stop offset=".39" stop-color="#1B85C0"/>
        <stop offset=".52" stop-color="#4D92C7"/>
        <stop offset=".66" stop-color="#73A3D1"/>
        <stop offset=".79" stop-color="#9EBCDC"/>
        <stop offset=".93" stop-color="#D3DEED"/>
        <stop offset="1" stop-color="#F5F6F7"/>
    </linearGradient>
    <path fill="url(#a)"
          d="M98.79 19.34c0 .45-.36 1.52.37 2.02.66.44.5 1.54.13 2-.37.47-1.35 2.33-2.1 2.95-.73.62-2.82 1.24-1.96 1.7.86.47 2.95 2.95 2.95 2.95s.62 2.48.12 3.72a16.8 16.8 0 0 1-1.84 3.25c-.37.46 0 1.55 0 1.55l.98 2.63s.13 1.55-.24 1.7c-.37.16-.5 1.24-.5 1.24 1.11.93 5.61 4.32 5.61 4.32l-.49 3.88s1.1 1.86 1.1 2.32c0 .46-.49 2.01-.49 2.01s4.56 2.7 4.92 2.7c.37 0 0 3.06 0 3.06l-3.44.6c-1.84-1.09-2.95-.93-2.95-.93-.61 0-2.7-1.86-2.7-1.86l-1.23-.62s-5.4-.16-6.13.15c-.74.3-1.06.28-1.48.1-.63-.28-2.65-.24-3.4-.4-.73-.15-3.3-.3-3.67-.15-.37.15-1.1-.77-1.48-1.55-.37-.78-3.31-2.79-3.31-2.79-1.47.16-6.01-.3-6.01-.3-.86.3-.25 1.08-2.46.45-2.21-.61-3.44.63-3.44.63s-1.1 1.23-1.6 2.16c-.48.93-1.59 1.09-1.59 1.09-4.05 2.63-6.87 2.94-6.87 2.94s-3.01.26-3.01 0c-1.23-.46-3.88-.14-5.35.32-1.47.47-3.46.81-3.46.81s-2.15-.92-.54-1.8c3.58-1.95 5.83-4.05 5.83-4.05.74-1.24 1-1.14 1-1.14l2.06-1.22.57-2.64 5.4-3.72 4.04-4.27 1.82-4.1c1.35-1.7 1.93-2.17 3.95-2.99.34-.14 1.59-.6 2.08-1.37.49-.78 1.62-3.1 2-3.25.36-.16 4.68-.32 6.15-2.49 1.48-2.16 2.07-4.95 2.56-5.1.49-.16 1.35-1.24 1.35-1.24s1.08-1.4 1.82-2.02c.73-.62 2.24-.77 3.09-.92.62-.12 2.2-1.4 2.2-1.4l1.11-.78s2.15-.65 2.76-1.54c1.09-1.58 4.61-3.78 5.4-4.34.24-.16.37-.07.37-.07v5.8"/>
    <linearGradient id="b" x1="142.26" x2="142.26" y1=".06" y2="60.36" gradientUnits="userSpaceOnUse">
        <stop offset="0" stop-color="#0078B9"/>
        <stop offset=".13" stop-color="#007AB9"/>
        <stop offset=".26" stop-color="#007EBC"/>
        <stop offset=".39" stop-color="#1B85C0"/>
        <stop offset=".52" stop-color="#4D92C7"/>
        <stop offset=".66" stop-color="#73A3D1"/>
        <stop offset=".79" stop-color="#9EBCDC"/>
        <stop offset=".93" stop-color="#D3DEED"/>
        <stop offset="1" stop-color="#F5F6F7"/>
    </linearGradient>
    <path fill="url(#b)"
          d="M112.06 28.46c1.47-.98 3.76-6.98 3.76-6.98s2.2-1.15 2.93-1.64c.73-.5 2.49-2.96 2.78-3.45.3-.5.88-1.31.88-1.31.88-.66 3.52-1.48 4.25-1.8.73-.33 5.57-5.92 6-6.74.45-.82.89-1.3 1.77-1.8S139.4.97 140.58.3c.3-.17.52-.24.7-.25l.03.08.44 1.4c.22 1.15 0 3.2.44 3.61.44.41 3.37 3.04 3.52 3.61.15.57-.51.98.37 1.64.88.66 4.32 3.86 4.32 3.86s0 .74.3 1.3l1.61 3.3s-.76 1.47-.55 2.12c.22.66 3.77 5.34 3.77 5.34.22 1.8 4.98 7.13 4.98 7.38 0 .24.95 3.03.95 3.03-.02 1.04.31 3.02.31 3.02l-.67 1.42c-.07.16.3 2.54.3 2.54s1.16 2.05 1.46 2.13c.29.08 2.41 1.64 2.27 1.97-.15.32 0 2.46.14 2.87.15.4 1.25.82 1.25.82 1.98.82 6.16 5.25 6.38 5.5.22.24.88.4.88.4s1.68.42 2.2.5c.5.08 1.6 2.46 1.6 2.46-.5 0-1.53-.5-3-.25-1.46.25-6.3.58-6.45.09-.14-.5-1.1-.82-1.68-1.24-.6-.4-2.2-.16-2.79-.08-.58.08-.44.17-1.9.17-1.47 0-6.08.16-6.82-.33-.73-.5-3-2.54-3-2.54s-.66-.17-1.1-.33c-.44-.17-2.42-2.63-2.93-2.55-.51.09-2.42-1.88-3.89-3.11-1.46-1.23-2.78-1.32-3.15-1.48-.36-.16-.88-1.14-.88-1.14l-1.83-5.01s-.29-.74-.87-2.05c-.6-1.32-3.96-1.49-4.99-1.57-1.03-.08-2.39-1.72-2.39-1.72s-1.33-.93-3.58-1.06c-2.37-.14-.93.4-4.38-.53-.78-.22-1.08-1.93-1.74-2.43-.66-.48-3.44.58-5.57 1.24-2.12.65-1.93-.4-3.58-1.07-1.31-.53-1.18-.86-2.91-.26l-1.2-1.14c1.31-1 1.5-1.12 3.16-2.13l1.96-1.38"/>
    <linearGradient id="c" x1="198.21" x2="207.85" y1="15.16" y2="69.84" gradientUnits="userSpaceOnUse">
        <stop offset="0" stop-color="#0078B9"/>
        <stop offset=".13" stop-color="#007AB9"/>
        <stop offset=".26" stop-color="#007EBC"/>
        <stop offset=".39" stop-color="#1B85C0"/>
        <stop offset=".52" stop-color="#4D92C7"/>
        <stop offset=".66" stop-color="#73A3D1"/>
        <stop offset=".79" stop-color="#9EBCDC"/>
        <stop offset=".93" stop-color="#D3DEED"/>
        <stop offset="1" stop-color="#F5F6F7"/>
    </linearGradient>
    <path fill="url(#c)"
          d="M205.91 14.1c1.7-.73 1.7-.57 1.7-.57l1.74 4.9c.54.88 1 2.57 1 2.57l1.4 1.71c1.52 1.62 4.29 5.14 4.29 5.14s.15 3.66.15 4.14c-.01.48.28.76.55.96.28.2 2.38 2.37 2.38 2.37s.48.73.29 1.24c-.2.5-.18 2.43-.2 2.75-.2 2.62-.13 1.2-.16 3.07 0 .57.25 1.08.77 1.72.52.64 1.97 2.12 1.97 2.12s-.1.23-.14 1.54c-.06 1.8.34 3.79.34 3.79l3.32 2.39c.76.52 3.75.51 4.24.93.5.4 1.7 1.92 1.86 2.12.8.93.93.93 1.73 1.76.38.4 4.54 2.37 4.5 2.62-.03.24 1.66 3.07.93 3.05-9.82-.27-17.1-.7-17.48-.73-.38-.02-2-.18-2.1-.48-.1-.32-1-.98-1.47-1.23-.48-.25-2.37-.7-2.65-.9-.27-.2-.7-.53-1.15-.62a8.35 8.35 0 0 0-2-.2c-.43.07-2.09.07-2.09.07s-1.02-.57-1.43-.82c-.41-.26-3.59-3-3.95-3.34-.35-.35-1.66-.08-2.17-.65-.51-.56-3.3-2.71-3.3-2.71s-6.17 1.63-6.4 1.34c-.22-.29-1.29-1.25-1.82-1.97s-2.9-6.86-2.9-6.86-.85-.27-1.35-.12c-.49.15-6.66-1.02-6.94-1.22-.28-.2-1.16-.14-1.35-.12-.19.03-.58-.07-.67-.3-.09-.23-.41-1.86-.46-2.34-.06-.47.03-.24-.62-.86a77.38 77.38 0 0 1-3.39-4.55c-.7-.53-2.85-1.02-2.85-1.02l-.6-1.83s-.23-.72 1.6-1.31c1.85-.6 3.47-1.2 3.47-1.2 1.27-.02 4.44-2.6 6.52-2.26 2.07.33 6.16-1.3 7.3-1.93 1.82-.98 6.56-2.92 6.56-2.92s1.39-.5 1.73-.87l3.02-3.72.81-1.2s.07-.14.33-.26c.26-.1 1.84-.51 2.32-.86.48-.35 2.82-2.33 2.82-2.33"/>
    <path fill="#0083C6" fill-rule="evenodd" stroke="#0083C6" stroke-miterlimit="2.61" stroke-width=".35"
          d="M49.6 171.79a154.53 154.53 0 0 1-2.67 12.94c.21-.07.43-.07.57-.07.22 0 .44 0 .58.07.14-1.74 1.3-7.95 1.8-10.2.65 1.02 5.85 9.33 6.35 10.34h.22c.21-1.66 1.95-10.55 2.52-12.86-.14 0-.29.07-.5.07s-.43-.07-.58-.07c-.29 3.04-1.44 9.03-1.73 10.19-.8-1.01-5.41-8.46-6.35-10.41h-.22zm13.92 6.43h.21c.58-.65 1.16-1.15 1.95-1.15.87 0 1.59.5 1.59 1.52 0 .5-.07 1.08-.5 1.3-.3.14-.87.14-1.23.28-1.01.22-3.4.65-3.4 2.82 0 1.23 1.02 1.88 1.95 1.88 1.01 0 1.8-.58 2.38-1.3.08.65.36 1.16 1.01 1.16.44 0 .8-.22 1.16-.5l-.07-.37a.65.65 0 0 1-.44.14c-.36 0-.57-.36-.57-.72s.07-.86.21-1.59l.44-2.1c.07-.28.21-.86.21-1.3 0-1.15-.86-1.95-2.16-1.95a4.2 4.2 0 0 0-2.53.94l-.21.94zm-.22 4.56c0-1.38 1.3-1.88 2.31-2.1.43-.14.94-.22 1.37-.36-.22.8-.36 1.66-.43 2.46-.5.72-1.16 1.3-2.02 1.3-.65 0-1.23-.44-1.23-1.3zm11.04-7.88l-.29 1.8c-.29 0-.65 0-1.01-.07 0 .36 0 .5-.07.72.36 0 .72-.07 1-.07-.28 1.81-.35 2.02-.79 4.41a6.38 6.38 0 0 0-.21 1.52c0 1.08.8 1.66 1.66 1.66.5 0 1.15-.14 1.51-.5l.07-.51c-.28.21-.64.36-1 .36-.51 0-1.16-.36-1.16-1.23 0-.57.22-1.73.36-2.45l.65-3.26c.43 0 1.08.07 1.66.07 0-.21 0-.43.07-.72-.58.07-1.15.07-1.59.07.15-.79.3-1.58.51-2.38l-1.37.58zm10.24 9.83c.15-.08.36-.08.58-.08.22 0 .36 0 .58.08.14-2.1 1.22-7.09 1.51-8.24-.14.07-.36.07-.58.07-.21 0-.43 0-.64-.07-.08.36-.65 4.26-1.02 5.56-.28 1.08-1.15 2.02-2.3 2.02-.94 0-1.52-.57-1.52-1.65 0-.94.8-4.2 1.23-5.93-.22.07-.43.07-.72.07-.22 0-.44 0-.65-.07-.15 1.23-.5 3.1-.58 3.68-.29 1.38-.5 2.32-.5 2.75 0 1.23 1.15 1.95 2.16 1.95 1.3 0 2.17-.8 2.67-1.44v.07l-.22 1.23zm10.75-6.94c0-.44.07-.87.15-1.38-1.16-.07-1.8 1.02-2.46 1.96h-.07c.07-.73.29-1.6.36-1.88-.14.07-.36.07-.58.07-.14 0-.43 0-.57-.07-.22 1.8-1.16 6.8-1.52 8.24.15-.08.36-.08.58-.08.22 0 .43 0 .58.08.14-1.09.86-4.63.93-4.99.37-1.3 1.16-2.02 1.88-2.02.22 0 .43.07.58.14l.14-.07zm4.26.43h.21c.51-.65 1.16-1.15 1.95-1.15.87 0 1.59.5 1.59 1.52 0 .5-.07 1.08-.5 1.3-.3.14-.87.14-1.23.28-1.01.22-3.4.65-3.4 2.82a1.86 1.86 0 0 0 1.88 1.88c1.01 0 1.8-.58 2.46-1.3.07.65.36 1.16 1 1.16.44 0 .8-.22 1.16-.5l-.07-.37c-.07.07-.22.14-.44.14-.36 0-.57-.36-.57-.72s.07-.86.21-1.59l.44-2.1c.07-.28.21-.86.21-1.3 0-1.15-.86-1.95-2.16-1.95a4.2 4.2 0 0 0-2.53.94l-.21.94zm-.22 4.56c0-1.38 1.3-1.88 2.31-2.1.43-.14.94-.22 1.37-.36-.21.8-.36 1.66-.43 2.46-.5.72-1.23 1.3-2.1 1.3-.57 0-1.15-.44-1.15-1.3zm12.84-10.99c-.21 0-.43.07-.72.07-.21 0-.36-.07-.58-.07-.28 2.53-1.37 8.75-2.38 12.94.15-.07.3-.07.58-.07.29 0 .5 0 .65.07a321.4 321.4 0 0 1 2.45-12.94zm16.67 2.02c.14-.65.21-.86.57-1.44-.43-.22-1.08-.58-2.16-.58-2.38 0-4.04 1.66-4.04 3.83 0 1.66.94 2.31 1.95 3.03.94.65 1.8 1.16 1.8 2.53 0 1.3-.94 3.04-2.74 3.04-.65 0-1.8-.36-2.3-1.37h-.15c-.15.43-.3.94-.5 1.44.64.5 1.5.65 2.37.65a4.49 4.49 0 0 0 4.55-4.4c0-1.67-.87-2.25-1.95-2.9-1.08-.72-1.8-1.23-1.8-2.53 0-1.37 1-2.67 2.38-2.67.86 0 1.58.5 1.87 1.37h.15zm5.2 9.32c.28 1.3 1.29 1.74 2.3 1.74 2.45 0 4.04-2.82 4.04-5.35 0-2.74-1.8-3.18-2.67-3.18-1.51 0-2.3 1.01-2.74 1.67.07-.65.14-.94.29-1.52-.15.07-.44.07-.58.07-.22 0-.43 0-.58-.07a58.3 58.3 0 0 0-.5 3.1c-.58 3.11-1.3 7.01-1.88 9.62.22-.08.44-.08.65-.08.22 0 .43 0 .58.08.29-1.81.65-4.05 1.01-6.08h.07zm.2-1.22c0-.8.59-4.84 3.04-4.84.86 0 1.87.65 1.87 2.45 0 1.45-.79 4.7-3.03 4.7-.72 0-1.87-.43-1.87-2.31zm14.37-4.12c0-.44.07-.8.14-1.38-1.23-.07-1.88 1.02-2.53 1.96h-.07c.15-.73.36-1.6.43-1.88-.14.07-.36.07-.57.07-.22 0-.44 0-.58-.07-.21 1.8-1.15 6.8-1.59 8.24.22-.08.44-.08.65-.08.22 0 .44 0 .58.08.14-1.09.8-4.63.94-4.99.36-1.3 1.08-2.02 1.8-2.02.29 0 .5.07.65.14l.15-.07zm5.76-1.3c-.21.07-.43.07-.64.07-.22 0-.44 0-.65-.07a76.4 76.4 0 0 1-1.6 8.24c.15-.08.37-.08.59-.08.29 0 .5 0 .72.08.22-2.1 1.3-7.09 1.58-8.24zm-.86-2.68c0 .44.36.8.8.8.35 0 .71-.36.71-.8 0-.5-.35-.86-.72-.86-.43 0-.79.36-.79.86zm6.93 2.68c-.15.07-.36.07-.58.07-.22 0-.36 0-.58-.07a90.94 90.94 0 0 1-1.51 8.24c.14-.08.36-.08.57-.08.22 0 .44 0 .58.08.07-.58.72-4.48 1.08-5.64.5-1.6 1.73-1.88 2.24-1.88.8 0 1.59.5 1.59 1.6 0 1.15-.94 5.12-1.23 5.92.22-.08.5-.08.72-.08.22 0 .43 0 .58.08.07-.8.5-3.25.72-4.05.29-1.6.36-1.73.36-2.17 0-1.37-1.08-2.1-2.16-2.1-1.23 0-2.17.8-2.6 1.38h-.07l.29-1.3zm10.1 5.2c-.44.22-1.3.65-1.3 1.74 0 .72.57.94.8 1v.08c-.15.07-.44.22-.8.43a2.65 2.65 0 0 0-1.01 2.03c0 .65.29 1.23.72 1.59.5.5 1.22.65 1.95.65a3.83 3.83 0 0 0 3.96-3.76c0-.44-.07-1.08-.65-1.52-.57-.36-1.15-.36-2.88-.36-.5 0-1.16 0-1.16-.72 0-.5.44-.8.65-.94h.87c.5 0 1.37 0 2.1-.43a3.33 3.33 0 0 0 1.5-2.82c0-.8-.28-1.23-.43-1.45.37 0 .72.07 1.45.07v-.72c-.36.07-1.16.07-1.52.07-.36 0-.5 0-.8-.07a2.96 2.96 0 0 0-1.14-.22 3.22 3.22 0 0 0-3.4 3.26c0 1.44.87 1.8 1.09 1.95v.14zm.07-2.02c0-.94.58-2.82 2.16-2.82.8 0 1.3.65 1.3 1.66 0 1.01-.5 2.9-2.02 2.9-.65 0-1.44-.37-1.44-1.74zm-1.45 7.23c0-.44.08-1.3.87-1.89.5-.36 1.3-.43 1.66-.43.86 0 2.17.07 2.17 1.38 0 1.22-.94 2.74-2.82 2.74-1 0-1.88-.5-1.88-1.8zm20.28-4.34c-.3-2.82-.8-8.1-.87-10.55-.29 0-.5.07-.8.07-.2 0-.43-.07-.64-.07a223.2 223.2 0 0 1 1.3 12.72c.14-.07.29-.07.5-.07.22 0 .3 0 .44.07.21-.65.57-1.45.86-2.1.29-.58 1.66-3.4 1.95-4.04 1.15-2.46 1.3-2.68 1.95-4.05h.14c.07.29 1.08 8.67 1.15 10.19.15-.08.3-.08.44-.08s.36 0 .5.08a227.3 227.3 0 0 1 3.32-7.23c.14-.29 2.17-4.55 2.74-5.5-.21 0-.43.08-.65.08-.21 0-.36-.07-.5-.07-1.3 3.4-4.19 9.54-4.76 10.62h-.08c-.5-3.18-1.08-9.4-1.15-10.62-.07 0-.22.07-.36.07-.22 0-.36-.07-.43-.07-.73 1.59-4.4 9.6-4.9 10.55h-.15zm16.16-4.34h.21c.58-.65 1.16-1.15 1.95-1.15.86 0 1.59.5 1.59 1.52 0 .5-.08 1.08-.5 1.3-.3.14-.88.21-1.24.28-1 .22-3.39.65-3.39 2.82 0 1.23 1.01 1.88 1.95 1.88s1.73-.58 2.38-1.3c.07.65.36 1.16 1.01 1.16.44 0 .8-.22 1.16-.5l-.08-.37c-.07.07-.21.14-.43.14-.36 0-.58-.36-.58-.72s.08-.86.22-1.59l.43-2.1c.07-.28.22-.86.22-1.3 0-1.15-.87-1.95-2.17-1.95-.93 0-1.73.37-2.52.94l-.22.94zm-.22 4.56c0-1.38 1.3-1.88 2.3-2.1.44-.14.95-.22 1.38-.36-.22.8-.36 1.66-.43 2.46-.5.72-1.16 1.3-2.02 1.3-.65 0-1.23-.44-1.23-1.3zm11.04-7.88l-.29 1.8c-.29 0-.65 0-1.01-.07 0 .36 0 .5-.07.72.36 0 .72-.07 1-.07-.28 1.81-.36 2.02-.86 4.41-.07.58-.22 1.08-.22 1.52 0 1.08.87 1.66 1.66 1.66.58 0 1.23-.14 1.59-.5l.07-.51c-.29.21-.65.36-1 .36-.51 0-1.16-.36-1.16-1.23a17 17 0 0 1 .36-2.45l.65-3.26c.43 0 1.08.07 1.58.07 0-.21.08-.43.15-.72-.58.07-1.15.07-1.66.07.22-.79.36-1.58.58-2.38l-1.37.58zm11.1 8.38h-.06a3.6 3.6 0 0 1-2.31.94c-.87 0-2.24-.43-2.24-2.67 0-.44 0-.8.07-1.01h1.88c1.8 0 2.24 0 3.39.07.07-.3.22-.8.22-1.38 0-2.1-1.3-2.89-2.82-2.89-2.38 0-3.96 2.25-3.96 4.92 0 2.74 1.73 3.61 3.1 3.61.86 0 1.73-.29 2.52-.8l.22-.79zm-1.87-6.43c.8 0 1.66.5 1.66 2.1 0 .43 0 .72-.07.94-.58.07-1.44.07-2.1.07-.57 0-1.44-.08-2.08-.08.5-2.38 1.8-3.03 2.6-3.03zm10.9.94c0-.44.07-.8.14-1.38-1.23-.07-1.8 1.02-2.45 1.96h-.07c.07-.73.28-1.6.36-1.88-.15.07-.36.07-.58.07-.22 0-.43 0-.58-.07a83.8 83.8 0 0 1-1.59 8.24c.22-.08.44-.08.65-.08.22 0 .44 0 .58.08.14-1.09.87-4.63.94-4.99.36-1.3 1.15-2.02 1.87-2.02.22 0 .44.07.58.14l.15-.07z"
          clip-rule="evenodd"/>
</svg>