<svg xmlns="http://www.w3.org/2000/svg" viewBox="0 0 344 63.98"><path d="M335.89.67l-10.4 13.91h-.31L314.78.66h-8.1l15.45 19.66v14.45h6.41V20.32L344 .66h-8.11zm-46.02 13.91h-18.49V.64H265v34.13h6.4V20.52h18.48v14.25h6.38V.64h-6.39v13.94zM200.13.66h-5.94v23.3h-.15L173.35.66h-5.59v34.1h5.93v-23.4h.13l20.9 23.4h5.42V.67zm-49.4 28.19h-21.17V20.5h15.2v-5.9h-15.2V6.5h21.17V.67h-27.56v34.1h27.56v-5.91zm-59.59-2.58h-.17L80.74.67h-7.39l15.02 34.1h5.31L108.7.67h-7.4l-10.16 25.6zm-38.62 8.5h6.39V.67h-6.39v34.1zM16.97 22.13h10.95v5.94c-1.54.53-4.25 1.23-8.65 1.23-7.81 0-12.14-3.92-12.14-11.59 0-7.66 4.35-11.6 12.14-11.6 7.93 0 12 2.46 14.25 4.33V3.6C31.02 1.54 25.36 0 19.27 0 10.18 0 0 3.72 0 17.7c0 14 10.18 17.71 19.27 17.71 5.53 0 11.31-1.27 14.92-3.56V16.21H16.97v5.92zm198.37-4.43c0 13.99 10.17 17.7 19.26 17.7 6.1 0 11.74-1.53 14.26-3.6v-6.84c-2.25 1.87-6.33 4.33-14.26 4.33-7.79 0-12.13-3.92-12.13-11.59 0-7.66 4.34-11.58 12.13-11.58 7.93 0 12 2.46 14.26 4.33V3.6C246.34 1.54 240.69 0 234.6 0c-9.09 0-19.26 3.72-19.26 17.7zm-76.38 29.53h-5.26v16.4h2.14v-6.7h3.3c2.47 0 5.65-.8 5.65-4.96 0-4.33-3.83-4.74-5.83-4.74zm.18 8h-3.3v-6.3h3.3c1.54 0 3.51.6 3.51 3.16 0 2.16-1.41 3.13-3.5 3.13zm16.05-8l-6.42 16.4h2.21l1.65-4.38h7.6l1.61 4.39h2.3l-6.25-16.41h-2.7zm-1.95 10.32l2.18-5.67c.35-.92.68-1.9 1.03-2.81h.04c.33.92.63 1.89.98 2.81l2.18 5.67h-6.41zm28.11-5.92c0-3.02-2.23-4.4-5.06-4.4h-5.7v16.4h2.14v-7.42h3.58l3.42 7.42h2.55l-3.95-7.8a4 4 0 0 0 3.02-4.2zm-5.25 2.88h-3.37v-5.58h3.14c.95 0 3.35.11 3.35 2.86 0 1.27-.7 2.72-3.12 2.72zm12.96 9.13h2.13V47.23h-2.13v16.4zm17.28-8.53l-2.98-1.3c-1.07-.46-2.19-.96-2.19-2.58 0-1.5.86-2.65 2.9-2.65 1.2 0 2.59.44 2.99 1.98l2.09-.69c-.8-2.19-2.72-3-5.07-3-2.37 0-5.19 1.3-5.19 4.5 0 1.71.91 2.88 2.47 3.6l4 1.84c.6.28 1.74.83 1.74 2.6 0 1.39-1.11 2.86-3.2 2.86-2.22 0-3.15-1.38-3.45-2.53l-2.07.76c.35 1.22 1.7 3.48 5.33 3.48 4.72 0 5.67-3.07 5.67-4.61 0-2.83-2.02-3.82-3.04-4.26z"/></svg>