<svg xmlns="http://www.w3.org/2000/svg" width="124" height="28"><path d="M111.63 8.56l-.23.08a11.13 11.13 0 0 0-3.8-4.6 10.4 10.4 0 0 0-6.13-1.72 9.2 9.2 0 0 0-3.92.88 9.73 9.73 0 0 0-3.27 2.4 11.77 11.77 0 0 0-2.2 3.68 13.2 13.2 0 0 0-.84 4.8c0 1.74.28 3.34.84 4.79a12.21 12.21 0 0 0 2.2 3.72 10 10 0 0 0 3.27 2.36c1.25.56 2.55.84 3.92.84 2.44 0 4.41-.38 5.93-1.14a10.33 10.33 0 0 0 3.92-3.58l.23.08-.08 2.43a10.5 10.5 0 0 1-2.01 1.64c-.76.46-1.59.85-2.47 1.18-.87.3-1.77.53-2.7.68a16.5 16.5 0 0 1-8.4-.68 14.91 14.91 0 0 1-4.69-2.66 12.56 12.56 0 0 1-4.37-9.66c0-2 .39-3.82 1.18-5.45a12.82 12.82 0 0 1 3.2-4.22 13.96 13.96 0 0 1 4.67-2.66 16.5 16.5 0 0 1 5.59-.95c.94 0 1.88.08 2.82.23.93.15 1.83.4 2.7.72a11.7 11.7 0 0 1 4.48 2.78l.16 4.03zm-83.82 7.26c-.28.13-.54.3-.8.5-.25.2-.38.48-.38.84v4.68a12.5 12.5 0 0 1-4.68 4.07c-1.9.96-4 1.44-6.31 1.44a16.5 16.5 0 0 1-5.6-.95 14.89 14.89 0 0 1-4.67-2.66A12.57 12.57 0 0 1 1 14.08c0-2 .39-3.82 1.17-5.44a12.83 12.83 0 0 1 3.2-4.23 13.95 13.95 0 0 1 4.68-2.66A16.5 16.5 0 0 1 15.64.8c.94 0 1.88.08 2.81.23.94.15 1.84.4 2.7.72a11.65 11.65 0 0 1 4.5 2.78l.15 4.03-.23.08a11.12 11.12 0 0 0-3.8-4.6 10.4 10.4 0 0 0-6.13-1.72c-1.37 0-2.68.3-3.92.88a9.75 9.75 0 0 0-3.27 2.4 11.8 11.8 0 0 0-2.2 3.68 13.2 13.2 0 0 0-.84 4.8c0 1.72.26 3.3.8 4.75a12.15 12.15 0 0 0 2.2 3.73 9.55 9.55 0 0 0 7.23 3.23c2.64 0 4.9-.5 6.77-1.52v-7.11a.98.98 0 0 0-.42-.84c-.25-.2-.5-.37-.76-.5l.04-.19c.12.03.35.05.68.08l1.03.08h3.27a41.22 41.22 0 0 0 1.52-.16l.04.2zM55.36 1.6c-.25.13-.5.3-.76.5-.25.2-.4.58-.42 1.13l-.08 2.32c0 .92 0 1.96-.03 3.13l-.03 3.8v4.26a14.3 14.3 0 0 1-.61 4.22 9.1 9.1 0 0 1-1.52 2.93c-.61.78-1.3 1.4-2.06 1.86-.73.46-1.47.8-2.2 1.03-.71.25-1.39.4-2.02.46a13.3 13.3 0 0 1-5.67-.46 8.73 8.73 0 0 1-5.97-4.9 11.2 11.2 0 0 1-.91-4.72V8.9c0-1.21-.01-2.3-.04-3.27 0-.99 0-1.79-.03-2.4-.02-.55-.16-.93-.42-1.13-.25-.2-.5-.37-.76-.5l.03-.2c.13.03.33.06.61.09l.92.07c.33 0 .64.01.95.04h1.37a33.88 33.88 0 0 0 2.51-.19l.03.19c-.28.13-.54.3-.8.5-.23.2-.35.58-.38 1.13L37 5.63v11.53c0 2.76.64 4.8 1.94 6.12 1.29 1.32 3.2 1.98 5.74 1.98.73 0 1.57-.1 2.5-.27a6.97 6.97 0 0 0 4.72-3.8c.59-1.12.88-2.6.88-4.45 0-2-.01-3.72-.03-5.14 0-1.44-.02-2.67-.04-3.69a85.76 85.76 0 0 0-.11-4.68c-.02-.55-.16-.93-.42-1.14-.25-.2-.5-.36-.76-.5l.04-.18.95.15a15.62 15.62 0 0 0 1.94 0l.99-.15.02.19zm27.6 6.96l-.23.08a11.14 11.14 0 0 0-3.8-4.6 10.4 10.4 0 0 0-6.13-1.72 9.1 9.1 0 0 0-3.91.88 9.73 9.73 0 0 0-3.27 2.4 11.77 11.77 0 0 0-2.21 3.68 13.2 13.2 0 0 0-.84 4.8c0 1.74.28 3.34.84 4.79.56 1.44 1.3 2.68 2.2 3.72a10 10 0 0 0 3.28 2.36c1.24.56 2.55.84 3.91.84 2.44 0 4.42-.38 5.94-1.14a10.33 10.33 0 0 0 3.92-3.58l.22.08-.07 2.43c-.59.61-1.26 1.16-2.02 1.64a14.44 14.44 0 0 1-5.17 1.86 16.51 16.51 0 0 1-8.4-.68 14.91 14.91 0 0 1-4.69-2.66 12.55 12.55 0 0 1-4.38-9.66c.01-2 .4-3.82 1.19-5.45a12.85 12.85 0 0 1 3.2-4.22 13.97 13.97 0 0 1 4.67-2.66 16.68 16.68 0 0 1 11.1 0 11.69 11.69 0 0 1 4.5 2.78l.15 4.03zm40.13 18.14a8.55 8.55 0 0 0-1.56-.1c-.33 0-.65-.02-.95-.04h-2.28a60.28 60.28 0 0 0-1.56.15l-.04-.15c.26-.13.51-.3.76-.5.26-.2.4-.58.42-1.14.03-.6.04-1.24.04-1.9.02-.66.03-1.4.03-2.25V7.34c0-.83 0-1.56-.03-2.2 0-.66-.01-1.3-.04-1.9-.02-.56-.16-.94-.41-1.14-.26-.23-.51-.4-.77-.53l.04-.16a3 3 0 0 0 .65.12l.9.03c.34.03.65.04.96.04h1.33a33.74 33.74 0 0 0 2.51-.19l.03.15c-.27.13-.54.3-.8.54-.22.2-.35.58-.37 1.14l-.08 1.9v17.88l.08 1.9c.02.56.15.94.38 1.14.25.2.52.37.8.5l-.04.14z"/></svg>