<svg xmlns="http://www.w3.org/2000/svg" viewBox="10.63 8.86 708.66 467.49"><g fill="#CC071E"><path d="M508.65 23.04c25.74-12.64 38.5-10.98 38.78 1.83.35 16.65-2.11 38.79-3.89 54.8-9.55 87.06-25.51 158.2-26.71 247.58 42.04-108.85 77.28-184.5 122.7-277.66 14.41-29.7 23.62-24.14 35.46-29.4 46.1-20.54 47.82-7.96 41.81 17.15-22.36 93.01-79.62 385.86-88.37 430.96-2.52 13.04-16.7 7.51-20.37 2.41-16.41-22.7-34.94-23.06-32.89-38.17 10.3-75.18 47.37-263.8 57.03-308.25-49.25 100.97-100.33 227.2-126.58 298.77-5.55 15.2-15.68 14.08-21.97 2.96-8.87-15.62-26.08-23.6-28.94-42.05-8.98-58.69 10.3-170.55 12.98-241.32-26.83 77.3-71.84 227.4-91.58 295.2-8.12 28.07-35.23 23.49-28.03-3.86 29.98-113.8 94.56-315.08 122.47-387.44 6.58-17.04 23.8-16.47 38.1-23.5M345.17 9.09c-8.7-2.12-33.92 11.5-49.42 14.18-4.92.86-9.61 6.06-11.27 9.78a4444.57 4444.57 0 0 0-66.36 160.92 1690.86 1690.86 0 0 0-85.74 17C155.48 151.7 178.83 93.23 201.59 37c11.21-27.69-18.3-30.32-29.74-2.29A10878.04 10878.04 0 0 0 98.28 219a1823.82 1823.82 0 0 0-71.78 19.16c-18.25 5.27-19 10.13-11.1 21.07 4.35 6.1 13.33 5.48 17.45 9.82C43.49 280.3 49.95 293.75 69 295.8a5079.54 5079.54 0 0 0-49.37 137.44c-9.67 28.33 17.85 34.12 28.43 4.15 17.05-48.32 35-97.22 53.48-145.98 15.4-3.58 52.63-11.6 87-19.06-27.28 74.79-45.24 131.58-52.05 159.23-1.25 5.32.86 8.27 2 10.44 9.22 13.4 17.97 13.95 29.8 30.52 3.21 4.52 13.97 6.96 17.63-4.17 25.28-76.37 51.3-148.03 75.56-212.26 10.07-2.2 28.2-6.58 39.3-23.14 19.73-29.4 25.4-23.43 30.14-32.37 5.95-11.21 2-21.74-19.05-19.14 0 0-7.95.56-22.65 2.24 23.34-60.09 43.76-111.06 58.46-149.9 5.04-13.15 5.67-22.76-2.51-24.7"/><path d="M310.73 398.82c5.44 13.74 22.43 9.58 15.96-7-6.58-16.89-22.94-67.72-27.23-84.1-5.83-22.07 19.45-16.03 6.64-1.6-10.98 12.4-18.3 17.37-38.61 40.96-19.62 22.78-14.3 52.33 6.7 58.85 23.67 7.37 44.55-18.72 57.48-37.87 12.52-18.54.4-29.41-12.24-18.45-8.13 7.04-17.5 17.87-27 23.7-7.73 4.7-13.79-.35-3.5-14.52 11.96-16.41 25.35-30.16 35.3-45.67 20.3-31.6-19.85-49.82-37.12-29.3-9.27 10.95-6.92 21.7-4.4 30.91 4.05 14.77 19.16 61.92 28.02 84.1"/></g></svg>