<svg xmlns="http://www.w3.org/2000/svg" width="246.22" height="81.74">
    <path d="M225.75 69.09c-13 .08-25.37.19-28.81-.12-7-.6-11.61-5.16-12.15-11.86a62.29 62.29 0 0 1 0-11.51c.63-6.52 6.09-12.74 12.17-13 2.18-.12 8-.1 18.56-.06l30.72.06V19.83s-24.47 0-31.83-.06c-9.87 0-14.84-.05-18 .06a24.69 24.69 0 0 0-17.24 7.31c-4.27 4.33-6.82 11.21-7.2 18.17a89.25 89.25 0 0 0 0 11.59c.71 7.49 3.14 13.37 7.2 17.49a25.5 25.5 0 0 0 17.24 7.31c5.16.07 49.81 0 49.81 0V69s-13.56.05-20.48.12M87.07 20.51v12.73h30.31v48.25h12.79V33.24h30.31V20.51zM73.78 44.59a24.55 24.55 0 0 0-7.2-17.49c-4.89-5-12.35-7-17.24-7.3-4.25-.24-21-.16-24.91 0-5.54.23-9.57 1.89-11.59 3.4V0H0v81.71h12.78s-.25-33.45 0-37.09a13 13 0 0 1 11.72-12.1c5-.43 20.09-.31 24.82 0C55.81 33 60.6 38 61 44.88c.12 2.52 0 36.83 0 36.83h12.78V44.59"
          fill="#8cc751"/>
</svg>