<svg xmlns="http://www.w3.org/2000/svg" width="333.91" height="167.47">
    <path fill="#c41230"
          d="M157.74 167.35a330.76 330.76 0 0 1-34.09-2.72c-46.02-6.2-84.58-21.97-106.05-43.4-9.1-9.08-14.87-19.07-16.82-29.1a36.3 36.3 0 0 1-.78-8.4c0-3.52.15-5.12.78-8.39 1.28-6.6 4.32-13.4 8.8-19.7C19.72 41.4 37.5 28.7 60.83 19.07c38.9-16.05 89.82-22.4 139.4-17.4 58.22 5.87 106.1 27.12 125.11 55.5 8.69 12.97 10.82 27.06 6.17 40.83-2.69 7.96-7.9 15.9-15.24 23.23-20.34 20.3-56.14 35.6-99.1 42.38a325.83 325.83 0 0 1-59.43 3.74zm25.4-10.71c23.3-1.44 42.97-4.87 62.14-10.82 15.21-4.72 29.4-11.26 40.28-18.57 5.49-3.68 9.3-6.8 13.6-11.1 5.11-5.13 8.4-9.62 11.1-15.13 3-6.15 4.16-10.98 4.16-17.28 0-6.35-1.24-11.43-4.28-17.57-2.63-5.3-5.99-9.84-10.98-14.84-7.33-7.35-16.04-13.41-27.56-19.18-21.55-10.78-48.51-17.84-78.55-20.56a302.94 302.94 0 0 0-52.23 0c-42.23 3.8-78.48 16.34-100.91 34.9a93.12 93.12 0 0 0-10.05 10.14c-7.6 9.52-11.19 19.8-10.37 29.71.9 10.8 5.75 20.31 15.22 29.8 7.17 7.2 15.7 13.17 26.8 18.78 25.25 12.77 56.28 20.09 92.78 21.88 4.12.2 24.82.09 28.84-.16zm-118.4-30.58c-.2-.08-.52-.33-.72-.56-.36-.4-.37-.69-.41-39.36l-.05-38.97-.48-.5c-.46-.48-.58-.5-2.32-.55l-1.84-.06v-4.91l13.23-.05 13.22-.04.56.47.56.47v14.05c0 15.43-.04 14.86 1.07 14.86.7 0 .93-.3 4.77-5.74 10.16-14.42 15.75-22.27 16.25-22.81 1.25-1.35.68-1.3 13.55-1.3h11.52l.44.44c.54.54.74 1.28.5 1.8-.16.34-5.15 7.74-22.55 33.48-1.9 2.8-2.43 3.72-2.43 4.18 0 .48 1.24 2.33 6.52 9.78 23.32 32.91 23.4 33.02 23.47 33.69.05.5-.04.77-.39 1.18l-.45.53-12.03.05c-11.86.05-12.04.04-12.92-.33a4.73 4.73 0 0 1-1.34-.87c-.24-.27-5.73-7.9-12.18-16.96a1133.47 1133.47 0 0 0-12.03-16.7c-.45-.38-1.27-.2-1.53.32-.18.36-.23 4.07-.23 16.96v16.5l-.44.52-.44.5-10.26.05c-5.64.02-10.41-.04-10.61-.12zm91.36-.08a1.7 1.7 0 0 1-.77-.73c-.18-.38-.23-9.04-.23-39.26V47.22l-.53-.53c-.51-.52-.59-.53-2.27-.53h-1.74v-5.1h26.92l.6.53.6.53v83.01l-.51.5-.5.5-10.51.05c-8.42.03-10.62 0-11.06-.2zm39.13.03c-.56-.32-.8-.73-.81-1.36 0-.32 2.58-8.3 5.74-17.75a4667565.26 4667565.26 0 0 1 18.16-54.18 53.03 53.03 0 0 0 1.57-5.12c0-.27-.15-.69-.34-.92-.32-.39-.54-.44-2.14-.52l-1.8-.1-.04-2.5-.05-2.5h16.15c10.6 0 16.4.07 16.84.2.37.1.77.35.88.56.23.42 2.04 5.78 10.58 31.27 13.9 41.47 17.07 51.05 17.07 51.44 0 .64-.36 1.28-.85 1.5-.3.14-3.54.2-10.58.2-9.3 0-10.19-.03-10.76-.32a3.2 3.2 0 0 1-.96-.77c-.18-.25-1.6-4.39-3.14-9.2-14.69-45.78-14.28-44.53-14.61-44.9-.37-.4-.64-.4-1.02.02-.3.33-.87 2.07-8.85 27.24a12410.7 12410.7 0 0 1-7.66 24.06c-.82 2.61-1.18 3.23-2.1 3.62-.8.33-20.7.36-21.28.03z"/>
</svg>