<svg xmlns="http://www.w3.org/2000/svg" width="386" height="93" style="isolation:isolate"><defs><clipPath id="a"><path d="M0 0h386v93H0z"/></clipPath></defs><g clip-path="url(#a)"><path d="M150.99 92.68h2.58v-5.07h4.82c2.25 0 5.96 0 5.96-3.98 0-3.97-3.67-4.03-5.96-4.03h-7.41v13.08zm2.58-7.32v-3.62h5.37c1.5 0 2.79.12 2.79 1.8 0 1.66-1.3 1.82-2.79 1.82h-5.37zm13.87 7.33h2.75l1.41-2.98h7.66l1.4 2.98h2.72l-6.44-13.13h-2.98l-6.52 13.13zm5.25-5.17l2.78-5.97 2.77 5.97h-5.55zm17.17 5.23h2.59v-5.24h4.12l3.88 5.2h3.19l-4.08-5.37a3.72 3.72 0 0 0 3.7-3.88c0-3.2-2.24-3.91-5.4-3.91h-7.95l-.05 13.2zm2.59-7.33v-3.78h5.03c2.13 0 3.21.3 3.21 1.86s-1.1 1.86-3.2 1.86l-5.04.06zm18.9-5.86h2.58v13.12h-2.59V79.55zm20.94 3.97c-.41-1.14-1.49-2.17-4.64-2.17-1.77 0-3.53.45-3.53 1.66 0 .55.34 1.15 2.98 1.46l3.14.5c2.98.43 4.73 1.59 4.73 3.77 0 3.09-2.98 4.28-6.52 4.28-5.7 0-7.1-2.8-7.4-3.8l2.48-.77c.5 1 1.5 2.35 4.97 2.35 2.14 0 3.88-.7 3.88-1.83 0-.84-1-1.39-2.88-1.64l-3.18-.43c-3.06-.4-4.76-1.74-4.76-3.73 0-3.93 5.16-3.93 6.17-3.93 5.73 0 6.7 2.6 7.03 3.5l-2.47.78zm99.68-24.66c1.1 9.13 5.88 7.78 6.12 8.57 0 0-18.5 0-18.5-.06-.1-.32 5.32-.1 4.23-8.11L319 23.67c-.2-.95-.2-2-.74-1.8-.37.19-16.3 38.5-16.3 38.5-.23.62-.63.99-1.16.1-.38-.65-14.92-32.43-14.92-32.43-.71-1.59-1.98-4.12-2.18-4.57-.4-.8-1-.9-.92 1.79L279 61.36c-.9 6.28 5.07 5.8 4.98 6.2h-13.05c-.17-.3 4.4.27 5.4-6.34l4.32-39.84c-.31-7.73-5.76-7.3-5.76-7.95h13.78l.2.42 14.64 31.7c.2.4.32.6.43.8.43.92.38 1.54.9.34l14.34-33.3h13.25c.1.47-5.32.23-5.32 6.85l4.86 38.63zM29.73 65.63c12.76-.17 12.16-9.8 13-9.71l-2.18 11.56H1.07c0-.32 7.57-.44 7.68-5.79V21.3c0-6.61-7.13-6.8-6.8-7.25h22.27c-.47.5-7.7.53-7.7 6.96v41.95c0 3.08 3.11 2.58 5.72 2.68h7.48m84.08-3.72c.76 6.67 5.86 4.98 5.86 5.61h-14.28c0-.64 5.72 0 5.63-6.02V20.88c.1-7-6.06-7.02-6.2-7.55h14.34l29.7 36.53-.08-29.66c-.2-7.16-5.72-6.67-5.8-7.03h14.98c-.06.35-5.97.5-6.22 7.04l-.06 45.94s.52 3.48-1.62.74c-.93-1.2-35.7-44.93-35.7-44.93-.31-.37-.46 0-.5 1.12v38.24l-.05.6zM65.64 41.13c-1.45 0-1.25-.85-.7-2.19l5.47-13.52c.75-1.9 1.54-1.5 2.09.12l4.92 13.62c.48 1.51 1.07 1.99-.57 1.99H65.62m28.92 19.51L74.6 13.62c-1.46-1.59-2 .23-2 .23-1.98 4.53-20.22 48.16-20.22 48.16-2.49 5.82-5.72 5.13-5.72 5.53H59.6c0-.64-6.96.42-4.57-5.64l6.9-16.8c.72-1.07.8-1.34 2.48-1.34h12.93c1.57 0 1.65 0 2.33 1.56l6.53 15.9c1.91 6.37-3.9 5.97-3.82 6.41h18.35c.18-.55-2.78 1.28-6.12-6.83M241.5 4.08l-21.88 6.66L241.49 0l21.95 10.74-21.95-6.66zm0 61.4h-.2c-10.49 0-17.4-9.81-17.4-25.09 0-17.5 7.07-25.95 17.57-25.95 10.48 0 17.62 8.47 17.62 25.95 0 15.2-7.21 24.97-17.62 25.06m.12-53.08a27.67 27.67 0 0 0-28.11 27.9c0 14.38 10.94 27.21 27.96 27.21 17.03 0 28.35-12.79 28.35-27.19a27.7 27.7 0 0 0-28.18-27.9m-52.1 52.97c12.34-.2 17.9-8.73 18.99-9.11.53-.17-6.03 11.16-19.15 11.16-29.43 0-28.93-26.5-28.93-26.5.91-18.61 16.08-29.71 30.6-28.2a35 35 0 0 1 8.46 1.94c1.34.43 4.97 2.38 6.4 1.84 1-.4 1.75-2.49 2-2.63l.13 14.52c-1 0-4.28-13.96-18.3-13.96-11.47 0-20.19 13.06-20 25.85.3 21.34 15.29 25.2 19.8 25.11m167.92-24.6v20.3c0 4.04-.33 4.53 2.31 4.55h14.58c3.56-.22 5.84-1.12 7.3-2.28 3.36-2.64 2.57-6.6 3.25-6.74l-.34 10.84H343.6c-.16-.38 6.1.66 6.1-8.23v-37.4c0-8.94-5.77-7.55-5.7-8.25h40.57l.35 10.7c-.81-.05 1.33-8.39-10.74-9.12h-13.46c-2.33 0-3.29 0-3.29 4.44v11.54l.06 2.55c0 2 0 2.16 2.83 2.16h13.03c6.56 0 5.66-5.87 6.24-5.87V43.9c-.58 0 .28-6.47-5.97-6.27h-13.16c-2.89-.05-2.99 1-2.99 2.98l-.05.16z"/></g></svg>