<svg xmlns="http://www.w3.org/2000/svg" viewBox="0 0 283.46 116.19"><path xmlns="http://www.w3.org/2000/svg" fill="#fff" d="M22 0h238v90H22z"/><path xmlns="http://www.w3.org/2000/svg" fill="#fff" d="M200 0h70v32h-70z"/><path fill="#A8112E" d="M250.1 7.1a5.7 5.7 0 0 0 1.89-.44c.55-.24 1-.61 1.32-1.12.33-.5.5-1.2.5-2.1 0-.76-.15-1.37-.44-1.82-.3-.45-.68-.8-1.15-1.04-.46-.24-1-.41-1.6-.5l-.79-.08h-5.68v7.17h3.69a31 31 0 0 0 2.25-.08zm-13.35 13.16a15.67 15.67 0 0 0 11.45 4.78 15.51 15.51 0 0 0 11.35-4.78 16.23 16.23 0 0 0 3.38-5.27 17.66 17.66 0 0 0 1.22-6.63c0-2.31-.41-4.48-1.22-6.49-.27-.65-.58-1.27-.92-1.87h-5.52c.56.96.85 2.15.85 3.59 0 2.04-.57 3.54-1.71 4.49a7.7 7.7 0 0 1-4.26 1.69l6.5 10.02h-3.8l-6.18-9.76h-3.74v9.76h-3.53V0h-6.34a17.16 17.16 0 0 0-2.13 8.37c0 2.39.4 4.6 1.22 6.62a16.17 16.17 0 0 0 3.38 5.27zM99.88 38.85c-4.93 0-7.53 3.84-7.59 7.78h15.83c0-4.64-2.94-7.78-8.24-7.78zM265.76 0c.11.24.25.48.36.73a18.74 18.74 0 0 1 1.56 7.64c0 2.8-.52 5.4-1.56 7.77a19.72 19.72 0 0 1-4.2 6.17 18.95 18.95 0 0 1-6.19 4.08 19.6 19.6 0 0 1-7.53 1.46 19.74 19.74 0 0 1-13.8-5.54 19.16 19.16 0 0 1-5.8-13.95c.02-2.73.54-5.27 1.58-7.63.1-.25.24-.49.36-.73H0l27.26 116.19c57.22-36.8 112.22-1.44 114.44-.09h.07c2.21-1.35 57.21-36.71 114.44.09L283.46 0h-17.7zM74.9 70.54H37.64v-38.8H54.4v28.24H74.9v10.56zm50.11-16.1H92.32c0 5.05 4.28 8.86 9.97 8.86 3.4 0 6.48-1.12 8.66-4.15H124c-4.26 9.79-12.53 12.57-23.8 12.57-14.65 0-25.01-7.93-25.01-20.5 0-13.43 10.2-20.5 25.01-20.5 16.57 0 24.88 10.73 24.88 21.06 0 .86.07 1.72-.06 2.66zm30.33 16.16h-14.12l-21.07-38.9h19.02l12.09 23.65.33.71.3-.71 11.32-23.65h11.42l-19.3 38.9zm37.22-.07h-16.15v-38.9h16.15v38.9zM204.7 36.5l-4.87 5.3h-2.02l2.23-5.77h-4.46v-7.7h9.12v8.17zm21.2 35.13c-17.26 0-20.4-9.97-20.4-12.44H218c0 1.45 1.96 3.2 3.62 3.9 1.37.58 2.9.7 4.32.7 3.52 0 6.4-.85 6.4-2.9 0-2.49-2.95-3.04-6.22-3.5-8.87-1.29-21.31-2.78-21.31-12.7 0-9.27 10.11-13.98 20.85-13.98 17.18 0 21.74 9.52 21.74 12.27h-12.7c0-.82-.63-2.4-2.37-3.3a11.43 11.43 0 0 0-5-1.22c-4.74 0-7.41.99-7.41 3.17 0 1.77 2.4 2.65 5.86 3.25 9.02 1.55 22.88 2.08 22.88 13.06 0 5.58-4.83 13.7-22.76 13.7z"/></svg>