<svg xmlns="http://www.w3.org/2000/svg" width="1000" height="304.26"><path d="M.5 215.01V4.94h36.9v210.07zm131.36-152.4C84.55 62.61 51.8 99 51.8 140.63c0 46.47 35.61 78.48 80.42 78.48 42.52 0 79.41-31.42 79.41-78.58 0-39.66-30.57-77.92-79.78-77.92zm-.44 35.6c24.76 0 42.99 19.28 42.99 42.55a42.52 42.52 0 0 1-42.32 42.69c-26.26 0-42.78-20.82-42.78-42.62 0-23.9 18.66-42.62 42.11-42.62zm172.94-35.6c-47.31 0-80.05 36.38-80.05 78.02 0 46.47 35.61 78.48 80.42 78.48 42.52 0 79.41-31.42 79.41-78.58 0-27.77-12.02-40.1-12.02-40.1l10.22-3.5V66.98h-52.4s-11.37-4.37-25.58-4.37zm-.44 35.6c24.76 0 42.99 19.28 42.99 42.55a42.52 42.52 0 0 1-42.32 42.69c-26.26 0-42.78-20.82-42.78-42.62 0-23.9 18.66-42.62 42.11-42.62zm42.73 127.07a42.64 42.64 0 0 1-42.32 42.82c-26.26 0-42.85-21.02-42.85-42.82h-37.44c0 46.47 35.62 78.48 80.42 78.48 42.52 0 79.42-31.32 79.42-78.48zm52.27-10.27V66.98h36.9v148.03zm72.74 0V100.14h-19.8V66.98h19.8V21.52h36.9v45.46h20.32v33.16h-20.32V215zM441.73 24.94a24.44 24.44 0 1 1-48.87 0 24.44 24.44 0 0 1 48.87 0zm170.11 37.57c-47.54 0-78.18 36.4-78.18 79.46 0 44.49 30.75 77.24 78.95 77.24 44.96 0 67.08-28.08 67.08-28.08l-24.67-24.7s-18.62 20.09-41.94 20.09c-19.45 0-35-10.85-40.41-30.75h114.98v-10.16c0-40.55-23.47-83.1-75.81-83.1zm-1.17 32.5c17 0 34.38 9.09 38.27 30.81h-77.28c3.06-15.27 16.42-30.82 39-30.82zm169.28 124.22c-47.67 0-80.16-36.3-80.16-79.12 0-44.18 36.72-77.62 80-77.62 41.85 0 63.27 29.54 63.27 29.54l-25.74 25.62s-14.91-19.26-37.7-19.26c-25.26 0-42.53 19.32-42.53 42.29 0 24.25 18.37 42.86 42.24 42.86 23.16 0 37.96-19.24 37.96-19.24l26 25.61s-21.22 29.32-63.34 29.32zm76.75-4.11V4.4h36.91v77.41s14.13-19.33 44.87-19.33c38.63 0 61.02 28.72 61.02 65.46v87.17h-36.9v-81.6c0-24.68-15.37-34.92-32.39-34.92-19.4 0-36.6 11.04-36.6 36.83v79.69z"/></svg>