<svg xmlns="http://www.w3.org/2000/svg" width="800" height="144.75" version="1">
    <path d="M435.23 135.01h103.24V122.4h-85.54V82.05h64.25V69.29h-64.25V32.12h85.54V19.55H435.23v115.46M488.88.89l-13.98 15.7L518.78.89h-29.9M711.77 122.4V19.55h-16.13v115.46H800V122.4h-88.23M605.36 19.55l-58.7 115.46h19.84l15.01-29.88h70.41L667.07 135h19.64L627.96 19.55h-22.6m-16.41 71.1L616.6 35.5l27.99 55.15h-55.65zm-209.74-3.92c26.45-7.06 29.02-26.74 28.89-33.78-1.58-20.62-15.48-33.4-40.45-33.4h-72.77v115.46h16.59V86.58h47.37L393.7 135h20.9s-25.08-32.6-35.39-48.28m-13.82-13.8h-53.92v-39.7h55.8c12.84 0 20.07 6 22.67 13.61 1.72 5.22.62 12.08-2.23 16.75-4.66 7.71-13.52 9.35-22.32 9.35zM195.19 0c-46.83 0-78.75 33.02-78.75 72.98 0 42.07 35.26 71.77 78.75 71.77 43.46 0 78.7-29.28 78.7-71.77 0-39.96-32.31-72.98-78.7-72.98m-.56 130.42c-32.4 0-59.1-26.04-59.1-57.4 0-31.32 25.44-58.6 60.35-58.6a58.6 58.6 0 0 1 59.08 58.6c0 31.36-27.95 57.4-60.33 57.4zM74.66 60.4h11.97l21.73-40.85H90.88L74.66 60.4m-58.52 62V19.55H0v115.46h104.36V122.4H16.14"/>
</svg>