<svg xmlns="http://www.w3.org/2000/svg" viewBox="0 0 376 36"><path d="M28 24.4V.6h-3.2s-9.1 17.5-10.2 19.7C13.4 18.1 4.3.6 4.3.6H1v23.8h2.8V6.2c2 3.8 9.5 18.2 9.5 18.2h2.3S23.1 10 25.1 6.2v18.2H28zM101.8.6l-8.7 11.2L84.5.6h-3.8s10.6 13.5 10.9 13.9v9.9h2.8v-9.9c.3-.4 10.9-13.9 10.9-13.9h-3.5zm78.9 0h-18v23.8h18.9v-2.7h-16.1v-8.2h15.3v-2.8h-15.3V3.3h15.9V.6zm28.5 0h-2.1v23.8h17.2v-2.7h-14.4V.6zm38.5 0h-2.1v23.8h17.2v-2.7h-14.4V.6zm38.7 0h-2.2v23.8h2.9V.6zm42.8 0v19.1L313.8.6H311v23.8h2.8V5.3l15.4 19.1h2.8V.6h-2.8zm42.8 0h-18.1v23.8h19v-2.7h-16.1v-8.2H372v-2.8h-15.2V3.3h15.9V.6z"/><path fill="none" d="M139 6.9c0-3.3-2.2-3.6-5.1-3.6h-8.8v7.4h9c3.3 0 4.9-1.2 4.9-3.8zm235.8-3.7c.6 0 1.1-.5 1.1-1.2s-.5-1.2-1.1-1.2c-.6 0-1.1.5-1.1 1.2s.4 1.2 1.1 1.2zm-.6-2h.6c.4 0 .6.1.6.5 0 .3-.2.4-.4.4l.5.7h-.3l-.4-.7h-.3v.7h-.2V1.2z"/><path fill="none" d="M375.2 1.6c0-.2-.2-.2-.3-.2h-.3v.5h.3c.1 0 .3 0 .3-.3zM133.8 13.5H125v8.2h9.2c3.7 0 5.5-1.4 5.5-4.3 0-3.6-2.8-3.9-5.9-3.9zM56.2 4.7c-.9 2-3.7 8.3-4.4 9.8h8.8c-.7-1.5-3.5-7.7-4.4-9.8z"/><path d="M50.6 17.2h11.2c.3.8 3.2 7.2 3.2 7.2h3.2L57.4.6h-2.5L44.2 24.4h3.2s2.8-6.4 3.2-7.2zm5.6-12.5c.9 2 3.7 8.3 4.4 9.8h-8.8c.7-1.5 3.5-7.7 4.4-9.8zm85.6 2.1c0-4-2.6-6.2-7.1-6.2h-12.5v23.8h12.3c5.9 0 8-3.5 8-6.9 0-1.1-.3-4.3-3.4-5.7 1.8-.9 2.7-2.7 2.7-5zm-16.7-3.5h8.8c2.9 0 5.1.3 5.1 3.6 0 2.6-1.6 3.8-4.9 3.8h-9V3.3zm14.6 14.1c0 2.8-1.9 4.3-5.5 4.3H125v-8.2h8.8c3.1 0 5.9.3 5.9 3.9zM373.4 2c0 .8.6 1.4 1.4 1.4.8 0 1.4-.6 1.4-1.4 0-.8-.6-1.4-1.4-1.4-.8 0-1.4.6-1.4 1.4zm1.4-1.2c.6 0 1.1.5 1.1 1.2s-.5 1.2-1.1 1.2c-.6 0-1.1-.5-1.1-1.2s.4-1.2 1.1-1.2z"/><path d="M374.5 2.1h.3l.4.7h.3l-.5-.7c.2 0 .4-.2.4-.4 0-.3-.2-.5-.6-.5h-.6v1.6h.2v-.7zm0-.7h.3c.2 0 .3 0 .3.2s-.2.3-.4.3h-.3v-.5zM251.8 28.2v5.6l-4.5-5.6h-1.8v7.6h1.7v-5.6l4.4 5.6h1.8v-7.6zm13.2 0v7.6h7.1v-1.1h-5.4v-2.3h4.9v-1h-4.9v-2h5.3v-1.2zm28 0l-1.8 5.8-1.9-5.8h-1.8l-1.9 5.8h-.1l-1.7-5.8h-1.7l2.5 7.6h1.8l2-5.8 1.9 5.8h1.7l2.7-7.6zm24 0l-2.5 3.4-2.6-3.4H310l3.6 4.6v3h1.7v-3l3.6-4.6z"/><path fill="none" d="M335.4 32c0-1.5-.9-2.9-2.9-2.9-2.1 0-2.9 1.4-2.9 2.9s.9 2.9 2.9 2.9 2.9-1.4 2.9-2.9zm16.1-2.7h-2.8v2.4h2.8c1.1 0 1.7-.4 1.7-1.2 0-1-.8-1.2-1.7-1.2z"/><path d="M337.1 32c0-2.2-1.7-4-4.6-4-2.9 0-4.6 1.8-4.6 4s1.7 4 4.6 4c2.8 0 4.6-1.8 4.6-4zm-7.6 0c0-1.5.9-2.9 2.9-2.9 2.1 0 2.9 1.4 2.9 2.9s-.9 2.9-2.9 2.9c-2.1 0-2.9-1.4-2.9-2.9zm23.8.2c.3-.1 1.6-.5 1.6-1.9 0-1.3-1.1-2-3.2-2H347v7.6h1.7v-3.1h2.5c1.6 0 1.9.6 1.9 2 0 .4 0 .8.3 1.1h1.8c-.4-.3-.5-1.1-.5-2 0-1.3-.9-1.6-1.4-1.7zm-1.8-.5h-2.8v-2.4h2.8c.9 0 1.7.2 1.7 1.2 0 .8-.6 1.2-1.7 1.2zm19.4-3.5l-4.3 3.5v-3.5h-1.7v7.6h1.7v-2.5l1.4-1.1 3.2 3.6h2.1l-4.1-4.6 3.8-3z"/></svg>