<svg xmlns="http://www.w3.org/2000/svg" width="384.4" height="69.03">
    <path d="M.4 37.7L.79 6.37l3-3 3-3L49 .19C90.26 0 91.3 0 93.87 1.59a12.57 12.57 0 0 1 4.15 5c1.41 3.11 1.52 5.48 1.54 32.91v29.55H85.29V41.31c0-24.14-.16-27.87-1.25-29s-3.49-1.25-14.28-1.25h-13V69H43.24V11.11H29.88c-11.94 0-13.5.15-14.68 1.45s-1.31 4.48-1.31 29V69H0l.4-31.3zm119.2 29.74a14.86 14.86 0 0 1-4.16-4.16c-1.49-2.44-1.58-4-1.58-28.77s.09-26.33 1.58-28.77a14.86 14.86 0 0 1 4.16-4.16C122.06.08 123.65 0 153.32 0h31.14v11.11h-54.65l-1.24 1.76c-.89 1.27-1.24 3.71-1.24 8.72v7l27.06.21 27.06.21v11.06l-27.06.21-27.06.21v7c0 5 .35 7.45 1.24 8.72l1.24 1.76h54.65V69h-31.14c-29.67 0-31.26-.08-33.73-1.58zm79.94-32.93V0h14.28v69h-14.28V34.51zM230 67.87a7.61 7.61 0 0 1-2.69-8.69c.94-2.84 3.89-5.65 32.11-30.52 6.13-5.41 13.05-11.56 15.38-13.69l4.2-3.86h-50.11V0h63.59l2.32 2.32a7.18 7.18 0 0 1 .68 9.87c-.9 1.15-10.63 10-21.62 19.74s-21.94 19.53-24.34 21.81l-4.37 4.15h51.18V69H264c-27.08 0-32.62-.19-34-1.16zm84.53-.64C309.07 63.59 309 63.35 309 30V0h13.49v27.37c0 26.31.06 27.43 1.59 29s2.64 1.59 22.89 1.59c19.63 0 21.4-.11 22.61-1.45s1.31-4.48 1.31-29V0h13.51v30.65c0 29.35-.07 30.76-1.6 33.24-3.12 5-3.76 5.14-36.29 5.14-29.16 0-29.33 0-32-1.8z"
          fill="#21bbef"/>
</svg>