<svg xmlns="http://www.w3.org/2000/svg" width="68.97" height="46.83" data-name="图层 1"><path fill="#fff" d="M66.55 16.87L59.9 7a1.09 1.09 0 0 0-.9-.44l-4.37-.1a1.09 1.09 0 0 0-1.09 1.09v5.35c-2.73-4.22-8.6-5.2-8.66-5.21A1.12 1.12 0 0 0 44 8a1.28 1.28 0 0 0-.29.42 1.09 1.09 0 0 0-.45 0l-5 .83a1.09 1.09 0 0 0-.92 1.09v4.19l-5.41-2.38a1.11 1.11 0 0 0-1.16.18 1.09 1.09 0 0 0-.36.66l-.16-.08a1.11 1.11 0 0 0-.93.07l-.77.44a10.67 10.67 0 0 0 2.69-3.14c2.37-4.15-1-8.35-3.14-10a1.1 1.1 0 0 0-1.1-.2 1.09 1.09 0 0 0-.66.86 12.64 12.64 0 0 1-2.62 5.5c-2.31 3-1.14 5.07 0 7.11l.49.9a1.07 1.07 0 0 0 1 .58h.26a5.71 5.71 0 0 0 .53-.23l-.51.29a1.09 1.09 0 0 0-.46 1.38l.33.77a5.87 5.87 0 0 0-2.59-.56 12.47 12.47 0 0 0-7.39 3 1.09 1.09 0 0 0-.38 1.14 1.1 1.1 0 0 0-.9.23l-3.4 2.82a1.09 1.09 0 0 0-.38.66l-.4-.44a1.11 1.11 0 0 0-1.11-.31 1.09 1.09 0 0 0-.77.85L6.87 30.8l-5.49-1.48a1.11 1.11 0 0 0-1.06.28A1.09 1.09 0 0 0 0 30.67L4.27 46a1.1 1.1 0 0 0 1.52.7l4.46-2.07a1.1 1.1 0 0 0 .56-1.38L9.3 39.33l1.76.71A1.11 1.11 0 0 0 12 40a1.09 1.09 0 0 0 .57-.71l.43-1.8 2.63 3a1.1 1.1 0 0 0 .77.37 1.09 1.09 0 0 0 .75-.3l3.43-3.23.09-.09a1.79 1.79 0 0 0 .58-1.24 1.81 1.81 0 0 0 1.42.23l4.25-1.11a1.1 1.1 0 0 0 .77-1.4l-.32-1 3 1.39a1.09 1.09 0 0 0 1.43-.5l2.06-4 .43-.86a1.88 1.88 0 0 0 .16-.47 1.79 1.79 0 0 0 .69.14h.72l3.47-.09a1.07 1.07 0 0 0 .83-.42 1.05 1.05 0 0 0 .2-.92L40 25.11l3.32 2.53a1.11 1.11 0 0 0 1.16.11 1.07 1.07 0 0 0 .49-.51 1.12 1.12 0 0 0 .42 0s5.49-.5 8.14-4.57v1.1a1.09 1.09 0 0 0 .49.92 1.12 1.12 0 0 0 1 .09l4.64-2a1.1 1.1 0 0 0 .65-1.14l-.26-2 .19-.09.82 1.3a1.12 1.12 0 0 0 .74.49 1.11 1.11 0 0 0 .86-.21l3.67-2.84a1.09 1.09 0 0 0 .23-1.48"/><path fill="#0a7043" d="M5.32 45.73L1.09 30.38l6.63 1.78 1.37-7.33 10.77 11.71-3.43 3.23-4.01-4.57-.95 3.83-4.08-1.66 2.39 6.29m1.59-18.96l3.4-2.82 5.44 9.97-1.89 1.57m14.85-4.8l-7.25-2.38a6.47 6.47 0 0 0 .85-5.83c-1.1-3.43-5.84-3.65-10.67.17l6.51 14.55 4-1-1.08-3.36 5.3 2.42m-8.38-8l-1.36-2.68s2.54-2.17 1.36 2.68"/><path fill="#0a7043" d="M26.08 16.04l3.79-2.17 3.91 11.47-3.39.76m1.11-13.02l4.11 14.23 3.72-.09-1.14-4.84 5.74 4.39-.52-17.34-5 .83.05 5.88m6.24-7.37l.54 17.42s8.41-.73 8.56-8.34-9.1-9.08-9.1-9.08m3.55 10.75l-.13-3.41s2.93.29.13 3.41M59 7.66l-4.35-.1-.08 16.26 4.64-2-.35-2.77 1.78-.86L62 20.32l3.67-2.83m-7.58-2.12l.07-2.89 1.24 2.25z"/><path fill="#fff" d="M25.2 13.94c-1.31-2.5-2.74-4.07-.59-6.84a13.75 13.75 0 0 0 2.84-6s5.39 4.18 2.86 8.6a9 9 0 0 1-5.11 4.26"/><path fill="#0a7043" d="M25.2 13.94c-1.31-2.5-2.74-4.07-.59-6.84a13.75 13.75 0 0 0 2.84-6s5.39 4.18 2.86 8.6a9 9 0 0 1-5.11 4.26m42.27 1.38a1 1 0 0 1 1.4.5 1.07 1.07 0 0 1-1.94.9 1 1 0 0 1 .53-1.4m.08.19a.83.83 0 0 0 .72 1.5.8.8 0 0 0 .37-1.03.81.81 0 0 0-1.08-.42zm.46 1.32l-.22.1-.46-.95a2.34 2.34 0 0 1 .35-.2.56.56 0 0 1 .36-.08.27.27 0 0 1 .19.16.28.28 0 0 1-.09.31c.11 0 .19 0 .28.15a.88.88 0 0 0 .17.2l-.23.11a.87.87 0 0 1-.18-.2c-.06-.09-.14-.11-.26-.05h-.1zm-.24-.53h.1c.12-.06.2-.14.16-.24s-.13-.11-.27 0l-.12.07z"/></svg>