<?xml version="1.0" encoding="UTF-8"?>
<!DOCTYPE svg PUBLIC "-//W3C//DTD SVG 1.1//EN" "http://www.w3.org/Graphics/SVG/1.1/DTD/svg11.dtd">
<svg xmlns="http://www.w3.org/2000/svg" version="1.1" width="403px" height="310px"
     style="shape-rendering:geometricPrecision; text-rendering:geometricPrecision; image-rendering:optimizeQuality; fill-rule:evenodd; clip-rule:evenodd"
>
    <g>
        <path style="opacity:0.124" fill="#015498"
              d="M 235.5,11.5 C 237.833,11.5 240.167,11.5 242.5,11.5C 242.5,12.1667 242.5,12.8333 242.5,13.5C 240.167,13.5 237.833,13.5 235.5,13.5C 235.5,12.8333 235.5,12.1667 235.5,11.5 Z"/>
    </g>
    <g>
        <path style="opacity:1" fill="#004cc9"
              d="M 235.5,13.5 C 237.833,13.5 240.167,13.5 242.5,13.5C 248.311,14.7617 250.977,18.4283 250.5,24.5C 250.203,27.0119 249.537,29.3452 248.5,31.5C 242.072,35.2896 235.738,35.2896 229.5,31.5C 225.496,26.1076 225.83,20.7743 230.5,15.5C 231.85,14.0499 233.516,13.3832 235.5,13.5 Z"/>
    </g>
    <g>
        <path style="opacity:0.032" fill="#025b6e"
              d="M 242.5,11.5 C 249.57,12.9087 252.903,17.242 252.5,24.5C 253.46,32.8665 249.794,37.1998 241.5,37.5C 243.833,35.5 246.167,33.5 248.5,31.5C 249.537,29.3452 250.203,27.0119 250.5,24.5C 250.977,18.4283 248.311,14.7617 242.5,13.5C 242.5,12.8333 242.5,12.1667 242.5,11.5 Z"/>
    </g>
    <g>
        <path style="opacity:0.024" fill="#025a6a"
              d="M 235.5,11.5 C 235.5,12.1667 235.5,12.8333 235.5,13.5C 233.516,13.3832 231.85,14.0499 230.5,15.5C 225.83,20.7743 225.496,26.1076 229.5,31.5C 231.113,33.9563 233.113,35.9563 235.5,37.5C 227.927,36.5862 224.26,32.2529 224.5,24.5C 224.26,16.7471 227.927,12.4138 235.5,11.5 Z"/>
    </g>
    <g>
        <path style="opacity:0.765" fill="#0451ae"
              d="M 229.5,31.5 C 235.738,35.2896 242.072,35.2896 248.5,31.5C 246.167,33.5 243.833,35.5 241.5,37.5C 239.5,37.5 237.5,37.5 235.5,37.5C 233.113,35.9563 231.113,33.9563 229.5,31.5 Z"/>
    </g>
    <g>
        <path style="opacity:0.306" fill="#3f6c4a"
              d="M 206.5,37.5 C 206.833,37.5 207.167,37.5 207.5,37.5C 207.5,38.1667 207.5,38.8333 207.5,39.5C 199.833,38.1667 192.167,38.1667 184.5,39.5C 184.611,38.8826 184.944,38.3826 185.5,38C 192.492,37.5004 199.492,37.3337 206.5,37.5 Z"/>
    </g>
    <g>
        <path style="opacity:1" fill="#ea972c"
              d="M 207.5,39.5 C 215.386,41.4439 222.052,45.4439 227.5,51.5C 227.631,52.3764 227.298,53.0431 226.5,53.5C 221.714,52.0909 221.38,52.7576 225.5,55.5C 221.693,57.7669 221.693,59.9336 225.5,62C 222.854,62.4974 220.187,62.6641 217.5,62.5C 207.828,62.3335 198.161,62.5002 188.5,63C 187.944,63.3826 187.611,63.8826 187.5,64.5C 185.833,64.5 184.167,64.5 182.5,64.5C 179.29,64.8697 176.623,66.203 174.5,68.5C 171.607,70.114 168.607,71.4473 165.5,72.5C 161.963,73.0475 158.796,74.3809 156,76.5C 155.502,73.5184 155.335,70.5184 155.5,67.5C 160.526,53.4757 170.193,44.1424 184.5,39.5C 192.167,38.1667 199.833,38.1667 207.5,39.5 Z"/>
    </g>
    <g>
        <path style="opacity:0.085" fill="#135d5d"
              d="M 207.5,37.5 C 221.88,40.2074 232.214,48.2074 238.5,61.5C 237.508,61.3284 236.842,61.6618 236.5,62.5C 234.218,58.2823 231.218,54.6156 227.5,51.5C 222.052,45.4439 215.386,41.4439 207.5,39.5C 207.5,38.8333 207.5,38.1667 207.5,37.5 Z"/>
    </g>
    <g>
        <path style="opacity:0.01" fill="#115962"
              d="M 249.5,43.5 C 257.642,43.4807 260.808,47.4807 259,55.5C 258.5,57.3333 257.333,58.5 255.5,59C 246.505,61.1025 243.005,57.6025 245,48.5C 245.743,46.068 247.243,44.4013 249.5,43.5 Z"/>
    </g>
    <g>
        <path style="opacity:0.991" fill="#ce5567"
              d="M 250.5,45.5 C 257.309,46.7861 258.976,50.4527 255.5,56.5C 248.153,58.486 245.486,55.8193 247.5,48.5C 248.77,47.7124 249.77,46.7124 250.5,45.5 Z"/>
    </g>
    <g>
        <path style="opacity:1" fill="#e8943d"
              d="M 227.5,51.5 C 231.218,54.6156 234.218,58.2823 236.5,62.5C 236.992,64.8185 237.992,66.8185 239.5,68.5C 238.306,69.2719 237.306,70.2719 236.5,71.5C 234.372,70.0427 232.038,69.0427 229.5,68.5C 225.78,65.8276 221.78,63.8276 217.5,62.5C 220.187,62.6641 222.854,62.4974 225.5,62C 221.693,59.9336 221.693,57.7669 225.5,55.5C 221.38,52.7576 221.714,52.0909 226.5,53.5C 227.298,53.0431 227.631,52.3764 227.5,51.5 Z"/>
    </g>
    <g>
        <path style="opacity:1" fill="#a08e5a"
              d="M 217.5,62.5 C 221.78,63.8276 225.78,65.8276 229.5,68.5C 215.981,63.4489 201.981,62.1156 187.5,64.5C 187.611,63.8826 187.944,63.3826 188.5,63C 198.161,62.5002 207.828,62.3335 217.5,62.5 Z"/>
    </g>
    <g>
        <path style="opacity:1" fill="#1e836e"
              d="M 229.5,68.5 C 231.65,70.7133 230.984,72.5466 227.5,74C 228.381,74.7083 229.047,75.5416 229.5,76.5C 209.132,67.0304 188.798,67.1971 168.5,77C 167.29,78.0391 166.29,79.2058 165.5,80.5C 163.167,81.8333 160.833,83.1667 158.5,84.5C 159.082,83.0689 159.915,81.7356 161,80.5C 165.438,76.3751 169.938,72.3751 174.5,68.5C 177.899,68.3915 180.566,67.0582 182.5,64.5C 184.167,64.5 185.833,64.5 187.5,64.5C 201.981,62.1156 215.981,63.4489 229.5,68.5 Z"/>
    </g>
    <g>
        <path style="opacity:1" fill="#a6914d"
              d="M 182.5,64.5 C 180.566,67.0582 177.899,68.3915 174.5,68.5C 176.623,66.203 179.29,64.8697 182.5,64.5 Z"/>
    </g>
    <g>
        <path style="opacity:1" fill="#fb5273"
              d="M 239.5,68.5 C 267.961,66.9656 283.961,80.299 287.5,108.5C 287.24,116.34 285.24,123.673 281.5,130.5C 279.457,131.579 278.124,133.246 277.5,135.5C 275.192,137.471 272.858,139.471 270.5,141.5C 269.833,132.5 269.167,123.5 268.5,114.5C 263.979,97.1007 254.312,83.434 239.5,73.5C 238.5,72.8333 237.5,72.1667 236.5,71.5C 237.306,70.2719 238.306,69.2719 239.5,68.5 Z"/>
    </g>
    <g>
        <path style="opacity:1" fill="#00cce0"
              d="M 229.5,76.5 C 231.674,76.7497 233.341,77.7497 234.5,79.5C 234.539,80.5832 234.873,81.5832 235.5,82.5C 240.519,84.1853 243.852,87.5186 245.5,92.5C 247.297,94.4491 249.297,96.1158 251.5,97.5C 251.765,101.853 252.265,106.187 253,110.5C 253.667,111.833 254.667,112.833 256,113.5C 258.447,126.009 257.781,138.342 254,150.5C 249.875,155.452 246.375,160.785 243.5,166.5C 237.782,169.38 232.448,172.88 227.5,177C 194.038,190.39 167.871,181.89 149,151.5C 147.184,144.903 145.684,138.237 144.5,131.5C 144.966,128.508 145.299,125.508 145.5,122.5C 147.512,123.014 149.512,123.18 151.5,123C 147.818,121.68 146.318,119.18 147,115.5C 147.92,115.07 148.753,114.736 149.5,114.5C 149.072,112.614 148.739,110.781 148.5,109C 149.444,107.523 150.777,106.523 152.5,106C 152.659,103.437 152.325,100.77 151.5,98C 152.682,95.7386 154.349,93.9053 156.5,92.5C 157.665,93.4911 158.832,94.4911 160,95.5C 160.5,95.3333 161,95.1667 161.5,95C 159.2,92.995 159.2,90.8283 161.5,88.5C 161.291,87.914 160.957,87.414 160.5,87C 161.999,84.6721 163.666,82.5054 165.5,80.5C 166.29,79.2058 167.29,78.0391 168.5,77C 188.798,67.1971 209.132,67.0304 229.5,76.5 Z"/>
    </g>
    <g>
        <path style="opacity:0.024" fill="#1b5964"
              d="M 238.5,61.5 C 240.308,62.9073 242.308,64.074 244.5,65C 275.721,67.5475 290.555,84.3809 289,115.5C 285.902,128.895 283.069,142.229 280.5,155.5C 280.5,154.167 280.5,152.833 280.5,151.5C 280.5,150.167 280.5,148.833 280.5,147.5C 282.465,141.9 282.798,136.233 281.5,130.5C 285.24,123.673 287.24,116.34 287.5,108.5C 283.961,80.299 267.961,66.9656 239.5,68.5C 237.992,66.8185 236.992,64.8185 236.5,62.5C 236.842,61.6618 237.508,61.3284 238.5,61.5 Z"/>
    </g>
    <g>
        <path style="opacity:1" fill="#d1953a"
              d="M 155.5,67.5 C 155.335,70.5184 155.502,73.5184 156,76.5C 158.796,74.3809 161.963,73.0475 165.5,72.5C 163.39,77.2645 159.723,79.9311 154.5,80.5C 153.516,77.5719 153.183,74.5719 153.5,71.5C 153.66,69.847 154.326,68.5137 155.5,67.5 Z"/>
    </g>
    <g>
        <path style="opacity:1" fill="#576f6f"
              d="M 229.5,68.5 C 232.038,69.0427 234.372,70.0427 236.5,71.5C 237.5,72.1667 238.5,72.8333 239.5,73.5C 239.492,76.5448 239.159,79.5448 238.5,82.5C 237.474,81.147 236.141,80.147 234.5,79.5C 233.341,77.7497 231.674,76.7497 229.5,76.5C 229.047,75.5416 228.381,74.7083 227.5,74C 230.984,72.5466 231.65,70.7133 229.5,68.5 Z"/>
    </g>
    <g>
        <path style="opacity:0.761" fill="#918e55"
              d="M 174.5,68.5 C 169.938,72.3751 165.438,76.3751 161,80.5C 159.915,81.7356 159.082,83.0689 158.5,84.5C 156.5,85.1667 154.5,85.8333 152.5,86.5C 152.179,81.3054 152.513,76.3054 153.5,71.5C 153.183,74.5719 153.516,77.5719 154.5,80.5C 159.723,79.9311 163.39,77.2645 165.5,72.5C 168.607,71.4473 171.607,70.114 174.5,68.5 Z"/>
    </g>
    <g>
        <path style="opacity:1" fill="#129fb1"
              d="M 234.5,79.5 C 236.141,80.147 237.474,81.147 238.5,82.5C 244.465,86.1026 248.798,91.1026 251.5,97.5C 249.297,96.1158 247.297,94.4491 245.5,92.5C 243.852,87.5186 240.519,84.1853 235.5,82.5C 234.873,81.5832 234.539,80.5832 234.5,79.5 Z"/>
    </g>
    <g>
        <path style="opacity:0.075" fill="#076267"
              d="M 206.5,37.5 C 199.492,37.3337 192.492,37.5004 185.5,38C 184.944,38.3826 184.611,38.8826 184.5,39.5C 170.193,44.1424 160.526,53.4757 155.5,67.5C 154.326,68.5137 153.66,69.847 153.5,71.5C 152.513,76.3054 152.179,81.3054 152.5,86.5C 154.5,85.8333 156.5,85.1667 158.5,84.5C 150.727,93.0407 144.727,102.707 140.5,113.5C 139.833,113.5 139.167,113.5 138.5,113.5C 139.758,102.79 143.591,93.1233 150,84.5C 149.585,59.927 161.085,44.0937 184.5,37C 188.644,36.3127 192.811,35.8127 197,35.5C 200.451,35.4205 203.618,36.0872 206.5,37.5 Z"/>
    </g>
    <g>
        <path style="opacity:1" fill="#625a6e"
              d="M 239.5,73.5 C 254.312,83.434 263.979,97.1007 268.5,114.5C 268.173,124.015 268.506,133.348 269.5,142.5C 269.167,143.5 268.5,144.167 267.5,144.5C 264.997,145.084 262.497,145.751 260,146.5C 258.97,146.164 258.47,145.497 258.5,144.5C 260.946,133.845 260.946,123.178 258.5,112.5C 257.124,107.033 254.791,102.033 251.5,97.5C 248.798,91.1026 244.465,86.1026 238.5,82.5C 239.159,79.5448 239.492,76.5448 239.5,73.5 Z"/>
    </g>
    <g>
        <path style="opacity:1" fill="#c035a1"
              d="M 208.5,94.5 C 217.294,95.2983 222.628,99.965 224.5,108.5C 224.5,113.167 224.5,117.833 224.5,122.5C 224.5,127.833 224.5,133.167 224.5,138.5C 224.167,138.5 223.833,138.5 223.5,138.5C 218.5,138.5 213.5,138.5 208.5,138.5C 208.5,123.833 208.5,109.167 208.5,94.5 Z"/>
    </g>
    <g>
        <path style="opacity:0.063" fill="#195861"
              d="M 124.5,76.5 C 139.191,75.6974 144.358,82.364 140,96.5C 134.146,102.077 127.646,102.91 120.5,99C 116.245,93.7198 115.412,87.8864 118,81.5C 119.805,79.1743 121.972,77.5077 124.5,76.5 Z"/>
    </g>
    <g>
        <path style="opacity:1" fill="#dc5666"
              d="M 123.5,79.5 C 135.506,77.0076 140.339,81.6742 138,93.5C 134.066,99.9625 128.9,101.129 122.5,97C 116.963,90.756 117.296,84.9226 123.5,79.5 Z"/>
    </g>
    <g>
        <path style="opacity:1" fill="#6769ab"
              d="M 208.5,94.5 C 208.5,109.167 208.5,123.833 208.5,138.5C 213.5,138.5 218.5,138.5 223.5,138.5C 218.695,139.487 213.695,139.821 208.5,139.5C 208.167,139.5 207.833,139.5 207.5,139.5C 207.171,124.324 207.504,109.324 208.5,94.5 Z"/>
    </g>
    <g>
        <path style="opacity:0.941" fill="#104492"
              d="M 140.5,135.5 C 140.5,136.167 140.5,136.833 140.5,137.5C 140.5,137.833 140.5,138.167 140.5,138.5C 140.167,138.5 139.833,138.5 139.5,138.5C 138.804,134.548 138.304,130.548 138,126.5C 137.059,128.727 135.892,130.727 134.5,132.5C 134.975,127.888 136.308,123.555 138.5,119.5C 139.167,124.985 139.833,130.319 140.5,135.5 Z"/>
    </g>
    <g>
        <path style="opacity:1" fill="#0c95a9"
              d="M 258.5,112.5 C 260.946,123.178 260.946,133.845 258.5,144.5C 257.833,144.833 257.167,145.167 256.5,145.5C 256.312,143.897 256.812,142.563 258,141.5C 258.5,131.839 258.666,122.172 258.5,112.5 Z"/>
    </g>
    <g>
        <path style="opacity:1" fill="#b05374"
              d="M 268.5,114.5 C 269.167,123.5 269.833,132.5 270.5,141.5C 270.5,142.167 270.167,142.5 269.5,142.5C 268.506,133.348 268.173,124.015 268.5,114.5 Z"/>
    </g>
    <g>
        <path style="opacity:0.965" fill="#2e50be"
              d="M 281.5,130.5 C 282.798,136.233 282.465,141.9 280.5,147.5C 280.5,143.5 280.5,139.5 280.5,135.5C 279.5,135.5 278.5,135.5 277.5,135.5C 278.124,133.246 279.457,131.579 281.5,130.5 Z"/>
    </g>
    <g>
        <path style="opacity:0.997" fill="#4632a4"
              d="M 139.5,138.5 C 138.924,142.268 137.758,145.935 136,149.5C 135.501,153.486 135.334,157.486 135.5,161.5C 133.035,156.593 132.035,151.26 132.5,145.5C 132.268,140.919 132.935,136.586 134.5,132.5C 135.892,130.727 137.059,128.727 138,126.5C 138.304,130.548 138.804,134.548 139.5,138.5 Z"/>
    </g>
    <g>
        <path style="opacity:0.012" fill="#04596d"
              d="M 138.5,113.5 C 139.167,113.5 139.833,113.5 140.5,113.5C 140.5,120.833 140.5,128.167 140.5,135.5C 139.833,130.319 139.167,124.985 138.5,119.5C 136.308,123.555 134.975,127.888 134.5,132.5C 132.935,136.586 132.268,140.919 132.5,145.5C 132.035,151.26 133.035,156.593 135.5,161.5C 142.362,184.044 157.362,196.71 180.5,199.5C 180.5,200.167 180.5,200.833 180.5,201.5C 154.976,198.486 138.81,184.486 132,159.5C 128.339,143.266 130.505,127.932 138.5,113.5 Z"/>
    </g>
    <g>
        <path style="opacity:1" fill="#0a6195"
              d="M 258.5,144.5 C 258.47,145.497 258.97,146.164 260,146.5C 262.497,145.751 264.997,145.084 267.5,144.5C 267.5,144.833 267.5,145.167 267.5,145.5C 264.495,147.299 261.162,147.966 257.5,147.5C 257.598,149.553 256.931,151.22 255.5,152.5C 255.674,150.139 256.007,147.806 256.5,145.5C 257.167,145.167 257.833,144.833 258.5,144.5 Z"/>
    </g>
    <g>
        <path style="opacity:1" fill="#0154a5"
              d="M 267.5,145.5 C 265.865,151.406 263.865,157.072 261.5,162.5C 260.5,162.5 259.5,162.5 258.5,162.5C 258.02,165.005 257.02,167.338 255.5,169.5C 252.377,173.125 249.044,176.625 245.5,180C 244.167,180.333 242.833,180.667 241.5,181C 234.67,188.003 226.337,191.837 216.5,192.5C 214.143,192.663 211.81,192.497 209.5,192C 207.881,191.764 206.881,190.931 206.5,189.5C 207.167,189.5 207.5,189.167 207.5,188.5C 217.166,187.723 225.833,184.39 233.5,178.5C 243.186,171.778 250.519,163.111 255.5,152.5C 256.931,151.22 257.598,149.553 257.5,147.5C 261.162,147.966 264.495,147.299 267.5,145.5 Z"/>
    </g>
    <g>
        <path style="opacity:1" fill="#0a95c2"
              d="M 140.5,137.5 C 142.473,144.227 144.806,150.894 147.5,157.5C 143.387,151.939 141.053,145.606 140.5,138.5C 140.5,138.167 140.5,137.833 140.5,137.5 Z"/>
    </g>
    <g>
        <path style="opacity:1" fill="#5929b5"
              d="M 139.5,138.5 C 139.833,138.5 140.167,138.5 140.5,138.5C 141.053,145.606 143.387,151.939 147.5,157.5C 149.317,162.46 152.15,166.793 156,170.5C 158.747,173.754 161.914,176.42 165.5,178.5C 168.976,181.623 172.976,183.957 177.5,185.5C 178.791,186.473 178.791,187.473 177.5,188.5C 181.879,190.812 186.545,192.312 191.5,193C 198.826,193.5 206.159,193.666 213.5,193.5C 213.53,194.497 213.03,195.164 212,195.5C 207.5,197.483 203,199.149 198.5,200.5C 192.464,200.64 186.464,200.307 180.5,199.5C 157.362,196.71 142.362,184.044 135.5,161.5C 135.334,157.486 135.501,153.486 136,149.5C 137.758,145.935 138.924,142.268 139.5,138.5 Z"/>
    </g>
    <g>
        <path style="opacity:1" fill="#06a1c2"
              d="M 233.5,178.5 C 225.833,184.39 217.166,187.723 207.5,188.5C 200.465,188.674 193.465,188.341 186.5,187.5C 184.473,187.662 182.473,187.495 180.5,187C 179.944,186.617 179.611,186.117 179.5,185.5C 193.269,188.403 206.936,188.07 220.5,184.5C 220.5,183.5 220.5,182.5 220.5,181.5C 224.473,180.604 228.307,179.27 232,177.5C 232.765,177.57 233.265,177.903 233.5,178.5 Z"/>
    </g>
    <g>
        <path style="opacity:1" fill="#01bbd0"
              d="M 165.5,80.5 C 163.666,82.5054 161.999,84.6721 160.5,87C 160.957,87.414 161.291,87.914 161.5,88.5C 159.2,90.8283 159.2,92.995 161.5,95C 161,95.1667 160.5,95.3333 160,95.5C 158.832,94.4911 157.665,93.4911 156.5,92.5C 154.349,93.9053 152.682,95.7386 151.5,98C 152.325,100.77 152.659,103.437 152.5,106C 150.777,106.523 149.444,107.523 148.5,109C 148.739,110.781 149.072,112.614 149.5,114.5C 148.753,114.736 147.92,115.07 147,115.5C 146.318,119.18 147.818,121.68 151.5,123C 149.512,123.18 147.512,123.014 145.5,122.5C 145.299,125.508 144.966,128.508 144.5,131.5C 145.684,138.237 147.184,144.903 149,151.5C 167.871,181.89 194.038,190.39 227.5,177C 232.448,172.88 237.782,169.38 243.5,166.5C 246.375,160.785 249.875,155.452 254,150.5C 257.781,138.342 258.447,126.009 256,113.5C 254.667,112.833 253.667,111.833 253,110.5C 252.265,106.187 251.765,101.853 251.5,97.5C 254.791,102.033 257.124,107.033 258.5,112.5C 258.666,122.172 258.5,131.839 258,141.5C 256.812,142.563 256.312,143.897 256.5,145.5C 256.007,147.806 255.674,150.139 255.5,152.5C 250.519,163.111 243.186,171.778 233.5,178.5C 233.265,177.903 232.765,177.57 232,177.5C 228.307,179.27 224.473,180.604 220.5,181.5C 220.5,182.5 220.5,183.5 220.5,184.5C 206.936,188.07 193.269,188.403 179.5,185.5C 174.877,183.175 170.211,180.842 165.5,178.5C 161.914,176.42 158.747,173.754 156,170.5C 152.15,166.793 149.317,162.46 147.5,157.5C 144.806,150.894 142.473,144.227 140.5,137.5C 140.5,136.833 140.5,136.167 140.5,135.5C 140.5,128.167 140.5,120.833 140.5,113.5C 144.727,102.707 150.727,93.0407 158.5,84.5C 160.833,83.1667 163.167,81.8333 165.5,80.5 Z"/>
    </g>
    <g>
        <path style="opacity:1" fill="#03ddb0"
              d="M 206.5,139.5 C 201.833,139.5 197.167,139.5 192.5,139.5C 192.5,144.5 192.5,149.5 192.5,154.5C 197.167,154.5 201.833,154.5 206.5,154.5C 201.695,155.487 196.695,155.821 191.5,155.5C 191.5,149.833 191.5,144.167 191.5,138.5C 196.695,138.179 201.695,138.513 206.5,139.5 Z"/>
    </g>
    <g>
        <path style="opacity:1" fill="#02e998"
              d="M 206.5,139.5 C 206.833,139.5 207.167,139.5 207.5,139.5C 207.821,144.695 207.487,149.695 206.5,154.5C 201.833,154.5 197.167,154.5 192.5,154.5C 192.5,149.5 192.5,144.5 192.5,139.5C 197.167,139.5 201.833,139.5 206.5,139.5 Z"/>
    </g>
    <g>
        <path style="opacity:1" fill="#00bdf1"
              d="M 223.5,138.5 C 223.833,138.5 224.167,138.5 224.5,138.5C 225.056,143.695 224.056,148.528 221.5,153C 221.833,153.333 222.167,153.667 222.5,154C 217.845,154.499 213.179,154.666 208.5,154.5C 208.5,149.5 208.5,144.5 208.5,139.5C 213.695,139.821 218.695,139.487 223.5,138.5 Z"/>
    </g>
    <g>
        <path style="opacity:1" fill="#c133a2"
              d="M 190.5,122.5 C 190.5,133.5 190.5,144.5 190.5,155.5C 186.818,155.665 183.152,155.499 179.5,155C 177.959,153.629 176.625,152.129 175.5,150.5C 175.5,141.167 175.5,131.833 175.5,122.5C 180.5,122.5 185.5,122.5 190.5,122.5 Z"/>
    </g>
    <g>
        <path style="opacity:1" fill="#03e79e"
              d="M 224.5,122.5 C 224.5,117.833 224.5,113.167 224.5,108.5C 224.369,107.624 224.702,106.957 225.5,106.5C 232.079,109.322 235.412,114.322 235.5,121.5C 231.881,122.244 228.215,122.577 224.5,122.5 Z"/>
    </g>
    <g>
        <path style="opacity:1" fill="#02e899"
              d="M 190.5,122.5 C 190.5,117.833 190.5,113.167 190.5,108.5C 190.414,107.504 190.748,106.671 191.5,106C 196.489,105.501 201.489,105.334 206.5,105.5C 206.5,111.167 206.5,116.833 206.5,122.5C 201.167,122.5 195.833,122.5 190.5,122.5 Z"/>
    </g>
    <g>
        <path style="opacity:1" fill="#26b6e9"
              d="M 190.5,108.5 C 190.5,113.167 190.5,117.833 190.5,122.5C 185.5,122.5 180.5,122.5 175.5,122.5C 175.5,131.833 175.5,141.167 175.5,150.5C 174.53,137.301 174.196,124.134 174.5,111C 179.313,106.29 184.646,105.456 190.5,108.5 Z"/>
    </g>
    <g>
        <path style="opacity:1" fill="#0874b4"
              d="M 165.5,178.5 C 170.211,180.842 174.877,183.175 179.5,185.5C 178.833,185.5 178.167,185.5 177.5,185.5C 172.976,183.957 168.976,181.623 165.5,178.5 Z"/>
    </g>
    <g>
        <path style="opacity:1" fill="#0278b0"
              d="M 186.5,187.5 C 193.465,188.341 200.465,188.674 207.5,188.5C 207.5,189.167 207.167,189.5 206.5,189.5C 200.491,189.666 194.491,189.499 188.5,189C 187.584,188.722 186.918,188.222 186.5,187.5 Z"/>
    </g>
    <g>
        <path style="opacity:0.999" fill="#034cd6"
              d="M 277.5,135.5 C 278.5,135.5 279.5,135.5 280.5,135.5C 280.5,139.5 280.5,143.5 280.5,147.5C 280.5,148.833 280.5,150.167 280.5,151.5C 277.608,156.955 274.942,162.622 272.5,168.5C 267.461,173.537 262.794,178.871 258.5,184.5C 252.712,189.471 246.379,193.471 239.5,196.5C 235.331,198.311 230.998,199.311 226.5,199.5C 217.22,200.447 207.886,200.78 198.5,200.5C 203,199.149 207.5,197.483 212,195.5C 213.03,195.164 213.53,194.497 213.5,193.5C 214.791,193.737 215.791,193.404 216.5,192.5C 226.337,191.837 234.67,188.003 241.5,181C 242.833,180.667 244.167,180.333 245.5,180C 249.044,176.625 252.377,173.125 255.5,169.5C 257.02,167.338 258.02,165.005 258.5,162.5C 259.5,162.5 260.5,162.5 261.5,162.5C 263.865,157.072 265.865,151.406 267.5,145.5C 267.5,145.167 267.5,144.833 267.5,144.5C 268.5,144.167 269.167,143.5 269.5,142.5C 270.167,142.5 270.5,142.167 270.5,141.5C 272.858,139.471 275.192,137.471 277.5,135.5 Z"/>
    </g>
    <g>
        <path style="opacity:1" fill="#293ba5"
              d="M 177.5,185.5 C 178.167,185.5 178.833,185.5 179.5,185.5C 179.611,186.117 179.944,186.617 180.5,187C 182.473,187.495 184.473,187.662 186.5,187.5C 186.918,188.222 187.584,188.722 188.5,189C 194.491,189.499 200.491,189.666 206.5,189.5C 206.881,190.931 207.881,191.764 209.5,192C 211.81,192.497 214.143,192.663 216.5,192.5C 215.791,193.404 214.791,193.737 213.5,193.5C 206.159,193.666 198.826,193.5 191.5,193C 186.545,192.312 181.879,190.812 177.5,188.5C 178.791,187.473 178.791,186.473 177.5,185.5 Z"/>
    </g>
    <g>
        <path style="opacity:0.103" fill="#02596e"
              d="M 280.5,151.5 C 280.5,152.833 280.5,154.167 280.5,155.5C 270.958,181.861 252.291,197.694 224.5,203C 211.167,203.667 197.833,203.667 184.5,203C 182.942,202.79 181.609,202.29 180.5,201.5C 196.203,202.151 211.536,201.484 226.5,199.5C 230.998,199.311 235.331,198.311 239.5,196.5C 246.379,193.471 252.712,189.471 258.5,184.5C 262.794,178.871 267.461,173.537 272.5,168.5C 274.942,162.622 277.608,156.955 280.5,151.5 Z"/>
    </g>
    <g>
        <path style="opacity:0.761" fill="#094c9b"
              d="M 180.5,199.5 C 186.464,200.307 192.464,200.64 198.5,200.5C 207.886,200.78 217.22,200.447 226.5,199.5C 211.536,201.484 196.203,202.151 180.5,201.5C 180.5,200.833 180.5,200.167 180.5,199.5 Z"/>
    </g>
    <g>
        <path style="opacity:0.153" fill="#1f6257"
              d="M 243.5,206.5 C 254.327,206.141 257.661,210.974 253.5,221C 248.919,223.032 244.419,222.865 240,220.5C 237.236,214.691 238.403,210.025 243.5,206.5 Z"/>
    </g>
    <g>
        <path style="opacity:0.078" fill="#02536e"
              d="M 190.5,219.5 C 190.64,221.124 189.973,222.29 188.5,223C 178.308,224.129 175.308,219.962 179.5,210.5C 188.898,207.312 192.565,210.312 190.5,219.5 Z"/>
    </g>
    <g>
        <path style="opacity:0.631" fill="#153d93"
              d="M 190.5,219.5 C 188.409,220.865 186.076,221.532 183.5,221.5C 184.315,220.163 185.482,219.163 187,218.5C 187.494,216.866 187.66,215.199 187.5,213.5C 181.584,213.212 179.917,215.879 182.5,221.5C 181.25,221.423 180.417,220.756 180,219.5C 179.289,217.101 179.456,214.768 180.5,212.5C 187.719,209.792 191.053,212.125 190.5,219.5 Z"/>
    </g>
    <g>
        <path style="opacity:0.965" fill="#c68f36"
              d="M 244.5,208.5 C 251.185,208.061 253.685,211.061 252,217.5C 246.894,222.041 243.061,221.041 240.5,214.5C 241.361,212.089 242.694,210.089 244.5,208.5 Z"/>
    </g>
    <g>
        <path style="opacity:0.998" fill="#3631a2"
              d="M 183.5,221.5 C 183.167,221.5 182.833,221.5 182.5,221.5C 179.917,215.879 181.584,213.212 187.5,213.5C 187.66,215.199 187.494,216.866 187,218.5C 185.482,219.163 184.315,220.163 183.5,221.5 Z"/>
    </g>
    <g>
        <path style="opacity:1" fill="#00cddd"
              d="M 17.5,236.5 C 20.7935,236.259 23.7935,237.092 26.5,239C 31.1223,245.078 35.6223,251.245 40,257.5C 40.3333,252.5 40.6667,247.5 41,242.5C 45.5044,235.544 50.8377,234.877 57,240.5C 58.6369,257.075 58.9703,273.742 58,290.5C 56.6587,294.852 53.6587,296.852 49,296.5C 47.0326,296.458 45.1992,295.958 43.5,295C 38.3011,288.768 33.4678,282.268 29,275.5C 28.9173,281.942 28.2507,288.275 27,294.5C 22.3333,297.167 17.6667,297.167 13,294.5C 11.9562,292.285 11.2895,289.952 11,287.5C 10.6277,274.413 10.461,261.413 10.5,248.5C 10.3157,242.849 12.649,238.849 17.5,236.5 Z"/>
    </g>
    <g>
        <path style="opacity:1" fill="#01cede"
              d="M 68.5,236.5 C 79.505,236.333 90.505,236.5 101.5,237C 105.852,238.341 107.852,241.341 107.5,246C 107.592,248.814 106.592,251.147 104.5,253C 97.6062,254.26 90.6062,254.926 83.5,255C 81.5188,255.605 81.1854,256.605 82.5,258C 87.5,258.333 92.5,258.667 97.5,259C 104.702,262.41 106.035,267.41 101.5,274C 94.741,274.916 88.0743,275.916 81.5,277C 87.6622,278.292 93.9956,278.959 100.5,279C 107.544,282.534 109.211,287.867 105.5,295C 92.9039,296.607 80.2372,296.941 67.5,296C 66.0692,295.535 64.9025,294.701 64,293.5C 62.3625,276.591 62.0291,259.591 63,242.5C 64.0209,239.65 65.8542,237.65 68.5,236.5 Z"/>
    </g>
    <g>
        <path style="opacity:1" fill="#00cdde"
              d="M 120.5,236.5 C 149.8,234.961 162.633,248.628 159,277.5C 156.067,287.434 149.567,293.6 139.5,296C 131.089,296.905 122.755,296.572 114.5,295C 113.874,294.25 113.374,293.416 113,292.5C 111.38,276.901 111.047,261.234 112,245.5C 113.015,240.654 115.849,237.654 120.5,236.5 Z M 131.5,255.5 C 138.258,255.999 141.591,259.666 141.5,266.5C 140.92,272.332 137.92,276.332 132.5,278.5C 131.914,278.291 131.414,277.957 131,277.5C 130.204,270.087 130.37,262.754 131.5,255.5 Z"/>
    </g>
    <g>
        <path style="opacity:1" fill="#00cdde"
              d="M 188.5,236.5 C 213.506,237.003 225.006,249.67 223,274.5C 220.25,286.25 213.083,293.75 201.5,297C 174.329,299.827 161.495,287.66 163,260.5C 166.566,247.097 175.066,239.097 188.5,236.5 Z M 191.5,254.5 C 201.919,256.375 206.086,262.375 204,272.5C 197.413,281.345 190.413,281.679 183,273.5C 181,269.5 181,265.5 183,261.5C 185.441,258.546 188.275,256.213 191.5,254.5 Z"/>
    </g>
    <g>
        <path style="opacity:1" fill="#00cddd"
              d="M 233.5,236.5 C 245.171,236.333 256.838,236.5 268.5,237C 274.225,239.52 276.058,243.686 274,249.5C 268.493,258.515 262.493,267.182 256,275.5C 255.517,276.448 255.351,277.448 255.5,278.5C 260.93,278.161 266.264,278.661 271.5,280C 276.437,284.644 276.771,289.644 272.5,295C 259.236,296.611 245.903,296.944 232.5,296C 226.114,292.621 224.947,287.788 229,281.5C 234.091,274.32 239.424,267.32 245,260.5C 246.559,258.783 247.392,256.783 247.5,254.5C 242.489,254.666 237.489,254.499 232.5,254C 231.234,253.691 230.067,253.191 229,252.5C 227.595,248.928 227.262,245.261 228,241.5C 229.352,239.251 231.185,237.584 233.5,236.5 Z"/>
    </g>
    <g>
        <path style="opacity:1" fill="#00cddd"
              d="M 304.5,236.5 C 330.018,236.515 341.852,249.182 340,274.5C 334.343,293.089 321.843,300.589 302.5,297C 284.752,291.364 277.252,279.198 280,260.5C 283.458,247.541 291.624,239.541 304.5,236.5 Z M 306.5,255.5 C 315.461,254.648 320.794,258.648 322.5,267.5C 319.768,278.2 313.435,281.366 303.5,277C 296.181,268.724 297.181,261.558 306.5,255.5 Z"/>
    </g>
    <g>
        <path style="opacity:1" fill="#00cdde"
              d="M 350.5,236.5 C 353.794,236.259 356.794,237.092 359.5,239C 363.633,245.433 368.133,251.599 373,257.5C 373.333,252.5 373.667,247.5 374,242.5C 378.446,235.347 383.779,234.681 390,240.5C 391.637,257.075 391.97,273.742 391,290.5C 389.659,294.852 386.659,296.852 382,296.5C 380.033,296.458 378.199,295.958 376.5,295C 371.613,289.114 367.113,282.947 363,276.5C 361.904,282.405 360.904,288.405 360,294.5C 355.333,297.167 350.667,297.167 346,294.5C 345.138,292.913 344.471,291.246 344,289.5C 343.333,274.833 343.333,260.167 344,245.5C 344.245,240.978 346.411,237.978 350.5,236.5 Z"/>
    </g>
</svg>
