<svg xmlns="http://www.w3.org/2000/svg" xmlns:xlink="http://www.w3.org/1999/xlink" width="302" height="168"><defs><path id="a" d="M1.1.95h298v163.3H1.1z"/></defs><g fill="none" fill-rule="evenodd" transform="matrix(1 0 0 -1 .9 167.25)"><mask id="b" fill="#fff"><use xlink:href="#a"/></mask><g fill="#E21836" mask="url(#b)"><path fill-rule="nonzero" d="M1.1 1.85h6.67v13.26c0 2.36 0 5.28 1.2 6.98a5.72 5.72 0 0 0 4.58 2.46c5.63 0 5.63-6.63 5.63-8.93V1.85h6.67v15.07c0 2.16 0 6.83-2.56 9.9-2.3 2.8-5.97 3.87-8.38 3.87-4.22 0-6.53-2.32-7.64-3.37v2.41H1.1V1.85"/><path d="M56.23 12.8c.19.9.4 2.06.4 3.36 0 7.03-5.58 14.68-14.42 14.68-8.6 0-14.67-7.24-14.67-15.12C27.54 7.58 33.97.95 42.26.95c6.53 0 11.85 4.66 13.46 9.69h-7.04c-1.25-2.31-3.45-3.56-6.42-3.56-4.77 0-7.38 3.91-7.69 5.72h21.66zm-21.86 5.38a8.07 8.07 0 0 0 7.89 6.53 7.47 7.47 0 0 0 7.53-6.53H34.37z"/><path fill-rule="nonzero" d="M65.2 1.85h4.1l5.29 18.08h.1L79.9 1.85h4.12l10.2 27.88h-7.14L81.96 12.7h-.1l-4.52 17.03h-5.32L67.45 12.7h-.1l-5.07 17.03h-7.13z"/><path d="M107.15 1.85h6.13v3.37c1.65-1.86 4.02-4.27 9.4-4.27 10.19 0 13.86 9.39 13.86 14.97 0 7.38-5.53 14.77-14.02 14.77a12.4 12.4 0 0 1-8.7-3.48v11.81h-6.67V1.85zm6.28 14.32c0 4.06 3.16 8.38 8.28 8.38 4.23 0 8.15-3.26 8.15-8.69 0-5.42-3.67-8.79-8.04-8.79-3.92 0-8.4 2.92-8.4 9.1zm54.29 13.56h-6.13v-3.52h-.1c-.2.4-3.57 4.48-9.24 4.48-7.74 0-13.97-6.18-13.97-14.73 0-9.28 6.38-15.01 13.57-15.01 3.5 0 7.63 1.86 9.74 4.36V1.85h6.13v27.88zm-6.33-13.87c0-5.17-3.52-8.78-8.14-8.78-4.77 0-8.3 3.86-8.3 8.58 0 4.17 2.82 8.9 8.3 8.9 3.97 0 8.14-2.92 8.14-8.7z"/><path fill-rule="nonzero" d="M177.95 39.02h-6.68V1.85h6.68z"/><path d="M209.39 29.73h-6.13v-3.52h-.1c-.2.4-3.57 4.48-9.24 4.48-7.74 0-13.97-6.18-13.97-14.73 0-9.28 6.38-15.01 13.57-15.01 3.51 0 7.63 1.86 9.74 4.36V1.85h6.13v27.88zm-6.33-13.87c0-5.17-3.51-8.78-8.14-8.78-4.77 0-8.29 3.86-8.29 8.58 0 4.17 2.82 8.9 8.3 8.9 3.96 0 8.13-2.92 8.13-8.7z"/><path fill-rule="nonzero" d="M212.94 1.85h6.68v13.26c0 2.36 0 5.28 1.21 6.98a5.73 5.73 0 0 0 4.57 2.46c5.62 0 5.62-6.63 5.62-8.93V1.85h6.69v15.07c0 2.16 0 6.83-2.57 9.9-2.3 2.8-5.97 3.87-8.38 3.87-4.23 0-6.53-2.32-7.64-3.37v2.41h-6.18V1.85m48.5 9.09c-1.76-2.81-3.96-3.87-6.17-3.87-5.03 0-8.4 3.97-8.4 8.74 0 5.73 4.03 8.74 8.1 8.74 4.11 0 5.67-2.66 6.47-4.06h7.54c-2.86 8.59-10.5 10.2-14.02 10.2a14.82 14.82 0 0 1-14.76-14.77c0-9.25 7.67-14.97 14.82-14.97 6.53 0 11.7 3.77 13.96 10h-7.54"/><path d="M298.7 12.8c.2.9.4 2.06.4 3.36 0 7.03-5.58 14.68-14.42 14.68-8.6 0-14.67-7.24-14.67-15.12 0-8.14 6.43-14.77 14.72-14.77 6.52 0 11.85 4.66 13.46 9.69h-7.03c-1.26-2.31-3.46-3.56-6.43-3.56-4.78 0-7.39 3.91-7.68 5.72h21.64zm-21.86 5.38a8.07 8.07 0 0 0 7.89 6.53 7.47 7.47 0 0 0 7.53-6.53h-15.42zM114.78 94.26l-8.93-15.41-49.41 2.77 4.95 8.6 53.4 4.04zm35.73 49.13l4.47-17.01-70.12 4.6 4.95 8.59 60.7 3.82zm-46.49 20.86l41.04-.03 3.1-11.64-49.08 3.08 4.94 8.59zm-3.6-95L93.28 57l-51.06-.05 4.94 8.58 53.24 3.73zm89.64 33.06L177.7 80.9h11.77c5.45 0 15.23 2.72 18.23 10.49 2.79 7.22-2.33 10.94-5.9 10.94h-11.74zm11.78 20.5l10.27.06c6.83.04 13.96 3.16 16.57 9.5 2.4 5.89-.83 10.9-5.11 10.88l-9.93.01-11.8-20.45zm-46.47 3.57l10.37 17.98 35.08 2.25 1.23 2.19-32.46 2.27 7.6 13.18h60.19c18.5 0 32.2-6.62 26.88-26.08-1.6-5.9-9.13-20.74-31.2-26.95 4.69-.56 16.35-5.73 14.34-19.13-3.57-23.76-34.33-35.07-51.44-35.08l-71.07-.03-3.5 13.75 37.22 2.62 1.27 2.18-40.37 2.46-4.36 16.3 57.45 3.35 1.25 2.16-103.2 6.5 4.94 8.59 111.09 7.21 1.26 2.16-32.57 2.12z"/></g></g></svg>