<svg xmlns="http://www.w3.org/2000/svg" overflow="visible" viewBox="135.5 361.38 200 72">
    <path d="M159.23 431.97c-5.84-.24-10.62-1.83-14.35-4.8a28.67 28.67 0 0 1-2.99-2.99 18.64 18.64 0 0 1-3.23-5.81c-2.11-6.33-1.02-14.64 3.11-23.76 3.55-7.8 9.01-15.55 18.55-26.28 1.4-1.57 5.6-6.19 5.62-6.19l-.5.88a56.21 56.21 0 0 0-5.77 13.28c-1.85 6.8-1.63 12.63.66 17.15a16.75 16.75 0 0 0 7.33 7.31c5.33 2.61 13.13 2.83 22.66.63a36452 36452 0 0 0 72.24-19.17l71.05-18.9c.01.02-90.78 38.87-137.91 59.02-7.46 3.2-9.46 4-12.97 5.23-8.97 3.15-17 4.65-23.5 4.4z"/>
</svg>