<svg xmlns="http://www.w3.org/2000/svg" width="188" height="51"><path fill="#006" d="M82.36 22.16l-9.9-18.98H58.74L82.36 48.2l23.55-45.02H92.27l-9.9 18.98zm86.3-8.94l19.26 33.94H173.1l-2.36-4.7h-16.76l-2.28 4.7h-14.83l25.5-45.09 6.3 11.15zm0-6.86c.56 0 1.05-.2 1.4-.62a2 2 0 0 0 .61-1.45c0-.56-.2-.97-.62-1.39a1.74 1.74 0 0 0-1.38-.62 2 2 0 0 0-1.46.62c-.42.42-.55.83-.55 1.39 0 .55.2 1.04.55 1.45a2 2 0 0 0 1.46.63zm0-4.5c-.62 0-1.24.21-1.66.7-.55.41-.76 1.03-.76 1.73 0 .69.2 1.31.7 1.73.48.48 1.03.76 1.72.76.63 0 1.25-.28 1.74-.7.48-.48.69-1.1.69-1.8 0-.62-.2-1.24-.7-1.73a2.3 2.3 0 0 0-1.72-.69zm0 2.84c.07 0 .15.07.21.07.07 0 .14.07.14.21.07.07.07.14.07.35 0 .13 0 .27.07.34h.62V5.2c0-.28-.06-.49-.27-.63-.07-.06-.21-.06-.35-.13a.78.78 0 0 0 .48-.21c.07-.07.14-.21.14-.49 0-.27-.06-.48-.34-.62a1.31 1.31 0 0 0-.56-.14h-1.31v2.7h.76V4.7h.35zm0-1.24h-.34v.76h.34c.14 0 .21-.07.28-.07.14-.07.14-.2.14-.35 0-.14-.07-.27-.2-.27-.07-.07-.15-.07-.21-.07zm-6.3 22.57l-4.22 8.18h8.45l-4.23-8.18zM56.04 47.16V3.18H43.23v43.98h12.81zm79.66-32.2V3.17h-27.1v43.98h27.08v-11.7h-14.2V29.7h14.2v-9.2h-14.2v-5.55h14.2zM35.6 3.17H22.8v17.1L.82.35v46.82h12.82V30.81l21.95 19.6V3.19z"/></svg>