<!DOCTYPE svg PUBLIC "-//W3C//DTD SVG 1.1//EN" "http://www.w3.org/Graphics/SVG/1.1/DTD/svg11.dtd" [
	<!ENTITY ns_flows "http://ns.adobe.com/Flows/1.0/">
]><svg xmlns="http://www.w3.org/2000/svg" viewBox="-0.257 -0.032 360 60"><path fill-rule="evenodd" d="M316.944.512c-23.496 0-42.541 9.487-42.541 21.188 0 11.702 19.045 21.19 42.541 21.19s42.541-9.488 42.541-21.19c0-11.701-19.045-21.188-42.541-21.188zm-5.933 37.425c-16.693 0-30.225-7.415-30.225-16.562 0-9.146 13.531-16.561 30.225-16.561s30.225 7.415 30.225 16.561c-.001 9.147-13.532 16.562-30.225 16.562zM228.452.512c-7.602 0-14.734.995-20.908 2.734V6.99c4.412-1.384 9.523-2.175 14.973-2.175 16.693 0 30.225 7.415 30.225 16.561 0 9.147-13.531 16.562-30.225 16.562-11.688 0-21.816-3.639-26.846-8.958V16.57h-.012V0h-15.355v59.937h15.367v-24.73c7.803 4.693 19.59 7.684 32.781 7.684 23.496 0 42.541-9.488 42.541-21.19 0-11.702-19.045-21.189-42.541-21.189zM135.044.512c-7.602 0-14.734.995-20.908 2.734V6.99c4.412-1.384 9.523-2.175 14.973-2.175 16.693 0 30.226 7.415 30.226 16.561 0 9.147-13.532 16.562-30.226 16.562-11.688 0-21.818-3.639-26.847-8.958V16.57h-.012V0H86.896v59.937h15.366v-24.73c7.804 4.693 19.592 7.684 32.782 7.684 23.495 0 42.541-9.488 42.541-21.19 0-11.702-19.045-21.189-42.541-21.189zM42.541.512C19.046.512 0 9.999 0 21.7c0 11.702 19.046 21.19 42.541 21.19 23.496 0 42.542-9.488 42.542-21.19C85.083 9.999 66.037.512 42.541.512zm-5.935 37.425c-16.692 0-30.224-7.415-30.224-16.562 0-9.146 13.531-16.561 30.224-16.561 16.693 0 30.224 7.415 30.224 16.561.001 9.147-13.53 16.562-30.224 16.562z" clip-rule="evenodd"/></svg>
