<svg xmlns="http://www.w3.org/2000/svg" width="17" height="21">
    <defs>
        <linearGradient id="a" x1=".02%" x2="100.02%" y1="50%" y2="50%">
            <stop offset="0%" stop-color="#E1BE78"/>
            <stop offset="100%" stop-color="#E3AB36"/>
        </linearGradient>
        <linearGradient id="b" x1="-7.46%" x2="97.72%" y1="17.43%" y2="64.77%">
            <stop offset="0%" stop-color="#E1BE78"/>
            <stop offset="34%" stop-color="#FFFAD1"/>
            <stop offset="75%" stop-color="#C69632"/>
            <stop offset="99.5%" stop-color="#FCDC99"/>
        </linearGradient>
        <linearGradient id="c" x1="-.01%" y1="50.03%" y2="50.03%">
            <stop offset="0%" stop-color="#FFE3A8"/>
            <stop offset="100%" stop-color="#D2A249"/>
        </linearGradient>
    </defs>
    <g fill="none" fill-rule="evenodd">
        <path fill="url(#a)" fill-rule="nonzero"
              d="M16.38 1.48a19.96 19.96 0 0 0-6.12-1.4A16.7 16.7 0 0 0 8.53 0h-.05a23.6 23.6 0 0 0-5.33.66 19 19 0 0 0-2.52.82l-.05.01s.1 6.14.18 9.18c.02.9.18 1.78.48 2.62.35.96.81 1.88 1.38 2.72a10.91 10.91 0 0 0 4.86 3.95c.2.08.37.16.53.21.16.07.33.12.5.16.17-.04.33-.1.5-.16l.52-.21a9.53 9.53 0 0 0 2.74-1.61A10.9 10.9 0 0 0 14.39 16c.57-.84 1.03-1.76 1.38-2.72.3-.84.46-1.73.48-2.62.08-3.04.18-9.17.18-9.17a.54.54 0 0 0-.05-.02z"/>
        <path fill="#B12B28" fill-rule="nonzero"
              d="M8.32 17.08h-4.5a10.9 10.9 0 0 0 2.04 1.74c.53.33 1.09.6 1.66.85.2.08.36.16.5.2l.3.1v-2.89zm0-3.35a3.3 3.3 0 0 1-1.94-.85H1.42l.1.32c.2.53.42 1.05.68 1.55h6.12v-1.02zM16 8.59h-4.38v1.91h4.34L16 8.6zm.08-4.03h-7.5v1.86h7.46l.04-1.86z"/>
        <path fill="#613E18"
              d="M16 12.52a12.61 12.61 0 0 1-1.61 3.5 10.9 10.9 0 0 1-4.86 3.93c-.2.09-.37.17-.53.22-.16.06-.33.11-.5.15a4.74 4.74 0 0 1-.5-.15c-.15-.05-.32-.13-.52-.22a9.51 9.51 0 0 1-2.74-1.61c-.68-.56-1.29-1.2-1.82-1.9l.02.03a11.06 11.06 0 0 0 2.88 2.71 12.94 12.94 0 0 0 2.68 1.25c.17-.04.34-.1.5-.16.16-.05.33-.13.53-.21a9.54 9.54 0 0 0 2.74-1.61c.81-.68 1.53-1.46 2.12-2.34a12.7 12.7 0 0 0 1.37-2.73c.1-.28.18-.57.24-.86zm.14-10.67a.52.52 0 0 0-.05-.02h-.02A19.1 19.1 0 0 0 10.18.45C9.61.41 9.1.4 8.52.4h-.05a22.54 22.54 0 0 0-5.13.64c-.82.2-1.62.47-2.4.8H.91l-.03.01v-.11l.04-.02A18.82 18.82 0 0 1 6.8.35C7.38.3 7.9.28 8.47.27h.05a21.17 21.17 0 0 1 7.55 1.44h.02l.04.03v.1zm-7.83.73a22.3 22.3 0 0 0-4.96.64 19.75 19.75 0 0 0-2.43.8V3.9l.01-.01a19.12 19.12 0 0 1 5.89-1.36c.51-.04.98-.06 1.5-.07v.11z"/>
        <path fill="#432918"
              d="M13.91 14.11v.04c0 .03 0 .04-.03.05a1.02 1.02 0 0 0-.5.28v-.01l-.01-.02c0-.03.01-.05.04-.07.14-.13.3-.21.48-.25.01 0 .02 0 .02-.02zm-.87-.5a.99.99 0 0 0-.37.27.64.64 0 0 0-.17.27v.03a.74.74 0 0 1 .16-.22c.1-.12.23-.21.37-.27l.02-.03.01-.07c0 .01 0 .02-.02.02zm-.91-.2c-.2.11-.36.28-.47.49a.77.77 0 0 0-.08.34v.03h.02a.9.9 0 0 1 .07-.31c.1-.2.26-.37.46-.47a.32.32 0 0 0 .02-.13c0 .01 0 .03-.02.04zm-1.21.25a.95.95 0 0 0-.31.83 1.1 1.1 0 0 1 .3-.75.23.23 0 0 0 .02-.11l-.01.03zM9 15.25a.01.01 0 0 0 0-.02.38.38 0 0 1-.14-.26c-.02.11.02.22.1.3l.04-.02zm4-3.87a.78.78 0 0 0-.3.24c-.1.1-.16.2-.19.32v.04c.05-.1.1-.2.18-.28.08-.1.19-.19.31-.24.03-.02.03-.05.03-.12 0 .02 0 .03-.03.04zm1.2.2a.93.93 0 0 0-.42.18c-.1.07-.2.17-.25.3 0 0-.03.02 0 .03.07-.1.15-.18.24-.25a1 1 0 0 1 .42-.19c.02 0 .02-.02.02-.03v-.06l-.01.01zm.9.58c0 .02 0 .02-.02.02a.8.8 0 0 0-.47.17.71.71 0 0 0-.1.08c-.02.02-.02.04-.01.04l.02.02a.78.78 0 0 1 .08-.06c.13-.1.3-.17.48-.18l.02-.09zM9.8 13.7v.01a.2.2 0 0 1-.16.2.29.29 0 0 1-.32-.07.27.27 0 0 1-.25.1.29.29 0 0 1-.2-.14l-.02-.08-.27.01v.08c.09 0 .18 0 .27-.02l.02.09c.04.06.1.1.18.13.1.02.2-.02.27-.1.09.1.21.11.33.07a.2.2 0 0 0 .14-.19v-.1zm.22 2.3a.38.38 0 0 1-.37 0 .48.48 0 0 1-.13-.14l-.02-.01a.39.39 0 0 1-.3.1.4.4 0 0 1-.37-.42v.01c-.01.11.02.22.08.3.06.1.16.17.27.18.12 0 .23-.03.31-.1l.02.01c.04.05.08.1.13.13.11.07.25.07.37 0a.45.45 0 0 0 .2-.35.35.35 0 0 1-.19.28zm2.77.56c-.09.03-.17.07-.25.12-.12.08-.2.2-.26.33l.01.01.01.01a.77.77 0 0 1 .24-.29.96.96 0 0 1 .25-.12l.01-.08-.01.02zm-.63-.37h-.01a.88.88 0 0 0-.6.49l.01.02h.02a.95.95 0 0 1 .56-.43l.02-.08zm-1.1-.1c-.1.11-.2.23-.27.36a.54.54 0 0 0-.06.33l.01.01c0-.1.02-.19.06-.27.07-.12.16-.24.26-.34a.34.34 0 0 0 .01-.1v.02h-.01zm-.96.4a.51.51 0 0 0-.13.45.5.5 0 0 1 .14-.39v-.09.02zm-.48.94l.02-.02c.02 0 0-.02 0-.03a.98.98 0 0 1-.11-.42h-.01a1.08 1.08 0 0 0 .1.46zm.47.92a.27.27 0 0 1-.27.05.45.45 0 0 1-.22-.17l-.03.01a.51.51 0 0 1-.3.26.31.31 0 0 1-.25-.07.27.27 0 0 1-.09-.2c0 .2.03.22.1.27.07.06.16.09.25.07a.51.51 0 0 0 .3-.26h.03c.05.07.13.13.22.16.1.04.2.02.28-.05a.39.39 0 0 0 .1-.3c0 .1-.05.17-.11.23zm-1.02-.41l.04-.04v-.01a.32.32 0 0 1-.22-.28c0 .14.07.26.19.33zM1.35 5.49a.03.03 0 0 0 0-.04.34.34 0 0 1-.03-.14c0 .07.02.12.03.18zm.24 4.2c.01-.01.02-.03.01-.04a.74.74 0 0 1-.08-.13.25.25 0 0 1-.02-.1l.03.18.06.1zm1.11.34v.01c0 .1-.06.18-.15.22a.36.36 0 0 1-.3.05.43.43 0 0 1-.18-.12c-.02-.03-.04 0-.07.01l-.2.1a.3.3 0 0 1-.37-.1.34.34 0 0 1-.07-.19c0 .1.02.19.07.27.09.12.25.17.38.1a.75.75 0 0 0 .2-.1c.02-.01.04-.04.06-.02.05.06.12.1.2.13.1.03.2.01.3-.05.1-.05.16-.17.13-.29v-.02zm-.3-2.07c0 .1-.06.2-.15.25a.31.31 0 0 1-.44-.1c0-.02-.04-.03-.06-.01a.5.5 0 0 1-.31.09.28.28 0 0 1-.25-.19.26.26 0 0 1-.03-.1c0 .06 0 .1.02.16.04.1.14.18.25.2.12 0 .23-.04.33-.1h.05c.08.17.28.23.44.14.11-.07.16-.14.15-.35zm-.99-.4h.02v-.04a.28.28 0 0 1-.08-.19c0 .08.02.16.06.23zM3 8.1a.93.93 0 0 0-.23.42 1 1 0 0 0 0 .34V8.6c.04-.15.12-.3.23-.41v-.12.02zm1-.33a.85.85 0 0 0-.42.88.84.84 0 0 1 .41-.79c.02 0 .01-.07.01-.1v.01zm.5.6c0 .02.01.04.02.03h.03c.12-.29.31-.53.57-.71v-.11.02c-.29.19-.5.46-.63.78zM3.05 6.13a.56.56 0 0 0-.2.2.79.79 0 0 0-.13.58v.03a.84.84 0 0 1 .14-.5c.05-.1.11-.16.2-.2V6.1zm1.06-.28a.88.88 0 0 0-.3.25c-.1.13-.16.28-.2.44 0 .02.02.04.04.05a1.18 1.18 0 0 1 .47-.65c.02-.01.02-.04.02-.07V5.8c0 .02-.01.03-.03.04zm1.26-.03a.95.95 0 0 0-.44.15.62.62 0 0 0-.3.4c0 .03.02.05.04.06a.7.7 0 0 1 .28-.36.9.9 0 0 1 .43-.16c.02 0 .01-.04.01-.06v-.06c0 .01 0 .03-.02.03zm.5.6l.05-.03c.15-.1.31-.17.49-.2.02 0 .03 0 .03-.05V6.1h-.02c-.22.05-.43.14-.6.27-.03.02-.05.04-.02.04h.08zM3.35 3.8c-.17.11-.31.24-.44.4a.98.98 0 0 0-.14.55l.02.01c.01-.16.06-.32.15-.47.12-.15.26-.28.41-.4l.01-.13-.01.04zm1.38-.32v.01c-.16.1-.3.21-.42.33a.86.86 0 0 0-.23.51s.01.02.02.01h.01c.04-.15.11-.3.22-.41.12-.12.25-.23.39-.33v-.11zm1.42-.08c-.22.07-.41.18-.58.32a.86.86 0 0 0-.22.45h.02a.9.9 0 0 1 .2-.34c.17-.15.37-.26.58-.33.02 0 .02-.03.02-.04v-.1l-.02.04zm1.2.57c-.18 0-.35.02-.52.05-.1.04-.2.1-.28.18a.02.02 0 0 0 0 .04l.06.01c.06-.06.14-.1.22-.13.17-.03.34-.05.51-.05.02 0 .03-.01.03-.02v-.1l-.03.02zm-4.93 1.9c-.04.12-.08.14-.18.2a.33.33 0 0 1-.3.06.38.38 0 0 1-.18-.13h-.02a.97.97 0 0 1-.2.1.3.3 0 0 1-.39-.14v-.01l-.01-.03v-.04l-.01-.05v.03c0 .07 0 .15.04.22.09.12.24.17.38.13l.2-.12h.03a.34.34 0 0 0 .49.08.3.3 0 0 0 .12-.15.33.33 0 0 0 .03-.18v.02zm4.8-.76a.08.08 0 0 1-.04.04c-.02 0-.04 0-.05-.02a1.99 1.99 0 0 0-1.23-.47 8.2 8.2 0 0 0-3.55.92l-.01.03.04.06a8.2 8.2 0 0 1 3.54-.9c.45 0 .88.17 1.23.46.01.02.03.03.05.03.02 0 .03-.04.04-.06a.96.96 0 0 0 .01-.22c0 .05 0 .09-.02.13zm-1.8 1.92a1.5 1.5 0 0 0-.39-.08 5.6 5.6 0 0 0-2.69.79l.03.07.02-.02a5.6 5.6 0 0 1 2.66-.74 1.35 1.35 0 0 1 .39.09v-.1h-.02zm.02 1.87v.02H5.4c-.48-.03-.96.03-1.43.16-.5.15-.96.36-1.4.62-.03.02-.03.02 0 .05l.02.03c.44-.26.9-.46 1.4-.6A4.25 4.25 0 0 1 5.44 9v-.1zm4.92 4.23c-.2.14-.41.25-.63.34l.03.06v.01c.21-.1.41-.2.6-.33h.02c.31-.09 1.58-.54 2.36-.55.48-.01.95.1 1.38.33.21.12.4.28.57.47l.04.03s.02 0 .02-.02a.83.83 0 0 0 .07-.41c0 .11-.02.23-.07.33l-.02.02a2.35 2.35 0 0 0-.61-.5 2.8 2.8 0 0 0-1.38-.34c-.78 0-2.04.47-2.35.55h-.03zm3.31 2.28a.14.14 0 0 1-.1.02c-.1-.13-.21-.24-.33-.34a1.29 1.29 0 0 0-.54-.27c-.3-.06-.6-.07-.91-.02-.59.08-1.15.27-1.66.57-.03.02-.04.02-.03.04l.03.03a4.6 4.6 0 0 1 1.65-.56c.3-.05.61-.04.91.02.2.04.38.13.54.26.12.1.24.22.34.34.03 0 .07 0 .1-.02a.53.53 0 0 0 .05-.22.3.3 0 0 1-.05.15zm-1.25 2.2c0 .02-.04 0-.05 0a1.31 1.31 0 0 0-.29-.22 1.53 1.53 0 0 0-.86-.15 2.5 2.5 0 0 0-1.19.53c-.02.01-.03.04-.02.05l.03.02c.34-.27.75-.46 1.19-.53.3-.03.6.01.86.15.1.06.2.13.29.22h.05a.34.34 0 0 0 .1-.27.3.3 0 0 1-.1.2z"/>
        <path fill="url(#b)" fill-rule="nonzero"
              d="M11.21 12.27l.07-.02.43-.1c.02 0 .03-.02.03-.02.05-.21.14-.41.26-.6a.83.83 0 0 1 1.03-.22.05.05 0 0 1 0 .08.75.75 0 0 0-.31.24c-.1.1-.16.2-.2.33l.01.03c.02.02.23 0 .32.02l.03-.02c.06-.23.2-.43.37-.57a.7.7 0 0 1 .66-.12c.14.03.26.12.32.25l-.01.04a.9.9 0 0 0-.42.19c-.1.07-.2.17-.26.28 0 0-.02.04.02.04l.31.1c.01 0 .04 0 .05-.02.12-.18.3-.3.52-.35.31-.05.62.09.67.3 0 .03.01.07-.01.07a.83.83 0 0 0-.48.17.57.57 0 0 0-.09.08c-.02.01-.02.03-.02.03.07.07.31.25.33.48.01.15-.01.3-.07.44 0 .01-.01.02-.03.02-.02 0-.02-.02-.03-.03a2.37 2.37 0 0 0-.58-.47c-.42-.23-.9-.34-1.37-.33-.78 0-2.05.46-2.37.54h-.02l.84-.86zm2.02 1.58c-.17.07-.3.2-.39.35 0 0-.02.04-.03.03l-.28-.03c-.04 0-.02-.04-.02-.04.03-.1.09-.2.16-.27a1 1 0 0 1 .4-.28v-.01a.53.53 0 0 0-.4-.2.69.69 0 0 0-.52.2c-.17.18-.27.4-.29.63 0 .02-.02.03-.03.03a1.7 1.7 0 0 1-.24.02v-.03c0-.12.02-.24.08-.34.1-.2.27-.38.46-.5.03-.02.04-.06.03-.06a.77.77 0 0 0-.73.07.8.8 0 0 0-.34.34 2.1 2.1 0 0 0-.14.66l-.03.03-.29.07-.02-.01a.94.94 0 0 1 .31-.84.03.03 0 0 0-.01-.06.83.83 0 0 0-.55.1.75.75 0 0 0-.38.56c-.02.17-.01.34.03.5l-.01.03-.3.15h-.02a.5.5 0 0 0-.23-.3.45.45 0 0 0-.37.01.46.46 0 0 0-.19.2c-.06.13-.01.3.11.38 0 0 .02.01 0 .02-.07.04-.08.05-.13.14a.36.36 0 0 0 .04.38.4.4 0 0 0 .6.07l.01.01.12.13a.4.4 0 0 0 .39 0c.13-.07.2-.2.18-.35a.32.32 0 0 0-.1-.22c0-.01 0-.02.03-.04a4.5 4.5 0 0 1 1.66-.57c.3-.04.61-.04.91.02.2.05.38.14.54.27.12.1.24.21.34.34.04 0 .07 0 .1-.02.06-.14.07-.3.01-.44a1.36 1.36 0 0 0-.32-.5v-.02c0-.02 0-.03.04-.06a1 1 0 0 1 .47-.26c.03 0 .04-.01.02-.04a.56.56 0 0 0-.68-.25zm3.2-12.35s-.1 6.14-.18 9.17c-.02.9-.18 1.79-.48 2.63-.35.96-.8 1.87-1.37 2.72a10.9 10.9 0 0 1-4.87 3.94c-.2.09-.37.17-.52.22-.17.06-.33.11-.5.15a4.13 4.13 0 0 1-.5-.15c-.16-.05-.33-.13-.53-.22a9.51 9.51 0 0 1-2.74-1.61 10.91 10.91 0 0 1-2.12-2.33 12.62 12.62 0 0 1-1.37-2.72 8.41 8.41 0 0 1-.49-2.63L.6 1.5l.05-.02A19.96 19.96 0 0 1 6.76.08C7.35.03 7.89.01 8.48.01h.05a23.6 23.6 0 0 1 5.33.66 19.96 19.96 0 0 1 2.57.83zM1.36 12.67h4.81a2.66 2.66 0 0 1-.7-1.78v-.08h-4.4c.02.63.12 1.25.29 1.86zm6.96 4.42h-4.5a10.9 10.9 0 0 0 2.04 1.73c.54.33 1.09.61 1.66.85.2.08.36.16.51.21l.29.1v-2.9zm0-2.1H2.33a9.52 9.52 0 0 0 1.28 1.86h4.7v-1.86zm0-1.26a3.3 3.3 0 0 1-1.94-.85H1.42l.1.33c.2.53.42 1.04.68 1.54h6.12v-1.02zm0-11.22a22.52 22.52 0 0 0-4.96.63 19.06 19.06 0 0 0-2.43.8c.03 1.97.08 4.83.13 6.64h4.4V8.93h-.04c-.48-.03-.97.03-1.43.17-.5.15-.97.35-1.4.61-.04.02-.04.02 0 .05a.7.7 0 0 1 .11.23.26.26 0 0 1-.14.28.36.36 0 0 1-.3.06.46.46 0 0 1-.19-.13c-.02-.02-.04 0-.06.02l-.2.1a.3.3 0 0 1-.38-.1.33.33 0 0 1 .01-.4l.16-.12c.01 0 .02-.03.01-.04a.74.74 0 0 1-.08-.13.34.34 0 0 1 .1-.36c.1-.08.24-.09.36-.03.08.03.13.13.18.2.01.02.02.02.04.01l.11-.06c.02-.01.01-.05 0-.06-.14-.36-.17-.6-.04-.85a.63.63 0 0 1 .4-.33.5.5 0 0 1 .32.02v.04a.93.93 0 0 0-.22.41.88.88 0 0 0 .02.42c0 .02.02.03.04.02l.27-.09c.02 0 0-.04 0-.06a1.1 1.1 0 0 1 .03-.67.82.82 0 0 1 .77-.45c.06 0 .13.06.09.09a.85.85 0 0 0-.41.87c0 .01.02.03.03.02l.33-.09c.02 0 .01-.04.02-.05 0-.27.1-.54.26-.75.2-.21.47-.32.76-.3.05.01.1.04.14.08v.05c-.29.19-.5.46-.62.77l.02.03.5-.05c.03 0 .03-.01.03-.03a.85.85 0 0 1 .4-.48v-.8h-.02a1.5 1.5 0 0 0-.4-.1 5.6 5.6 0 0 0-2.68.8c.1.24.04.38-.1.47a.33.33 0 0 1-.45-.1.04.04 0 0 0-.05-.01.6.6 0 0 1-.31.1.28.28 0 0 1-.25-.19.36.36 0 0 1 .23-.45c.02 0 .01-.02 0-.03a.3.3 0 0 1 .07-.45.33.33 0 0 1 .48.18c0 .02 0 .01.02.01a.44.44 0 0 0 .16-.06c.02 0 .05-.08.05-.1 0-.41-.01-.67.26-.93.12-.12.5-.2.6-.08v.02a.56.56 0 0 0-.2.2.79.79 0 0 0-.13.58s0 .04.01.03l.34-.12v-.04c-.02-.28.07-.55.23-.77.18-.2.62-.4.83-.2.02 0 0 .03-.02.05a.85.85 0 0 0-.29.24c-.1.13-.17.28-.2.44l.03.06c.1-.02.28-.05.37-.08.05-.01.04-.03.05-.08a.9.9 0 0 1 .8-.81.7.7 0 0 1 .43.06l.09.08a.03.03 0 0 1-.02.05.93.93 0 0 0-.44.16.62.62 0 0 0-.3.4c0 .02.02.05.04.05a5.74 5.74 0 0 0 .43-.04.83.83 0 0 1 .53-.5c.27-.1.58-.03.79.17.02.04.02.05 0 .05-.22.04-.43.13-.6.26-.03.03-.06.04-.02.05h2.5V2.5zm2.05 10.63c-.2.14-.4.25-.63.35l.04.05c.02.06.03.12.02.18a.2.2 0 0 1-.15.19.32.32 0 0 1-.32-.06.27.27 0 0 1-.26.1.28.28 0 0 1-.19-.15l-.02-.08-.27.02v6.28l.4-.14.5-.2a9.15 9.15 0 0 0 2.63-1.56c.8-.66 1.48-1.42 2.05-2.27.54-.83.99-1.71 1.32-2.64.28-.8.43-1.63.46-2.47h-4.34v.15c-.02.9-.48 1.74-1.24 2.25zM16 8.59h-4.38v1.91h4.34L16 8.6zm.04-1.9h-4.42v1.63h4.39l.03-1.63zm.04-2.13h-7.5v1.86h7.46l.04-1.86zm0-.62a19.06 19.06 0 0 0-5.88-1.36c-.56-.05-1.06-.07-1.61-.07v1.81h7.5v-.38zm.05-2.17A20.98 20.98 0 0 0 8.53.32h-.05A21.1 21.1 0 0 0 .9 1.75 1788.3 1788.3 0 0 0 .94 3.7a19.1 19.1 0 0 1 5.88-1.36c.57-.05 1.1-.09 1.67-.1h.05a22.54 22.54 0 0 1 5.12.65 19.1 19.1 0 0 1 2.43.81l.04-1.93zm-4.07 14.62a.92.92 0 0 0-.3.34s0 .03-.01.02l-.18-.05v-.02a.92.92 0 0 1 .58-.48c.02 0 .01-.02.01-.03-.1-.22-.56-.2-.79-.06a.99.99 0 0 0-.41.6l-.01.04-.2.05-.01-.02a.54.54 0 0 1 .05-.34c.08-.12.17-.24.28-.34a.04.04 0 0 0 0-.05.42.42 0 0 0-.44 0 .83.83 0 0 0-.4.47.92.92 0 0 0 .01.48v.03l-.18.08h-.02a.53.53 0 0 1 .07-.63c.02-.01.02-.03 0-.04a.5.5 0 0 0-.46.17.57.57 0 0 0-.1.55c.02.08.05.16.09.23 0 0 .03.01.01.02l-.13.1h-.01a.41.41 0 0 0-.25-.2c-.1-.03-.2 0-.27.07a.3.3 0 0 0 .13.51v.02a.5.5 0 0 0-.16.18.32.32 0 0 0 .07.34c.07.06.16.09.25.07a.51.51 0 0 0 .3-.26h.03c.05.07.13.13.22.16.1.04.2.02.27-.05a.3.3 0 0 0 .1-.34.52.52 0 0 0-.17-.18c-.01-.01 0-.03.02-.05.34-.27.75-.46 1.19-.52.3-.04.6 0 .86.14.1.06.2.13.29.22.01 0 .04.02.05 0a.34.34 0 0 0 .03-.45.55.55 0 0 0-.17-.14V17a.77.77 0 0 1 .25-.33c.07-.05.16-.1.25-.12v-.04c-.1-.25-.54-.26-.74-.13zM6.92 3.63c.2.02.38.15.45.34l-.03.02c-.17 0-.34.02-.51.05-.1.04-.2.1-.28.18v.03c.2.05.38.15.52.3.17.14.23.36.18.57l-.05.05a.05.05 0 0 1-.05-.03 1.99 1.99 0 0 0-1.23-.47 8.2 8.2 0 0 0-3.55.91c-.01 0-.02.03-.01.04a.3.3 0 0 1 .07.26c-.03.12-.07.13-.17.2a.33.33 0 0 1-.48-.06h-.02l-.21.1a.3.3 0 0 1-.36-.11.37.37 0 0 1 .17-.5.03.03 0 0 0 0-.05.3.3 0 0 1 .13-.41c.13-.08.42-.13.5.13a.02.02 0 0 0 .03.01l.2-.07c.01-.01.02-.04.01-.07a1.2 1.2 0 0 1 .17-.96c.28-.31.6-.45.95-.31.02 0 0 .03 0 .04-.14.14-.33.23-.44.4a.99.99 0 0 0-.14.55l.03.01.6-.2c.01 0 .04 0 .04-.02 0-.11 0-.23.02-.35.05-.32.27-.6.58-.73.21-.1.45-.1.67-.01.01 0 .02.03.01.04-.15.1-.29.21-.42.34a.83.83 0 0 0-.22.5l.01.01c.2-.04.38-.08.58-.1l.03-.03c.03-.18.17-.68.42-.84.25-.18.57-.24.88-.16a.6.6 0 0 1 .17.15l-.03.04c-.2.07-.4.18-.57.33a.8.8 0 0 0-.22.43 10.28 10.28 0 0 1 .56 0 .9.9 0 0 1 .42-.46c.19-.08.4-.11.6-.09z"/>
        <path fill="url(#c)"
              d="M13.91 1.2c.63.17 1.24.37 1.84.6.02 0 .02.02.02.04v.27c0 .03-.02.04-.05.03a15 15 0 0 0-1.39-.44v.17l.02.01a18.19 18.19 0 0 1 1.4.47v.4s0 .01 0 0a18.5 18.5 0 0 0-1.44-.44v.15l.01.02a14.06 14.06 0 0 1 1.43.49v.35s0 .03-.03.02a18.84 18.84 0 0 0-1.84-.62c0-.52.01-1 .03-1.5V1.2zM11.8 2.31l.38.06.03-.01v-.54c0-.01 0-.02.02-.01l.93.18s.05 0 .05.03a31.23 31.23 0 0 1 0 .55l.36.09.04-.01c.02-.38.02-1 .03-1.51v-.02l-.4-.09-.01.03c-.01.19 0 .36-.02.55l-.01.01-.96-.2V.85a19.68 19.68 0 0 0-.37-.08c-.02 0-.02 0-.02.02l-.05 1.5v.02zM10.18.57a.34.34 0 0 0-.35.28l-.01 1c0 .13.09.23.2.25.52.05 1.03.1 1.6.19l.03-.02v-.35l-.02-.03-1.35-.16a.06.06 0 0 1-.05-.06V.98c0-.03.04-.04.07-.04.45.04.9.12 1.35.17 0 0 .03 0 .03-.02V.77a30.67 30.67 0 0 0-1.5-.2zM9.49.52C9 .5 8.46.48 7.96.5c-.1 0-.24.1-.24.2v.55c0 .1.14.2.25.2.4 0 .74 0 1.12.02.03 0 .05.02.05.05v.11a.04.04 0 0 1-.04.04c-.44 0-.9-.02-1.35.02l-.02.01-.02.33v.03c.53-.04 1.06-.04 1.59 0 .13 0 .23-.1.26-.23V1.3c0-.1-.13-.19-.22-.2-.37-.02-.8 0-1.18-.01a.04.04 0 0 1-.04-.05l.01-.12c0-.02.02-.03.04-.03.38-.01.94 0 1.32.02.03 0 .05-.03.05-.06V.58c0-.02-.02-.06-.05-.06zm-2.25.98c.1-.04.17-.15.17-.26 0-.16 0-.32-.02-.48a.27.27 0 0 0-.25-.21c-.36 0-1.14.1-1.58.16v1.55l.4-.05a.01.01 0 0 0 0-.01v-.44l.8-.1c.08 0 .16.05.22.15.06.09.09.19.1.29l.4-.03h.02a.84.84 0 0 0-.26-.57zm-.28-.33c0 .07-.05.13-.12.14l-.9.1v-.37l.95-.1a.06.06 0 0 1 .07.06v.16zM5.56.71zm-.24.31a.24.24 0 0 0-.1-.16.26.26 0 0 0-.19-.07c-.46.07-.92.17-1.38.27a.42.42 0 0 0-.2.12.27.27 0 0 0-.09.17v.95c.01.08.04.16.1.22.03.06.1.1.17.1.46-.1.93-.2 1.38-.27a.42.42 0 0 0 .23-.15.3.3 0 0 0 .08-.2v-.98zm-.46.88a.1.1 0 0 1-.04.1.25.25 0 0 1-.1.03l-.85.16c-.02.01-.05 0-.07-.01a.11.11 0 0 1-.03-.09v-.61c0-.03.02-.06.04-.08a.2.2 0 0 1 .1-.05l.82-.15c.03 0 .07 0 .1.02a.1.1 0 0 1 .04.09v.6zM3.2 1.48a.23.23 0 0 0-.1-.17.3.3 0 0 0-.24-.05c-.55.14-1.1.35-1.66.55a.05.05 0 0 0-.03.05v1.52l.5-.18v-.47l.01-.03 1.38-.43a.26.26 0 0 0 .11-.08.2.2 0 0 0 .05-.13l-.02-.58zm-.44.46c0 .04-.06.08-.1.1l-1 .32-.03-.01v-.3a9.14 9.14 0 0 1 1.05-.37c.04-.01.07.02.07.05v.2z"/>
        <path fill="#432918"
              d="M1.67 2.1c-.02 0-.03.01-.03.02v-.07a9.13 9.13 0 0 1 1.05-.37c.02-.01.05.02.06.05v.07c0-.02-.03-.06-.06-.05-.35.1-.69.21-1.02.34zm1.54-.04a.2.2 0 0 1-.04.13.26.26 0 0 1-.12.09l-1.37.42-.01.03v.04l1.38-.42a.26.26 0 0 0 .12-.08.2.2 0 0 0 .04-.13v-.08zM1.67 3.17v.03l-.5.18v.08l.5-.18v-.11zm3.15-1.95a.14.14 0 0 0-.1-.02l-.81.15a.2.2 0 0 0-.1.05.12.12 0 0 0-.04.08v.09c0-.03.02-.06.04-.09a.2.2 0 0 1 .1-.05l.82-.14a.2.2 0 0 1 .1.02.1.1 0 0 1 .04.09v-.1a.1.1 0 0 0-.05-.09zm.2 1.12c-.46.08-.93.17-1.39.28a.2.2 0 0 1-.17-.1.37.37 0 0 1-.09-.2V2.3v.08c0 .08.04.15.09.21.05.07.12.11.17.1.46-.1.93-.18 1.38-.26a.42.42 0 0 0 .23-.15.3.3 0 0 0 .08-.19v-.08a.3.3 0 0 1-.08.19.42.42 0 0 1-.23.14zM6.88.96l-.94.09h-.01v.08l.95-.09a.06.06 0 0 1 .07.06V1A.06.06 0 0 0 6.9.95zm.52.37v-.1c0 .12-.06.22-.17.27l.06.05a.26.26 0 0 0 .1-.22zm.06.74l-.4.03a.74.74 0 0 0-.09-.29c-.06-.1-.14-.15-.21-.14l-.8.08v.08l.8-.08c.07-.02.15.04.21.14.05.09.09.19.1.29l.4-.03.02-.01v-.08h-.03zm-1.52.14l-.4.05v.08l.4-.05a.01.01 0 0 0 .01-.01V2.2a.01.01 0 0 1 0 .01zM9.5.98c.03 0 .05-.02.05-.05V.85c0 .03-.02.05-.05.06C9.11.89 8.55.88 8.17.89c-.03 0-.04 0-.04.03V1c0-.03.01-.03.04-.03.38-.02.94 0 1.32.01zm-1.52.55c.4 0 .74 0 1.12.03.02 0 .05.01.05.04v-.08c0-.03-.03-.04-.05-.04-.38-.03-.73-.02-1.12-.03-.11 0-.26-.09-.26-.2v.08c0 .1.15.2.26.2zm1.33.53c-.53-.04-1.07-.04-1.6 0v.07a13.8 13.8 0 0 1 1.6 0c.13 0 .23-.1.26-.22v-.08a.27.27 0 0 1-.26.23zm2.35-.95c-.45-.05-.9-.13-1.35-.17-.03 0-.07.02-.07.05v.08c0-.03.04-.05.07-.05.45.04.9.12 1.35.17 0 0 .03 0 .03-.02V1.1l-.03.02zm-.03 1.18a19.6 19.6 0 0 0-1.6-.18.26.26 0 0 1-.2-.25v.08c0 .12.09.22.2.24.52.05 1.02.1 1.6.18l.03-.01v-.08l-.03.02zm1.57-.19v-.08a24.55 24.55 0 0 0-1-.2l.01.08.02-.01a26.57 26.57 0 0 1 .97.21zm-1.02.28c-.1-.03-.25-.04-.38-.07v.07l.38.06c.01 0 .03 0 .03-.02v-.06c0 .01-.01.02-.03.01zm1.4.28l-.36-.08a.03.03 0 0 1-.03-.04v.08c0 .02.01.03.03.04l.35.08h.03v-.09c.01.01 0 .02-.03.01zm2.15-.52a15 15 0 0 0-1.39-.44v.08h.02c.48.12 1 .3 1.36.43.03.01.05 0 .05-.02v-.07c0 .02-.01.03-.04.02zm.02.62a18.5 18.5 0 0 0-1.43-.45v.07h.02a18.07 18.07 0 0 1 1.42.44v-.08.02zm-.02.58a18.84 18.84 0 0 0-1.84-.62v.08l.01.02c.62.17 1.23.37 1.82.6.03 0 .03-.02.03-.03v-.07c0 .01 0 .03-.02.02z"/>
        <path fill="#000" fill-rule="nonzero"
              d="M15.7 1.96v.13l-.1-.04-.06-.03a18.16 18.16 0 0 0-.92-.3l-.13-.03-.12-.03-.1-.03v.3l.06.02.05.01.08.03.08.02a17.65 17.65 0 0 1 1.03.33l.04.01.09.03v.31h-.01l-.09-.03-.06-.02a17.74 17.74 0 0 0-1.14-.36l-.15-.04v.28l.06.02.12.04.11.03.05.02.05.01.48.16.46.15h.02l.01.01.03.01.05.02v.28h-.01l-.09-.03h-.02l-.01-.01c-.29-.1-.57-.2-.82-.27-.26-.09-.57-.18-.8-.24V2.7l.01-.59.01-.84a21.52 21.52 0 0 1 1.6.5l.06.03.09.03v.13zm-2.14-.78a3.13 3.13 0 0 0-.27-.06v.37l-.01.14v.1l-.08-.02h-.05l-.04-.02h-.05l-.33-.08-.34-.07h-.04l-.08-.02-.09-.01h-.02V.89L12.1.88l-.06-.01-.06-.01-.09-.02v.07a305.09 305.09 0 0 1-.02.76v.13l-.01.11a52.84 52.84 0 0 0-.01.36l.07.02h.05l.07.02.1.01h.01v-.29l.01-.18v-.11h.07a22.32 22.32 0 0 1 .87.18h.05l.05.02.06.02v.54l.09.02.06.02.05.01.09.02v-.13a33.63 33.63 0 0 0 .02-1.2V1.2h-.01zM10.7.67l-.52-.06a.29.29 0 0 0-.2.08c-.06.03-.1.1-.1.16l-.01.5v.51l.01.08c0 .02.02.04.04.06a.2.2 0 0 0 .1.06h.09l.67.07.7.08.1.02v-.27l-.12-.01-.1-.02h-.02l-.56-.07-.57-.06-.03-.02v-.8c-.01-.02 0-.05.02-.07a.14.14 0 0 1 .08-.02c.12 0 1.17.15 1.34.17V.78L10.7.67zm-3.32 1.1c.04.07.07.17.07.26l-.33.02a.94.94 0 0 0-.1-.28.27.27 0 0 0-.26-.16l-.86.1v.45l-.15.02-.15.02V.75S6.97.59 7.12.6c.16.01.19.09.2.17.02.17.02.34.02.5a.34.34 0 0 1-.16.22c.09.07.16.17.21.27zM7.03 1A.1.1 0 0 0 7 .93.19.19 0 0 0 6.89.9L5.9 1v.44l.48-.05.47-.04a.2.2 0 0 0 .13-.06.18.18 0 0 0 .05-.12V1zM5.25 1v1a.31.31 0 0 1-.23.27l-1.35.26c-.1.02-.23-.1-.23-.21v-.97c0-.11.12-.2.22-.22L5.02.86a.2.2 0 0 1 .23.16zm-.31.27c0-.08-.04-.16-.17-.14l-.87.16c-.14.03-.2.08-.2.2v.63c0 .09.06.15.15.13l.96-.18c.08-.02.13-.1.13-.17v-.63zm4.42-.12l-.37-.01h-.87c-.02 0-.02-.01-.03-.02a.08.08 0 0 1-.02-.05v-.1l.01-.13c.01-.02.03-.02.07-.03h1.02l.3.01V.58l-.4-.02H7.95a.25.25 0 0 0-.11.04.12.12 0 0 0-.06.08v.59c0 .03.02.06.05.08.04.02.08.04.12.04h.39a18.55 18.55 0 0 1 .79.03c.04 0 .05.01.06.04v.15a.2.2 0 0 1-.01.1l-.08.02H8.08l-.3.01V2a19.62 19.62 0 0 1 1.2-.01h.16l.18.01a.2.2 0 0 0 .11-.05.14.14 0 0 0 .07-.1V1.3a.14.14 0 0 0-.05-.09.18.18 0 0 0-.1-.05zm-6.22.32l.01.58v.04c0 .03-.02.05-.04.07a.19.19 0 0 1-.08.05l-1.42.45v.49l-.37.13V2.6l-.01-.72c0-.01 0-.02.03-.03l1-.35.6-.18a.3.3 0 0 1 .19.03c.05.03.08.08.1.13zm-.32.45l-.01-.2a.12.12 0 0 0-.04-.08.1.1 0 0 0-.07-.03h-.02l-.5.15-.6.22.01.43 1.1-.35a.22.22 0 0 0 .08-.05.14.14 0 0 0 .05-.1zm4.75 5.14v.4c0 .05 0 .09-.03.13a.12.12 0 0 1-.1.05.12.12 0 0 1-.1-.05.22.22 0 0 1-.04-.13v-.4a.05.05 0 1 0-.1 0v.37a.3.3 0 0 0 .05.22c.04.06.11.1.19.09.08 0 .15-.03.2-.1a.4.4 0 0 0 .04-.21v-.37a.05.05 0 1 0-.1 0zm.54.04a.05.05 0 0 0 0-.1h-.3a.05.05 0 1 0 0 .1h.1v.58a.05.05 0 1 0 .1 0V7.1h.1zm.48 0a.05.05 0 0 0 0-.1h-.3a.05.05 0 1 0 0 .1h.1v.58a.05.05 0 0 0 .1 0V7.1h.1zm.57.2H9c-.05 0-.05.03-.05.05A.05.05 0 0 0 9 7.4h.11v.04a.2.2 0 0 1-.14.2.13.13 0 0 1-.13-.08.44.44 0 0 1 0-.39.13.13 0 0 1 .12-.08c.05 0 .09.03.11.08.01.02.04.02.06.01a.04.04 0 0 0 .03-.05.2.2 0 0 0-.2-.13.2.2 0 0 0-.19.1.49.49 0 0 0-.07.26c0 .1.02.19.07.27.03.07.1.12.19.12.04 0 .09-.01.13-.04.06-.05.1-.12.12-.2l.01-.13c0-.03 0-.07-.06-.07zm1.75-.2a.05.05 0 1 0 0-.1h-.3a.05.05 0 1 0 0 .1h.1v.58a.05.05 0 0 0 .1 0V7.1h.1zm-.62.37l.02-.01a.26.26 0 0 0 .1-.06.2.2 0 0 0 .06-.17.24.24 0 0 0-.1-.18.3.3 0 0 0-.17-.04h-.16l-.05.01v.66a.05.05 0 0 0 .04.06.05.05 0 0 0 .06-.06v-.2h.1l.15.22c.02.02.03.03.05.03.03 0 .05-.02.05-.05 0-.01 0-.03-.02-.04l-.13-.17zm-.2-.09V7.1h.12c.04 0 .08.02.11.04.03.03.04.06.04.1a.15.15 0 0 1-.17.14h-.1zm-.43-.32A.1.1 0 0 0 9.59 7a.09.09 0 0 0-.08.07l-.2.62.01.04.04.02c.03 0 .05 0 .06-.03l.03-.11h.28l.03.1c.01.03.03.04.06.04.01 0 .03 0 .04-.02a.07.07 0 0 0 0-.06l-.2-.6zm.03.45h-.22l.12-.4.12.4h-.02zm-3.1-.14a.52.52 0 0 0-.23-.07.1.1 0 0 1-.08-.11.12.12 0 0 1 .12-.09c.05 0 .1.02.14.06.03.04.08 0 .08-.03S6.57 7 6.42 7a.27.27 0 0 0-.16.05.19.19 0 0 0-.09.14c0 .06.02.12.06.16a.2.2 0 0 0 .14.06c.07 0 .13.03.17.08.01.04 0 .08-.02.1a.19.19 0 0 1-.13.04.2.2 0 0 1-.13-.05.07.07 0 0 0-.07-.02c-.04.01-.03.06-.03.06.05.08.13.13.22.12.08 0 .16-.02.21-.07a.2.2 0 0 0 .06-.15.17.17 0 0 0-.07-.15zm.46-.26a.05.05 0 0 0 0-.1h-.3a.05.05 0 0 0 0 .1h.1v.58a.05.05 0 1 0 .1 0v-.58h.1zm-4.3-2.8c.1-.17.22-.33.4-.44.07-.05.07-.07.07-.07 0-.01-.01-.02-.12-.02a.78.78 0 0 0-.44.19 1 1 0 0 0-.31.5c-.03.22-.03.45.01.67l-.36.2a.58.58 0 0 0-.1-.2.28.28 0 0 0-.3-.04.22.22 0 0 0-.13.22.4.4 0 0 0 .08.2.49.49 0 0 0-.2.12.3.3 0 0 0-.07.28.2.2 0 0 0 .21.12.64.64 0 0 0 .31-.16c.04.05.08.1.13.13.04.04.1.06.15.06.05 0 .1-.02.13-.04a.23.23 0 0 0 .12-.22c-.01-.13-.13-.18-.13-.23.63-.35 1.3-.61 1.99-.77.47-.13.95-.2 1.44-.23.3-.04.62 0 .91.1.25.05.47.18.65.35a.6.6 0 0 0-.33-.52c-.16-.1-.35-.17-.54-.18l.16-.22c.1-.1.24-.17.38-.2l.38-.02a.29.29 0 0 0-.26-.17.88.88 0 0 0-.43.04c-.25.1-.45.3-.55.56a6.46 6.46 0 0 0-.76 0c.02-.2.1-.4.22-.57.14-.16.32-.28.52-.34a.3.3 0 0 0 .09-.04c-.04-.04-.1-.09-.32-.1a.84.84 0 0 0-.69.38c-.12.2-.2.44-.21.68-.41.07-.89.2-.89.2.01-.17.05-.34.1-.5.1-.19.26-.35.44-.46l.09-.06a.36.36 0 0 0-.18-.03.9.9 0 0 0-.39.11.8.8 0 0 0-.4.7c-.02.06 0 .3 0 .36a9 9 0 0 0-.94.3c-.03-.21 0-.43.09-.62zM6.19 6.1l.14-.05A.3.3 0 0 0 6.25 6a.62.62 0 0 0-.3-.07.7.7 0 0 0-.31.07.9.9 0 0 0-.42.52l-.33.01-.35.03.02-.18a.84.84 0 0 1 .17-.32.9.9 0 0 1 .52-.3h.05a.4.4 0 0 0-.23-.07.87.87 0 0 0-.86.8l-.01.1-.25.05-.42.1a1.14 1.14 0 0 1 .52-.92.55.55 0 0 0-.14-.02.63.63 0 0 0-.58.41 1.7 1.7 0 0 0-.1.66c-.14.04-.43.15-.55.2a1.1 1.1 0 0 1 0-.5.77.77 0 0 1 .29-.44c-.01 0-.04-.02-.16 0a.63.63 0 0 0-.45.44 2.7 2.7 0 0 0-.05.67l-.36.17a.56.56 0 0 0-.06-.17.22.22 0 0 0-.19-.1.29.29 0 0 0-.12.03.16.16 0 0 0-.08.1.2.2 0 0 0 .01.15l.06.09.06.08a.62.62 0 0 0-.22.1c-.1.07-.13.2-.07.3.03.07.1.11.18.1.12 0 .23-.06.31-.15l.1.15c.04.05.1.09.18.09a.2.2 0 0 0 .1-.03.25.25 0 0 0 .12-.21.33.33 0 0 0-.09-.2l-.01-.03.17-.1a6.9 6.9 0 0 1 2.67-.76c.13.01.26.04.38.09V6.4h.2a.96.96 0 0 1 .53-.31zm-.73 1.94v.77a5.63 5.63 0 0 0-3.06.9c.1.05.17.13.2.23.05.15-.05.29-.24.3-.18 0-.23-.16-.28-.22l-.22.18a.3.3 0 0 1-.15.04.22.22 0 0 1-.18-.08.21.21 0 0 1-.04-.18.27.27 0 0 1 .14-.17l.15-.1c-.01-.05-.11-.13-.14-.2-.03-.1 0-.22.09-.29a.23.23 0 0 1 .26.01c.1.06.15.25.17.27l.32-.23c-.11-.2-.17-.43-.16-.66.05-.35.41-.6.6-.5a.83.83 0 0 0-.24.55c-.02.16 0 .32.08.46l.53-.2c-.1-.24-.1-.52-.02-.77a.72.72 0 0 1 .64-.4.94.94 0 0 0-.38 1.05l.58-.18a1.1 1.1 0 0 1 .23-.75.8.8 0 0 1 .54-.33c.05 0 .1 0 .14.02 0 .02 0 .02-.03.04l-.03.02c-.19.14-.35.32-.48.52a.84.84 0 0 0-.09.39v.01l.41-.06.36-.02.1-.22a.97.97 0 0 1 .2-.2zm7.44 3.32a.64.64 0 0 0-.35.27c-.14.22-.2.46-.11.46h.17c.1 0 .2 0 .3.02a.1.1 0 0 0 .05-.03.44.44 0 0 0 .03-.06c.08-.24.23-.45.43-.6a.44.44 0 0 1 .27-.09c.15-.01.3.05.4.17.03.05-.17-.05-.48.27-.1.1-.17.22-.22.35l.01.03c.15.04.4.1.52.15.03.02.06 0 .08-.02.07-.1.16-.2.26-.27a.7.7 0 0 1 .39-.1h.02c.3.03.31.18.33.2.01.02-.07.02-.1.03a.9.9 0 0 0-.5.31c-.03.04.05.1.05.1a.6.6 0 0 1 .3.6c-.01.05 0 .07-.05.07a2.05 2.05 0 0 0-1.27-.69 4.95 4.95 0 0 0-2 .14c-.08.02-.38.1-.63.19l-.16.05.1-.1c.12-.1.22-.21.32-.33l.07-.1.12-.03.52-.11c.06-.01.1-.06.1-.12.03-.2.12-.39.25-.54.11-.17.3-.28.5-.3.23-.02.32.06.28.07zm-3.73 3.9a.38.38 0 0 1-.15-.27c0-.1.06-.2.16-.24.1-.04.22-.03.32.03.12.08.12.16.16.28h.02l.4-.19.06-.03s.02-.01.01-.05a1.28 1.28 0 0 1-.06-.4.85.85 0 0 1 .15-.4c.18-.33.53-.3.5-.27-.12.14-.2.32-.24.5a.8.8 0 0 0 0 .31c0 .05.01.1.04.12.03.02.14-.04.2-.07l.3-.07c.05-.01.03-.04.03-.05 0-.28.08-.57.23-.8a.78.78 0 0 1 .51-.3c.08 0 .18.03.15.05l-.13.1c-.1.08-.2.2-.28.31a.96.96 0 0 0-.1.58c.17 0 .33-.02.48-.06.03-.01.04-.03.05-.06.06-.18.12-.53.31-.65.1-.08.21-.13.33-.13.1 0 .33.06.28.09a.98.98 0 0 0-.38.28.65.65 0 0 0-.13.34c-.02.07.06.09.06.09.13 0 .26.02.39.04.03.01.06-.04.07-.05.06-.1.13-.18.22-.25a.49.49 0 0 1 .3-.13c.24 0 .36.17.33.18a.95.95 0 0 0-.52.34c0 .01-.03.02 0 .05.22.18.36.43.4.71 0 .02.02.12-.02.14a2.35 2.35 0 0 0-.53-.48 1.83 1.83 0 0 0-.88-.2c-.38 0-.75.06-1.11.17-.4.12-.79.3-1.15.5.06.05.1.1.13.17.05.11.02.25-.08.32a.23.23 0 0 1-.21.04c-.18-.03-.22-.2-.24-.26a.26.26 0 0 1-.13.14.26.26 0 0 1-.37-.06.24.24 0 0 1 .04-.34l.08-.07zm.6 2.15a1.22 1.22 0 0 1-.07-.18.76.76 0 0 1-.05-.4.4.4 0 0 1 .35-.32.4.4 0 0 0-.1.34c.01.12.05.23.1.34.02.02.03 0 .04 0a3 3 0 0 1 .3-.15.87.87 0 0 1 .08-.68.6.6 0 0 1 .43-.3c.01 0 .12 0 .13.04a.86.86 0 0 0-.29.35.8.8 0 0 0-.03.45h.02a6.02 6.02 0 0 1 .36-.1c.05-.21.16-.4.32-.55a.8.8 0 0 1 .42-.18c.2 0 .23.06.25.1.02.01-.04-.02-.14.02a.92.92 0 0 0-.3.25.6.6 0 0 0-.14.31v.02a2 2 0 0 1 .35.09l.02-.01c.06-.12.15-.24.25-.33.1-.09.22-.14.35-.14.08 0 .16.02.22.07 0 0 .08.06.06.07a.73.73 0 0 0-.35.22c-.14.16-.14.2-.15.24-.01.04 0 .05.03.08.22.14.24.26.25.33.02.09-.04.2-.1.12a.74.74 0 0 0-.36-.26 1.78 1.78 0 0 0-1.22-.02c-.25.07-.5.2-.7.35l-.1.07-.2.16c-.02.02.03.04.05.05.25.1.25.28.19.35a.18.18 0 0 1-.22.03c-.18-.12-.15-.22-.23-.2-.06.02-.12.16-.16.21a.2.2 0 0 1-.27.04.22.22 0 0 1-.04-.3l.15-.13a.91.91 0 0 1-.19-.13.2.2 0 0 1 .01-.3.22.22 0 0 1 .32.05 8.74 8.74 0 0 0 .12.13 10.23 10.23 0 0 1 .24-.2zm1.16-7.01h-.09a.11.11 0 0 1-.07-.05.17.17 0 0 1-.04-.07l.03-.04a.42.42 0 0 0 .1-.12.3.3 0 0 0 .04-.13h-.02l-.08.08a.17.17 0 0 1-.1.03.1.1 0 0 1-.07-.03.22.22 0 0 1-.04-.07c0-.02.03-.04.05-.04.05 0 .1-.02.14-.05a.16.16 0 0 0 .06-.07l.02-.07v-.01c-.03 0-.05.02-.07.03a.17.17 0 0 1-.13-.01.33.33 0 0 1-.1-.11l.01-.03c.04 0 .08-.05.1-.1a.2.2 0 0 0 .02-.04l.03-.04v-.1a.12.12 0 0 0-.03-.06h-.03c-.02.03 0 .07-.03.1a.33.33 0 0 1-.08.1c-.02 0-.04.02-.06.01a.12.12 0 0 1-.06-.08c0-.04 0-.08.02-.11.04-.08.09-.15.14-.21l.1-.13c.03-.04.05-.11.02-.12-.03-.02-.05.06-.08.07-.1.04-.21.1-.3.17a.52.52 0 0 0-.1.2c-.01.03 0 .08-.02.12 0 .01-.03.03-.04.02a.27.27 0 0 1-.08-.12v-.11a.2.2 0 0 0-.1.1.26.26 0 0 0 .02.2c.05.08.1.16.17.24l.14.23a.3.3 0 0 1 .05.21.4.4 0 0 1-.11.2h-.03l-.18-.15a.75.75 0 0 0-.26-.1 1.65 1.65 0 0 0-.33 0c-.12 0-.24.02-.36.01-.1 0-.19 0-.28-.03a.31.31 0 0 1-.16-.14.39.39 0 0 1-.03-.22c0-.06.02-.12.05-.17a.27.27 0 0 1 .1-.12.25.25 0 0 1 .18-.02.52.52 0 0 1 .14.12h.02a.47.47 0 0 0-.03-.24 1 1 0 0 0-.1-.16c0-.02.03-.02.04-.02.07 0 .13.02.18.06a.3.3 0 0 1 .09.09h.01c0-.1-.03-.2-.09-.27a.3.3 0 0 0-.11-.1c-.03 0 .02-.03.04-.03.05 0 .1 0 .15.02l.05.04.03.02.01-.02a.22.22 0 0 0-.03-.08 2.26 2.26 0 0 0-.27-.22.38.38 0 0 1-.05-.11c0-.01-.03-.03-.03-.05v-.06c.03-.05.05-.05.1-.08a.57.57 0 0 1 .12-.02h.04l-.01-.03a.29.29 0 0 0-.17-.05.5.5 0 0 0-.23.02.42.42 0 0 1-.18.05c-.04 0-.09 0-.12-.02a.1.1 0 0 1-.06-.07c0-.05.01-.1.04-.14a.17.17 0 0 1 .08-.07c.02 0 .03-.02.03-.03 0-.02-.03-.01-.04 0a.7.7 0 0 0-.2.07.82.82 0 0 0-.12.14l-.03.02H8.2l-.15.08-.14.08a.43.43 0 0 1-.12.01c-.08 0-.19 0-.2.1-.01.01 0 .03.02.04l.04.02.05.02.03.02v.01c0 .02-.02.03-.03.03a.19.19 0 0 1-.13-.01.04.04 0 0 0-.06 0 3.28 3.28 0 0 1-.31.24v.02c0 .02-.02.03-.04.03a.05.05 0 0 0-.03.05V9a.05.05 0 0 0 .08.04l.07-.02h.04v.04l-.03.04c-.01.02-.02.04 0 .06a.1.1 0 0 0 .11-.01.2.2 0 0 0 .04-.05c0-.02.02-.04.04-.05a.33.33 0 0 1 .13-.03l.09.03.01.02v.01a.3.3 0 0 1-.03.09l-.02.06-.03.07c0 .02-.01.02-.03.03l-.12.1a.79.79 0 0 0-.17.2.28.28 0 0 0-.04.09c-.01.06-.02.15-.1.1a2.03 2.03 0 0 1-.22-.14.3.3 0 0 1-.07-.07c-.07-.1-.15-.01-.2.06a3.27 3.27 0 0 1-.27.38.26.26 0 0 1-.05.08.17.17 0 0 0-.03.11.3.3 0 0 1-.06.2.18.18 0 0 0-.05.1v.12c0 .03.01.05.05.05h.02a.64.64 0 0 0 .18-.11.05.05 0 0 0 0-.08h-.01a.07.07 0 0 1-.03-.04v-.05l.01-.05c0-.02.01-.04.03-.05l.08-.06a.11.11 0 0 0 .03-.14v-.04a4.77 4.77 0 0 1 .08-.13.18.18 0 0 1 .1-.08.2.2 0 0 1 .17.05c.04.06.07.13.09.2a.7.7 0 0 0 .07.18.08.08 0 0 0 .13.02h.02c.01-.01.03 0 .04.01l.07.08c.03.01 0 .04-.02.04h-.11a1.28 1.28 0 0 1-.4.07.05.05 0 0 0-.05.02v.02l-.01.03a.13.13 0 0 0 0 .1c.05.17.06.35.03.54a.2.2 0 0 0 .05.18c.01.02.03.03.06.04l.02.01a.1.1 0 0 1 .03.07c0 .04.01.07.04.1a.4.4 0 0 0 .12.1h.01a.05.05 0 0 0 .07-.02.41.41 0 0 0 .04-.19.07.07 0 0 0-.06-.06h-.03l-.02.01h-.03a.1.1 0 0 1-.04-.05.18.18 0 0 1-.01-.11v-.14c-.02-.03-.02-.04-.05-.05a.12.12 0 0 1-.04-.02v-.29c0-.03 0-.06.02-.08.06-.05.16 0 .22.02l.25.06c.14.01.28-.02.4-.1 0-.02 0-.02.02-.01l.12.09c.1.06.2.11.33.15h.47c.04 0 .08 0 .12.02v.02l-.02.17c0 .03.02.06.04.09l.04.09.01.03c.1.1.1.27 0 .38-.05.06-.12.11-.18.16a.43.43 0 0 1-.23.09.2.2 0 0 0-.14.06.67.67 0 0 1-.15.12.08.08 0 0 0-.05.05.93.93 0 0 0-.06.2c0 .04.02.05.06.05l.17-.05a.06.06 0 0 0 .03-.08l-.02-.05v-.04a.14.14 0 0 1 .04-.03.08.08 0 0 1 .06-.02l.03.01c.07.03.15 0 .2-.07v-.02a.2.2 0 0 1 .06-.06c.15-.1.31-.18.48-.24.01 0 .03-.01.03-.03v-.06a1 1 0 0 1 0-.18c0-.04.01-.11.06-.11.03 0 .05.01.06.03.05.07.12.12.2.15a.9.9 0 0 1 .08.03c.06.03.1.08.12.15 0 .04 0 .08-.03.11a2.8 2.8 0 0 0-.16.24.35.35 0 0 1-.1.1l-.18.14a.36.36 0 0 0-.11.12 2.6 2.6 0 0 0-.08.25c-.02.05.01.06.06.05a.73.73 0 0 0 .18-.08s.02 0 .02-.02c.01 0 .02-.02.01-.03a.12.12 0 0 0-.02-.06.07.07 0 0 1 0-.08c0-.02.01-.03.03-.03l.14-.04c.06 0 .12-.04.16-.08l.02-.04v-.01a.76.76 0 0 1 .35-.45.07.07 0 0 0 .04-.06v-.07l-.14-.2a.38.38 0 0 1-.07-.17.44.44 0 0 1 .08-.25c.03-.05.07-.07.1-.11l.1-.14.07-.2c.02-.05 0-.11 0-.16 0-.02 0-.04.02-.06a.2.2 0 0 1 .1-.07.2.2 0 0 1 .1 0l.19.07h.1a.21.21 0 0 0 .1-.06c.01-.01.02-.03 0-.03zM8.56 9.3c0 .05-.03.1-.07.13a.15.15 0 0 1-.07.01c-.03 0-.04-.04-.04-.1v-.42a1.04 1.04 0 0 0-.09-.29l-.02-.05a.14.14 0 0 0-.03-.03l-.06-.05v-.02a.19.19 0 0 1 .22.03c.09.07.15.19.16.3.02.17.02.33 0 .5zm-7.2 3.37h4.82a2.66 2.66 0 0 1-.71-1.78v-.08h-4.4c.03.63.12 1.25.29 1.86zm6.96 2.32H2.33c.15.29.33.57.51.85.23.35.49.69.76 1h4.71v-1.85zm7.72-8.3h-4.41V8.3H16l.03-1.63zm.05-2.75a19.06 19.06 0 0 0-5.89-1.36 21.7 21.7 0 0 0-1.6-.08v1.82h7.49v-.38zm-4.74 2.69H5.7l-.02.01.01 4.19c.01.76.36 1.47.94 1.96.53.46 1.2.71 1.91.72a2.94 2.94 0 0 0 2.7-1.87 2 2 0 0 0 .12-.65V6.63l-.02-.01zm-.12 4.32c0 .22-.04.43-.11.63a2.78 2.78 0 0 1-2.57 1.8c-.67 0-1.32-.25-1.82-.7a2.52 2.52 0 0 1-.9-1.88V6.75h5.4a.01.01 0 0 1 0 .01v4.18zm-1.63 2.6a2.8 2.8 0 0 1-.58.15l.01.05c.02.04.06.07.11.07.07 0 .11-.04.16-.14 0-.01.04-.03.04-.01.05.08.17.15.25.11a.13.13 0 0 0 .04-.19l-.03-.05z"/>
    </g>
</svg>