<?xml version="1.0" standalone="no"?>
<!DOCTYPE svg PUBLIC "-//W3C//DTD SVG 20010904//EN"
 "http://www.w3.org/TR/2001/REC-SVG-20010904/DTD/svg10.dtd">
<svg version="1.0" xmlns="http://www.w3.org/2000/svg"
 width="200.000000pt" height="200.000000pt" viewBox="0 0 200.000000 200.000000"
 preserveAspectRatio="xMidYMid meet">

<g transform="translate(0.000000,200.000000) scale(0.100000,-0.100000)"
fill="#000000" stroke="none">
<path d="M1533 1930 c-104 -53 -181 -230 -230 -525 -15 -89 -18 -167 -18 -410
1 -267 3 -314 23 -430 26 -142 75 -304 116 -376 37 -65 106 -126 151 -135 88
-16 169 43 229 168 183 381 171 1278 -22 1598 -69 115 -160 155 -249 110z
m141 -213 c44 -90 81 -242 102 -412 21 -165 15 -550 -10 -695 -36 -205 -100
-385 -146 -410 -56 -30 -137 171 -177 440 -25 164 -24 561 0 720 33 211 83
369 134 422 36 37 54 25 97 -65z"/>
<path d="M542 1797 c-42 -16 -91 -63 -108 -104 -42 -99 22 -223 129 -249 80
-19 171 29 208 111 23 51 23 90 0 140 -42 92 -138 135 -229 102z"/>
<path d="M401 1363 c-132 -70 -232 -172 -301 -304 -45 -87 -46 -115 -3 -149
33 -25 73 -25 100 0 12 11 36 47 54 81 18 34 53 83 76 108 38 40 43 43 39 21
-13 -72 -28 -261 -22 -284 4 -16 72 -91 170 -189 l164 -162 43 -185 c37 -155
48 -190 71 -212 50 -52 148 -28 163 41 8 37 -77 375 -112 445 -15 31 -58 83
-109 132 -46 44 -84 89 -84 99 0 18 47 257 56 284 3 10 20 -1 57 -36 80 -79
194 -153 234 -153 62 0 102 66 73 121 -6 10 -44 41 -84 69 -41 27 -103 82
-137 121 -153 173 -151 172 -210 180 -120 17 -163 12 -238 -28z"/>
<path d="M302 633 c-10 -63 -29 -114 -102 -268 -93 -196 -103 -233 -72 -271
41 -51 98 -57 141 -17 28 27 180 335 211 427 l12 38 -83 84 c-46 46 -86 84
-89 84 -4 0 -12 -35 -18 -77z"/>
</g>
</svg>
