<svg width="150" height="226" xmlns="http://www.w3.org/2000/svg"><defs/><defs><linearGradient x1="39.883%" y1="0%" x2="62.896%" y2="100%" id="a"><stop stop-color="#2957A8" offset="0%"/><stop stop-color="#75D7F3" offset="100%"/></linearGradient></defs><g fill="none" fill-rule="evenodd"><path d="M75 .939c41.421 0 75 33.579 75 75v143.59c0 2.23-.232 3.037-.668 3.852a4.543 4.543 0 01-1.89 1.89c-.815.436-1.623.668-3.852.668H6.41c-2.23 0-3.037-.232-3.852-.668a4.543 4.543 0 01-1.89-1.89C.232 222.566 0 221.758 0 219.53V75.94c0-41.421 33.579-75 75-75zm0 10c-35.899 0-65 29.101-65 65v140.143h130V75.939c0-35.899-29.101-65-65-65zm0 7c32.033 0 58 25.967 58 58v134H17v-134c0-32.033 25.967-58 58-58zm0 8.02c-27.614 0-50 22.386-50 50v125.96h100V75.958c0-27.614-22.386-50-50-50z" fill="#122855"/><path d="M25 158.85c6.352 11.596 15.938 21.3 28.264 28.527 9.76 5.844 18.619 9.268 27.769 10.723H125v3.818H25zM57.335 30.587c10.375 0 20.48 2.28 30.006 6.791l.06.046c15.951 7.975 27.436 20.99 32.291 36.656v.044c4.228 14.768 2.7 28.89-4.408 40.84-3.237 5.486-7.856 10.193-13.311 13.597-5.666 3.567-11.904 5.455-17.982 5.455-4.797 0-9.387-1.168-13.643-3.432l-.121-.09c-2.818-1.755-6.356-4.259-8.605-7.856l-.06-.09c-3.24-5.937-3.749-11.125-1.59-15.847l.09-.195a15.795 15.795 0 015.008-5.144l-.06-.075c-1.32-.99-2.935-1.53-4.706-1.53-1.801 0-3.569.555-5.128 1.649-6.897 5.036-9.354 13.82-6.536 23.49 3.749 12.594 15.172 21.889 29.806 24.259 2.457.391 4.974.584 7.457.584 10.913 0 21.525-3.898 30.76-11.258 3.21-2.565 6.03-5.324 8.518-8.306l-.181.211v45.202c-.562.228-1.127.45-1.696.664l-.928.344c-8.507 3.439-17.453 5.144-26.546 5.144-7.16 0-14.24-1.08-21.059-3.251h-.03c-9.235-3.073-17.686-8.115-24.448-14.627-7.197-6.877-12.356-15.098-15.327-24.436l-.03-.057c-4.08-14.35-2.621-28.062 4.284-39.688l.03-.057c3.468-5.422 7.955-9.954 12.966-13.1 5.48-3.453 11.334-5.229 17.426-5.229.29 0 .613.015.903.028h.057c4.662.205 9.178 1.53 13.054 3.818 4.197 2.506 7.403 6.047 9.326 10.286l.03.015c1.916 4.532 1.43 9.908-1.31 14.06a13.321 13.321 0 01-3.41 3.571c.961.975 2.187 1.398 4.022 1.398.523 0 1.048-.03 1.69-.088 6.11-1.195 8.881-6.95 10.016-10.243 3.119-9.76-.407-20.542-9.493-28.847C87.27 69.19 78.56 66.1 68.74 66.1a46.43 46.43 0 00-5.8.365C47.498 68.39 33.684 77.712 25 91.57V75.96c0-20.025 11.773-37.302 28.776-45.284a73.087 73.087 0 013.559-.088z" fill="url(#a)"/></g></svg>