<svg xmlns="http://www.w3.org/2000/svg" width="268" height="42.67" version="1">
    <path fill-rule="evenodd" stroke="#000" stroke-miterlimit="2.61"
          d="M1.6 1.44l4 4.37v31.97l-2.97 4.19 18.22.02-3.28-3.85-.35-11.51 17.57.1c5.33-1.72 10.8-5.37 11.06-12.74-.08-7.15-4.6-11.73-9.85-12.65l-34.4.1zm14.97 2.04v20.55l13.48.09c3.07-2.39 5.4-4.21 5.3-9.95-.04-4.67-1.06-8.74-5.58-10.69h-13.2zM54.29 1.2l4.01 4.38v31.97l-2.97 4.19 18.22.02-3.29-3.85-.34-11.51h.07l18.83 15.5 15.62-.13-14.26-11.9h-11.9l-4.2-3.45 13.4.07c5.33-1.71 10.8-5.36 11.07-12.74-.08-7.14-4.6-11.73-9.85-12.64l-34.41.1zm14.98 2.05v20.54l13.48.1c3.07-2.39 5.39-4.22 5.3-9.95-.05-4.67-1.07-8.75-5.58-10.69h-13.2zm50.21-2.09h15.7l20.46 36.62c.88 2.83 3.53 2.48 5.3 3.72h-19.8l2.97-.9-.19-2.72-5.1-7.9-17.4.09-3.71 7.62c-.12.87-1.09 1.53-.37 2.6l1.4 1.3-8.56-.18 3.72-1.11 14.03-28.54V9.8L122 2.17l-2.52-1.01zm3.05 26.3l7.22-13.2 7.51 13.13-14.73.07zM225.7 1.24h15.72l20.45 36.62c.88 2.83 3.53 2.48 5.3 3.72h-19.8l2.97-.9-.18-2.72-5.12-7.9-17.38.09-3.72 7.62c-.12.87-1.08 1.53-.37 2.6l1.4 1.3-8.56-.18 3.72-1.11 14.04-28.54V9.88l-5.93-7.63-2.53-1.01zm3.06 26.3l7.22-13.2 7.52 13.13-14.74.07zM166.37.78l27.98.15c9.02 2.03 14.75 7.35 16.53 16.62l-.08 7.23c-1.64 8.26-7.02 13.96-16.52 16.84l-28.06.08v-.88c4.26-.3 4.6-.78 4.61-3.22V4.65c-.05-1.8-.42-2.93-4.54-3.05l.08-.82zm15.9 2.82l-.02 35.64c3.69.01 6.9.35 8.7-.54 4.1-1.81 6-4.59 6.18-7.2l-.1-21.04c0-3.37-3.79-5.74-5.97-6.36-1.56-.56-4.68-.58-8.78-.5z"
          clip-rule="evenodd"/>
</svg>