<svg xmlns="http://www.w3.org/2000/svg" width="502" height="111">
    <g fill="none">
        <path fill="#D01931"
              d="M416.91 74.38L435 43.19l2.36-37.71h-4.05l-50.1 86.35 2.12 3.64 31.58-21.1zm4.29 7.3l-34 17 2.1 3.66 99.81.18 2.02-3.49-34.08-17.31-35.85-.03zM445.47 5.5l-4.35-.01 2.15 37.72 17.96 31.29 31.75 21.35 2.24-3.81L445.47 5.5z"/>
        <path fill="#2B2C2B"
              d="M303.99 66.02l-.02 12.87c-.02 15.06-10.35 23.5-24.75 23.9h-3.12c-14.42-.6-24.64-9.02-24.61-23.98V65.94c.05-15.1 10.37-23.46 24.84-23.87.74-.02 2.15 0 2.87 0 14.52.46 24.82 8.98 24.79 23.95m-27.25-11.46c-5.68.3-11.14 3.24-11.16 11.43v12.9c-.02 7.88 5.42 11.05 11.1 11.4.3.03 1.73.03 2.04.02 5.57-.32 11.1-3.34 11.1-11.39l.02-12.9c.03-8.1-5.5-11.13-11.16-11.46-.7-.05-1.3-.05-1.94 0M325.7 67.6s21.15-24.1 22.42-25.43l17.69.04-25.72 29.05 26.98 29.93-17.92-.03-23.48-26.1-.05 26.06-14.23-.03.14-73.35 14.22.02-.06 39.83zm-201.26 8.56l.03-10.38c.04-15.08-10.5-23.52-24.93-24.02l-2.72-.01c-14.53.45-24.86 8.85-24.87 23.92l-.03 12.8c-.03 14.37 10.67 23.28 24.49 24 1.46.03 2.23 0 3.22 0 17.3.03 23.77-8.74 24.57-18.76l-13.02-.04c-.35 1.9-1 6.77-11.9 6.76-1.91-.02-4.57-.5-6.47-1.12-8.09-2.7-6.8-12.68-6.8-13.23l38.43.08zM86 64.71c0-7.76 5.16-10.78 11.27-11.02a19.3 19.3 0 0 1 1.89.01c6.2.26 11.37 3.53 11.36 11.07v1l-24.54-.03.02-1.03zm98.07 11.54l.02-10.36c.04-15.08-10.5-23.52-24.95-24.04h-2.7c-14.55.45-24.9 8.85-24.93 23.92l-.02 12.81c-.03 14.34 10.66 23.3 24.5 24 1.5.03 2.24 0 3.24 0 17.33.03 23.76-8.76 24.56-18.76l-12.95-.05c-.43 1.9-1.01 6.77-11.99 6.75-1.9-.01-4.52-.49-6.4-1.12-8.15-2.7-6.81-12.68-6.83-13.21l38.45.06zm-38.48-11.42c.02-7.78 5.2-10.8 11.26-11.03.64-.03 1.33-.01 1.93.01 6.17.25 11.35 3.53 11.34 11.05v1l-24.55-.03.02-1zm73.9-22.76c-6.6-.02-11.12 1.78-13.6 3.9l.02-18.42-14.13-.03-.12 73.36h2.47s6.28-3.51 6.62-3.63c.9.97 7.1 5.5 15.65 5.5 1.09.02 2.1.1 3.15.03 14.3-.3 24.66-9.17 24.69-23.9l.01-12.8c.03-14.4-10.35-24-24.76-24.01zm10.61 36.86c0 8.03-5.58 11.06-11.13 11.42-.3 0-1.77-.01-2.03-.03-5.67-.38-11.12-3.5-11.12-11.4l.04-12.9c0-8.22 5.47-11.1 11.13-11.48.68-.05 1.3-.07 1.99 0 5.6.4 11.15 3.35 11.14 11.52l-.02 12.87zM70.13 100.66L42.98 70.37c1.35.08 2.69.14 4.06.14C56.37 70.5 68 64.63 68 49.69c.06-17.92-14.82-22.4-28-22.42L8.33 27.2l-.15 73.35 14.35.03V67.84l29.43 32.8 18.17.02zm-47.51-60.9l17.2.06c7.95 0 14.98 2.51 14.98 10.07-.02 7.58-4.41 10.3-15.02 10.24l-17.2-.01.04-20.35z"/>
    </g>
</svg>