<svg xmlns="http://www.w3.org/2000/svg" width="382" height="323">
    <path fill="#191817"
          d="M88.63 274.25c.26-10.3 5.1-16.32 13.82-16.32 9.01 0 13.04 6.32 13.04 16.57l.01.52H88.63v-.77zm-17 5.65s-.04.68-.04 3.3v.13c0 2.6.04 3.16.04 3.16 0 23.31 12.91 34.58 29.81 35.77 13.9 1 23.55-3.43 27.86-6.23l.02-13.4c-7.2 4.46-15.34 6.83-25.93 5.83-10.17-.98-14.5-7.63-14.8-18.2l.03-2.33h43.3l.12-7.99c.35-23.2-9.74-35.86-29.59-35.86-19.3 0-30.82 12.71-30.82 35.82zm185.77-28v69.24h17.04v-60.8c1.54-.74 4.8-2.51 12.56-2.51 7.76 0 12.52 5.47 12.52 16.55v46.76h17.02l-.06-46.92c0-19.27-11.52-30.1-30.12-30.1-14.94 0-23.8 5.32-28.96 7.78zm-95.25 16.97l-12.51-23.21H130.7l22.05 37.46-22.05 38.02h18.92l12.63-23.1 12.67 23.1h18.9l-21.96-38.02 21.97-37.46-19.06-.02-12.63 23.23h.01zm46.47 23.49s-.15-3.13-.15-9.6.15-8.51.15-8.51c.23-10.1 4.36-16.36 12.6-16.36 8.18 0 12.23 6.3 12.48 16.36 0 0 .14 3.71.14 8.5 0 4.78-.14 9.6-.14 9.6-.25 10.11-4.39 16.37-12.6 16.37-8.15 0-12.25-6.33-12.48-16.37v.01zm-16.97-12.41s-.07.8-.07 3.44c0 2.68.07 3.28.07 3.28 0 22.8 10.67 35.8 29.45 35.8 18.73 0 29.58-12.95 29.58-35.8 0 0 .03-.6.03-3.28 0-2.68-.03-3.45-.03-3.45 0-22.81-10.65-35.82-29.46-35.82-18.76 0-29.57 12.92-29.57 35.82v.01zM.37 222.04v98.94l18.24-.03v-85.22h9.84c14.82 0 21.33 7.9 21.33 18.23 0 10.62-6.55 18.53-21.32 18.53h-4.77l28.85 48.49H73.2l-23.61-39.62 2.36-1.05c11.76-5.77 16.22-16.18 16.22-26.73 0-14.49-8.26-31.54-38.04-31.54H.37zm351.22 86.78c-8.23-.1-12.87-4.42-12.87-12.32 0-7.63 5.33-11.65 11.97-12.23 7.53-.67 13.3.7 13.3.7v23.73c-2.84.07-5.29.12-8.41.12h-4 .01zm-25.34-60.27v13.4c6.36-3.16 13.54-4.71 22.44-3.9 8.21.8 13.96 4.85 14.87 13.1 0 0-6.38-.84-13.03-.49-16.02.62-28.8 9.28-28.8 25.84 0 17.18 12.78 24.83 29.48 24.83 13.79 0 23.18-.14 29.83-.14 0 0 .2-20.56.2-29.99 0-9.49.08-12.28.08-12.28 0-23.4-13.92-33.67-30.69-34.64l-3.4-.11c-9.27 0-16.38 2.18-20.98 4.38zM289.23 3.1c-4.95 4-29.02 19.5-120.17 144.56-.68.89-1.86 2.69-3.57 2.69l-2.93-1.31c-1.52-1-39.63-27.86-46.81-32.75-2.89-1.96-3.94-2.76-4.52-2.32-.46.4.46 2.02 1.92 4.35a1507 1507 0 0 1 34 60.06c12.97 24.47 23.16 44.66 23.6 45.5 1.41 2.71 2.5 4.78 4 4.78 2.16 0 2.6-2.1 3.95-5.45 1.41-3.42 39.24-107.49 112.38-218.46 1.1-1.68 2.4-3.55 1.91-3.9l-.1-.03c-.51 0-2.17 1.2-3.66 2.29V3.1z"/>
</svg>