<?xml version="1.0" encoding="iso-8859-1"?>
<!-- Generator: Adobe Illustrator 19.0.0, SVG Export Plug-In . SVG Version: 6.00 Build 0)  -->
<svg version="1.1" id="Layer_1" xmlns="http://www.w3.org/2000/svg" xmlns:xlink="http://www.w3.org/1999/xlink" x="0px" y="0px"
	 viewBox="0 0 501.114 501.114" style="enable-background:new 0 0 501.114 501.114;" xml:space="preserve">
<path style="fill:#FFF8EF;" d="M410.557,17.114l-16.8,102.4c-2.4,12.8-8.8,24.8-18.4,32.8l-136,116l-23.2-23.2l16.8-16.8
	c3.2-3.2,3.2-8,0-11.2l-22.4-22.4c-1.6-1.6-3.2-2.4-5.6-2.4s-4,0.8-5.6,2.4l-16.8,16.8l-23.2-23.2l116-135.2
	c8.8-9.6,20-16.8,32.8-18.4L410.557,17.114z M340.957,132.314l11.2-11.2l-16.8-16.8l11.2-11.2l-11.2-11.2l-11.2,11.2l-11.2-11.2
	c-3.2-3.2-8-3.2-11.2,0l-28,28c-3.2,3.2-3.2,8,0,11.2l28,28l-16.8,16.8l-34.4-33.6l-12,11.2l16.8,16.8l-11.2,11.2l11.2,11.2
	l11.2-11.2l11.2,11.2c1.6,1.6,3.2,2.4,5.6,2.4s4-0.8,5.6-2.4l28-28c3.2-3.2,3.2-8,0-11.2l-28-28l16.8-16.8L340.957,132.314z"/>
<rect x="135.551" y="240.393" transform="matrix(-0.7071 0.7071 -0.7071 -0.7071 482.1522 297.0718)" style="fill:#EE5656;" width="87.999" height="16"/>
<g>
	<path style="fill:#FF7D00;" d="M123.357,209.114c-1.6-1.6-4.8-2.4-7.2-2.4l-24,4l33.6-32.8l16.8,16.8l28,28l-16.8,16.8
		L123.357,209.114z"/>
	<path style="fill:#FF7D00;" d="M232.957,285.114l16.8,16.8l-32.8,33.6l4-24c0.8-2.4,0-5.6-2.4-7.2l-30.4-30.4l16.8-16.8
		L232.957,285.114L232.957,285.114z"/>
</g>
<g>
	<path style="fill:#42210B;" d="M454.557,461.114c0,22.4-17.6,40-40,40h-240v-16h240c13.6,0,24-10.4,24-24s-10.4-24-24-24v-16
		C436.957,421.114,454.557,438.714,454.557,461.114z"/>
	<rect x="366.557" y="421.114" style="fill:#42210B;" width="32" height="16"/>
	<path style="fill:#42210B;" d="M335.357,103.514l16.8,16.8l-11.2,11.2l-33.6-33.6l-16.8,16.8l28,28c3.2,3.2,3.2,8,0,11.2l-28,28
		c-1.6,1.6-3.2,2.4-5.6,2.4s-4-0.8-5.6-2.4l-11.2-11.2l-11.2,11.2l-11.2-11.2l11.2-11.2l-18.4-16l11.2-11.2l34.4,33.6l16.8-16.8
		l-28-28c-3.2-3.2-3.2-8,0-11.2l28-28c3.2-3.2,8-3.2,11.2,0l11.2,11.2l11.2-11.2l11.2,11.2L335.357,103.514z"/>
	<rect x="110.557" y="485.114" style="fill:#42210B;" width="40" height="16"/>
	<path style="fill:#42210B;" d="M153.757,239.514l16.8-16.8l-28-28l-16.8-16.8l-33.6,32.8l24-4c2.4-0.8,4.8,0,7.2,2.4
		L153.757,239.514z M216.157,222.714l-11.2-11.2l-62.4,62.4l11.2,11.2L216.157,222.714z M250.557,301.914l-17.6-16.8l0,0l-28-28
		l-16.8,16.8l30.4,30.4c1.6,1.6,2.4,4,2.4,7.2l-4,24L250.557,301.914z M392.957,119.514l16.8-102.4l-101.6,17.6
		c-12.8,2.4-24.8,8.8-32.8,18.4l-116,135.2l23.2,23.2l16.8-16.8c1.6-1.6,3.2-2.4,5.6-2.4s4,0.8,5.6,2.4l22.4,22.4
		c3.2,3.2,3.2,8,0,11.2l-16.8,16.8l23.2,23.2l135.2-116C384.157,144.314,391.357,132.314,392.957,119.514z M425.757,1.914
		c1.6,1.6,2.4,4.8,2.4,7.2l-18.4,112.8c-3.2,16.8-11.2,31.2-24,42.4l-135.2,115.2l16.8,16.8c3.2,3.2,3.2,8,0,11.2l-56.8,56.8
		c-1.6,1.6-3.2,2.4-5.6,2.4c-1.6,0-2.4,0-4-0.8c-3.2-1.6-4.8-4.8-4-8l7.2-44l-27.2-28.8l-16.8,16.8c-1.6,1.6-3.2,2.4-5.6,2.4
		c-2.4,0-4-0.8-5.6-2.4l-22.4-22.4c-3.2-3.2-3.2-8,0-11.2l16.8-16.8l-28-28l-44.8,7.2c-3.2,0.8-7.2-0.8-8.8-4
		c-1.6-3.2-0.8-7.2,1.6-9.6l56.8-56.8c3.2-3.2,8-3.2,11.2,0l16.8,16.8l115.2-134.4c11.2-12.8,25.6-20.8,42.4-24l112.8-18.4
		C420.957-0.486,424.157,0.314,425.757,1.914z"/>
	<rect x="62.557" y="485.114" style="fill:#42210B;" width="24" height="16"/>
	<path style="fill:#42210B;" d="M84.157,421.114h266.4v16h-272v-0.8c-18.4-4-32-20.8-32-40c0-16.8,6.4-32.8,18.4-44l56-56l11.2,11.2
		l-56,56c-8.8,8.8-13.6,20.8-13.6,32.8C62.557,409.114,72.157,419.514,84.157,421.114L84.157,421.114z"/>
</g>
<path style="fill:#D9CDC1;" d="M275.357,53.114l-116,135.2l0,0l143.2-135.2l104-32l-32,112l-135.2,135.2l135.2-116
	c9.6-8.8,16.8-20,18.4-32.8l16.8-102.4l-101.6,17.6C295.357,36.314,284.157,43.514,275.357,53.114z"/>
<g>
</g>
<g>
</g>
<g>
</g>
<g>
</g>
<g>
</g>
<g>
</g>
<g>
</g>
<g>
</g>
<g>
</g>
<g>
</g>
<g>
</g>
<g>
</g>
<g>
</g>
<g>
</g>
<g>
</g>
</svg>
