<svg data-name="Слой 1" xmlns="http://www.w3.org/2000/svg" width="298.01" height="45.61"><defs><clipPath id="a"><path fill="none" d="M0 45.61h298V0H0v45.61z"/></clipPath></defs><path d="M246.09 1.36l.58 33.43h-.23l-9.8-33.43h-15.81v42.15h10.47l-.59-34.58h.29l10.51 34.58h15.17V1.36zm-200.49 0l-7.9 42.59h11.52L55 5.31h.24L61 43.95h11.4L64.55 1.36zm64.35 0l-5.25 32.56h-.24L99.21 1.36H81.84l-.94 42.59h10.66l.27-38.28h.23l7.11 38.28H110l7.1-38.28h.23l.27 38.28h10.65l-.94-42.59z" fill="#034ea2"/><g clip-path="url(#a)"><path d="M19.78 31.93a5.52 5.52 0 0 1 .08 3.15C19.52 36.5 18.55 38 15.72 38c-2.66 0-4.28-1.54-4.28-3.86V30H0v3.28c0 9.5 7.47 12.37 15.48 12.37 7.71 0 14-2.63 15.05-9.74a20.74 20.74 0 0 0 0-7c-1.8-8.92-18-11.58-19.16-16.56a5.46 5.46 0 0 1 0-2.24c.3-1.37 1.23-2.86 3.89-2.86a3.63 3.63 0 0 1 4 3.86v2.64h10.5v-3C29.76 1.45 21.42 0 15.4 0 7.83 0 1.64 2.51.51 9.46a14.74 14.74 0 0 0 .1 5.74c1.85 8.7 17 11.22 19.18 16.73m138.47-.08a5.5 5.5 0 0 1 .08 3.12c-.34 1.4-1.3 2.83-4.11 2.83-2.64 0-4.24-1.52-4.24-3.82V29.9h-11.32v3.25c0 9.41 7.4 12.24 15.33 12.24 7.63 0 13.9-2.6 14.9-9.64a20.57 20.57 0 0 0 0-6.91c-1.78-8.83-17.78-11.46-19-16.4a5.41 5.41 0 0 1-.05-2.21c.3-1.35 1.22-2.83 3.85-2.83a3.59 3.59 0 0 1 3.92 3.82v2.61h10.52v-3c0-9.18-8.25-10.62-14.22-10.62-7.49 0-13.62 2.48-14.74 9.36a14.44 14.44 0 0 0 .1 5.68c1.82 8.62 16.81 11.11 19 16.57M194 37.57a3.83 3.83 0 0 0 4.08-3.09 8.85 8.85 0 0 0 .1-1.63V1.35H209v30.54c0 .78-.07 2.39-.11 2.8-.74 7.95-7 10.52-14.85 10.52s-14.12-2.58-14.86-10.52c0-.42-.12-2-.1-2.8V1.35h10.77v31.51a8.29 8.29 0 0 0 .1 1.63 3.83 3.83 0 0 0 4.05 3.08m88.83-.44c3.08 0 4.16-2 4.35-3.09a8.9 8.9 0 0 0 .1-1.62v-6.18h-4.37V20H298v11.45c0 .8 0 1.39-.15 2.8-.7 7.76-7.43 10.53-15 10.53s-14.27-2.77-15-10.53c-.12-1.42-.14-2-.15-2.8V13.53c0-.76.09-2.09.18-2.8.95-8 7.39-10.52 14.95-10.52s14.17 2.53 15 10.51a27.75 27.75 0 0 1 .1 2.8v1.42h-10.75v-2.38a10.31 10.31 0 0 0-.13-1.62c-.19-.94-1-3.09-4.26-3.09a3.94 3.94 0 0 0-4.24 3.09 10.22 10.22 0 0 0-.17 2v19.48a10 10 0 0 0 .1 1.62c.2 1.14 1.28 3.09 4.36 3.09" fill="#034ea2"/></g></svg>