<svg xmlns="http://www.w3.org/2000/svg" width="231" height="231"><defs><linearGradient id="a" x1="-.18%" x2="100.18%" y1="50%" y2="50%"><stop offset="0%" stop-color="#99A2A7"/><stop offset="47.58%" stop-color="#98A3A8"/><stop offset="53.52%" stop-color="#E6E6E6"/><stop offset="100%" stop-color="#E6E6E6"/></linearGradient><linearGradient id="b" x1=".83%" x2="99.56%" y1="98.24%" y2="1.76%"><stop offset="0%" stop-color="#151313"/><stop offset="8.5%" stop-color="#151313"/><stop offset="12.78%" stop-color="#F8F1F1"/><stop offset="22.87%" stop-color="#151313"/><stop offset="30.41%" stop-color="#141414"/><stop offset="38.17%" stop-color="#F8F1F1"/><stop offset="44.97%" stop-color="#151313"/><stop offset="56.55%" stop-color="#F8F1F4"/><stop offset="62.68%" stop-color="#141414"/><stop offset="78.7%" stop-color="#F8F1F1"/><stop offset="100%" stop-color="#F8F1F2"/></linearGradient><linearGradient id="c" x1="50.36%" x2="97.36%" y1="40.69%" y2="102.14%"><stop offset="0%" stop-color="#151313"/><stop offset="16.26%" stop-color="#CCC4C4"/><stop offset="49.61%" stop-color="#B7ACAD"/><stop offset="100%" stop-color="#151313"/></linearGradient><linearGradient id="d" x1="32.62%" x2="-90.33%" y1="33.4%" y2="62.05%"><stop offset="0%" stop-color="#151313"/><stop offset="25%" stop-color="#CCC4C4"/><stop offset="50%" stop-color="#B7ACAD"/><stop offset="100%" stop-color="#151313"/></linearGradient></defs><g fill="none"><path fill="url(#a)" stroke="#141414" stroke-linecap="square" stroke-width=".81" d="M228.2 114.56c0 62.8-50.91 113.72-113.72 113.72C51.68 228.28.76 177.36.76 114.56S51.67.84 114.48.84c62.8 0 113.72 50.91 113.72 113.72z" transform="rotate(-90.2 115.65 114.21)"/><path fill="#141414" d="M116 217.49a101.44 101.44 0 0 1-72.2-29.91 101.44 101.44 0 0 1-29.91-72.2c0-27.28 10.62-52.92 29.9-72.2A101.44 101.44 0 0 1 116 13.27c27.28 0 52.92 10.62 72.2 29.9a101.43 101.43 0 0 1 29.91 72.2c0 27.28-10.62 52.92-29.9 72.21a101.44 101.44 0 0 1-72.2 29.9"/><path fill="#FFF" d="M116 209.2a93.21 93.21 0 0 1-66.34-27.48 93.2 93.2 0 0 1-27.49-66.34 93.2 93.2 0 0 1 27.49-66.34A93.21 93.21 0 0 1 116 21.55a93.21 93.21 0 0 1 66.35 27.49 93.2 93.2 0 0 1 27.48 66.34 93.2 93.2 0 0 1-27.48 66.34A93.21 93.21 0 0 1 116 209.2"/><path fill="url(#b)" stroke="#141414" stroke-width=".8" d="M152.5 127.83a47.84 47.84 0 0 0-25.21-12.38 2.24 2.24 0 0 0-2.6 2.21v3.46c0 1.03-.78 2.2-1.81 2.2-.75 0-1.5.02-2.25 0-2.66-.05-3.14-3.31-2.6-5.23 5.66-20.31 7.04-32.63 6.98-41.6-.08-9.53-.31-19.03-4.61-31.6-4.14-12.1-7.92-23.94-27.91-42.04A7.12 7.12 0 0 0 87.93.9a82.92 82.92 0 0 0-29.45 3.28c-2.84.85-2.41 2.82-.85 4.17C65.17 14.8 75.4 24.5 82.47 36.63c-4.47.43-7.89-2.05-10.76-4.8a135.52 135.52 0 0 0-27.07-19.77c-1.35-.76-2.7-1.08-4.04-.3-8.6 5-14.4 9.7-21.23 17.62-1.16 1.35-.4 2.4.73 3A155.81 155.81 0 0 1 49.98 53.6c-2.19 1.84-5.65 1.23-10.67-1.4a120.07 120.07 0 0 0-26-9.8c-1.51-.4-3.14.03-3.92 1.39C4.86 51.66 1.73 61.08.26 70.63a3.32 3.32 0 0 0 2.8 3.78c16.49 2.88 45.9 10.64 50.78 44.51.42 2.97-2.28 5.58-5.83 3.9l-14.87-6.96a4.17 4.17 0 0 0-1.68-.44H8.1c-3.33 0-4.7 3.17-2.53 5.65a145.49 145.49 0 0 1 15.18 20.85c.38.65.83.9 1.6.9h10.2c.69 0 1.28-.16 1.88-.51l9.63-5.64c.6-.35 1.19-.34 1.88-.34h76.89c1.03 0 1.87.66 1.87 1.7v3.78a2.24 2.24 0 0 0 2.59 2.2 47.86 47.86 0 0 0 25.2-12.37 2.6 2.6 0 0 0 0-3.8" transform="translate(34.73 32.62)"/><path fill="#42BD3B" d="M129.95 149.38a13.7 13.7 0 1 1-.01-27.4 13.7 13.7 0 0 1 0 27.4zm50.35 12.96a39.09 39.09 0 0 0-17.34-8.36c-.6-.12-.9.1-.9.73v.33c0 1.64-1.64 3.54-3.28 3.54h-4.33c-3.65 0-6.9-3-5.56-7.84 15.63-55.77-1.83-90.25-23.88-109.56-6-5.23-6.53-5.52-12.5-5.3-4.7.18-10.22.76-14.88 1.9-.92.22-1.69.94-.47 1.96 11.31 9.54 26.45 25.98 33.68 51.57.25.89-.27.83-.95.87-6.48.39-8.67-3.58-10.7-6.1-14.69-18.3-31.16-29.42-43.5-36.73-1.22-.73-1.42-.72-2.35-.17A69.26 69.26 0 0 0 58.9 60.76c-.82.88-.62 1.3.29 1.78 11.15 5.98 28.12 17.75 43.88 37.72.98 1.24 1.05 1.8.5 2.14-3.04 1.8-8.1 1.78-13.64-1.68-15.03-9.37-30.3-16.01-42.24-19.45-1.27-.37-1.5-.3-2.02.8-2.91 6.11-6.08 14.07-7.23 20.97-.14.9-.22.97.61 1.14 32.87 6.68 50.9 24.7 52.96 48.8.36 4.18-4.37 8.21-9.08 6.72-5.1-1.62-10.07-3.44-15.18-5.06a5.28 5.28 0 0 0-1.69-.26h-21.2c-.95 0-1.5.58-.56 1.77 5.33 6.75 8.44 10.57 12.2 16.89.38.65.83.9 1.6.9h7.8a5.3 5.3 0 0 0 2.82-.77c2.83-1.65 5.64-3.2 8.47-4.86.9-.53 1.67-.85 2.71-.85h78.83c1.64 0 3.33 1.91 3.33 3.56v.57c0 .62.3.85.9.73 6.66-1.38 12.14-4.58 17.34-8.82.47-.4.47-.76 0-1.16z"/><path fill="url(#c)" d="M31.22 13.86A15.45 15.45 0 1 1 .65 18.34a15.45 15.45 0 0 1 30.57-4.48" transform="translate(113 120.26)"/><path fill="url(#d)" d="M18.41.83l-4.65 30.58A15.47 15.47 0 0 0 18.41.83z" transform="translate(113 120.26)"/><path fill="#FFF" stroke="#141414" stroke-width=".8" d="M141.98 135.96a10.36 10.36 0 1 1-20.73-.01 10.36 10.36 0 0 1 20.73.01"/></g></svg>