<svg xmlns="http://www.w3.org/2000/svg" xmlns:xlink="http://www.w3.org/1999/xlink" width="100" height="45"><defs><path id="a" d="M0 0h595.28v841.89H0z"/></defs><g fill="none" fill-rule="evenodd"><path fill="#FFF" d="M9.28 11.53c18.04-3.82 12.13-9.18 17.08-8.6 6.12 5.47 6.5 7.34 44.8 7.93 11.68-.2 28.92-.86 27.7 1.7.07 6.17-4.72 1.88-4.6 13.27-5.75 8.85-17.37 5.94-30.86 8.52 0 3.96-5.15 7.66-12.69 2.59-5.54 2.52-9.75 6.48-15.66-1.4-7.7 0-2.95-4.6-23.78-2.36-11.34-7.97-6.02-21.2-1.99-21.65z"/><mask id="b" fill="#fff"><use xlink:href="#a"/></mask><path fill="#00AFF0" fill-rule="nonzero" d="M78.87 25.6h9.17c-.29 2.4-2.08 4.16-4.4 4.16-2.63 0-4.2-1.6-4.77-4.15zm-14.05-7.77c3.33.04 4.15 3.37 4.15 5.8 0 3.1-1.36 5.67-4.15 5.7-3.05.04-4.2-2.72-4.2-5.7 0-2.68 1.01-5.8 4.2-5.8zm35.65 13.42a5.48 5.48 0 0 1-9.46 3.78 14.27 14.27 0 0 1-16.42-.06 5.85 5.85 0 0 1-7.12.67 12.54 12.54 0 0 1-21.27.98 10.38 10.38 0 0 1-12.75 1.7 6.74 6.74 0 0 1-13.49-.06l.02-.27a14.6 14.6 0 0 1-8.35-1.18A7.44 7.44 0 0 1 .66 30.28c0-2.17.95-4.12 2.43-5.48a14.72 14.72 0 0 1 23.14-13.38 11.85 11.85 0 0 1 9.86-4.86 8.27 8.27 0 0 1 15.63.12 7.45 7.45 0 0 1 13.9 1.9 11.35 11.35 0 0 1 9.17 2.8 14.34 14.34 0 0 1 22.1 14.73 5.49 5.49 0 0 1 3.57 5.15zM93 24.85c0-1.79-.54-2.25-2.3-2.25H78.87c0-2.76 1.79-4.77 4.83-4.77 3.95 0 3.95 2.58 6.06 2.58a2.16 2.16 0 0 0 2.15-2.04c0-3.15-5.06-4.62-8.2-4.62-5.95 0-8.89 3.27-9.77 6.95-.8-3.85-3.32-6.95-7.8-6.95-2.4 0-4.18.97-5.15 2.65h-.08V9.41c0-1.72-1.04-2.61-2.61-2.61-1.58 0-2.61.9-2.61 2.61v19.5L49.8 12.23c-1.26-3.58-2.7-5.44-5.99-5.44-2.33 0-3.3 1.14-3.3 2.4 0 1.4 1.01 2.11 2.41 2.11h.54c.67 0 1.43.03 1.82 1.65l-5.44 15.51c-.2.56-.34.99-.45 1.34-.12-.16-.26-.3-.42-.48l-3.87-4.05 5.45-7.3c.18-.25.54-.83.54-1.69a2.54 2.54 0 0 0-2.47-2.54c-1.3 0-1.98.64-2.37 1.21l-4.94 7-1.83-1.62v-3.98c0-1.71-1.04-2.61-2.61-2.61-1.59 0-2.63.9-2.63 2.61v1.93c-.93-3.09-4.43-4.54-7.8-4.54-4.73 0-8.67 2.11-8.67 4.7 0 1.14.65 2.18 2.11 2.18 2.26 0 2.48-3.23 6.34-3.23 1.86 0 3.05.83 3.05 1.9 0 1.33-1.15 1.54-3 2.01l-3.09.75c-3.04.75-5.41 2.01-5.41 5.52 0 4.26 4.23 5.84 7.85 5.84 3.97 0 7.99-1.58 7.99-3.98 0-1.22-.83-2.29-2.2-2.29-2.04 0-2.1 2.4-5.4 2.4-1.83 0-3.01-.5-3.01-1.61 0-1.22 1.18-1.51 2.8-1.86l2.17-.51c2.52-.57 5.43-1.56 6.27-4.05v16.34c0 1.72 1.04 2.62 2.63 2.62 1.57 0 2.6-.9 2.6-2.62v-11.9l5.81 6.46c.54.57 1.22 1 2 1 .86 0 1.77-.55 2.2-1.35a2.51 2.51 0 0 0 2.26 1.35c1.4 0 2.36-.79 2.68-1.97l3.37-12.22h.07l3.19 11.86c.36 1.33 1.08 2.33 2.51 2.33 1.24 0 1.95-.61 2.33-1.24.32.8 1.01 1.24 2.14 1.24 1.55 0 2.37-.87 2.37-2.47v-.82h.08c.86 2.22 2.97 3.3 5.5 3.3 3.74 0 7.08-2.35 7.98-7.25 1.01 4.43 4.42 7.24 9.56 7.24 6.01 0 9.46-4.26 9.46-8.57zm1.62 8.2h1.02l.78-2.27.73 2.27h1.02v-3.3h-.68v2.34l-.81-2.34h-.56l-.82 2.31v-2.31h-.68v3.3zm-3.08-.61v.6h2.7v-.6h-.98v-2.7h-.73v2.7h-.99z" mask="url(#b)" transform="matrix(1 0 0 -1 -.57 45.1)"/></g></svg>