<svg xmlns="http://www.w3.org/2000/svg" width="617.95" height="452.6"><path fill="#6bc048" d="M282.35 150.88c-6.08-4.59-9.64-9.21-8.12-11 1.67-1.94 5.93.48 12.39 1.48 33.44 5.18 61.26-2 83.23-14S413 96 426.83 65.13c2.67-6 3-10.86 5.5-11.21 2.32-.32 4.26 5.18 4.81 12.78 3.17 43.6-27.47 76.58-51.52 89.67s-68.39 20.87-103.27-5.49z"/><path fill="#fad000" d="M283.76 136.53c-11.07-1.61-18.43-3.52-20.11-3.76-2.3-.32-3.11 1.26-1.25 2.73 2 1.61 4.31 1.51 4.5 3.32.11 1.11-.81 1.94-2.35 2.16a8.88 8.88 0 0 1-5.6-1.52c-7.13-5-5.7-13.09 1.67-17.56 5.08-3.07 6.05-9.5 6.65-14.15 4-30.68 28.27-58.69 52.75-72s61.2-18.48 89.12-5.15c4.23 2 10.16 4.7 15.5 2.11 7.75-3.76 15.34-.56 15.65 8.14a8.9 8.9 0 0 1-1.77 5.53c-1 1.17-2.22 1.5-3.09.8-1.42-1.14-.1-3-.35-5.58-.22-2.36-2-2.53-3-.43-.72 1.55-3.11 8.76-7.78 18.93-13.93 30.38-33.71 48.21-57.74 61.28s-49.75 20-82.82 15.16z"/><g fill="#00a94b"><path d="M475.7 0a412.07 412.07 0 0 1-30.5 48.43 80.39 80.39 0 0 1 1.6 10.08 343.29 343.29 0 0 0 20.12-30.71C472 84.41 505.7 129.05 606.47 93.74c-59.4 117.89-39 165.67-34.82 190.25-229.41 6-332 89.84-411.74 153.14-34.64-32.38-91.91-62.86-149.65-67.36C69 294.7 96.74 207.42 92.34 147.18c65.36 23.11 131 30.24 191.14 17.91a119.2 119.2 0 0 1-15-12.66c-54.87 5.08-120.57-5.55-200-36.64 11 111-4.5 170.92-68.5 258.53 58.05 1.74 127.42 40.88 161.5 78.28 128.85-124.72 274.8-164.26 453.31-136.48-48.21-70.26-42-152.41 3.14-231.9C491.28 134.21 478.64 50.69 475.7 0z"/><path d="M542 258.06a8.11 8.11 0 1 1-8.11-8.11 8.11 8.11 0 0 1 8.11 8.11zm-1.17 0a6.94 6.94 0 1 1-6.94-6.94 6.94 6.94 0 0 1 6.92 6.94zm-11 3.64l2.07-.24.88-2.73h.85l1 2.45 2.29-.25-1.21-2.8a4.17 4.17 0 0 0 2.1-2.18c.53-1.8-.71-3-2.39-2.89a11.28 11.28 0 0 0-3 .48zm5.87-5.88a2.37 2.37 0 0 1-2.47 1.3l.7-2.26c1.69-.46 1.9.34 1.73.96zM444 104.44c5.49-5.11 11-10.24 16.54-15.26-1.59 16.74-3.06 33.5-4.62 50.24C467 135.75 478 132 489.1 128.28a29.44 29.44 0 0 1-7.7 17.64c-7.66 6.93-18.14 9.15-27.61 12.56a4432.06 4432.06 0 0 1-11.66 100.12c-12.57 3.44-25.16 6.8-37.74 10.23q7.22-49 14.39-98.06c-5.13 1.77-10.25 3.57-15.38 5.36.8-5.52 1.66-11 2.44-16.54A114.8 114.8 0 0 0 444 104.44zm-80.14 76.07c12.16-5.61 24.37-11.13 36.55-16.69l-17.84 112c-12.37 4.57-24.68 9.3-37.07 13.81q9.17-54.56 18.36-109.11zm-32.54 13.87a42.19 42.19 0 0 1 25-11.63c-2.14 11.48-4.34 23-6.48 34.43-6.12.09-12.37 1.54-17.47 5-6.4 4.26-10.05 11.68-11 19.18l-9.9 63.39c-12.44 6.47-24.84 13-37.31 19.46q5.63-33 11.16-66c2.07-11.62 3.73-23.56 2-35.34-.91-4.86-2.17-10.31-6.21-13.55 6.35-2.15 12.64-4.53 19-6.56A28.68 28.68 0 0 1 315 217.95c4.43-8.47 9.37-16.89 16.33-23.56zm-205.44 17.51c20.63-20.82 53.27-27.33 81.06-19.49-2.27 11.6-4.61 23.18-7 34.76-6.68-8-16.33-14-26.91-14.46-9.75-.22-22.16 3.86-24.93 14.34-1.76 8.65 4.39 16.39 10.53 21.71 8.36 6.68 16.44 14.2 21.37 23.85 4.86 9.32 5.75 20.34 3.48 30.52-6 26.47-24.92 49.83-49.86 60.72a95.29 95.29 0 0 1-57.55 6.43c4.05-14.55 8.34-29 12.46-43.58 13.45 13.72 38 13.5 51.18-.48 6.87-7.11 10.44-18.66 5.33-27.74-4.45-8.19-12.52-13.37-20.05-18.42-8.94-6.19-15.1-16.49-15.18-27.49a58.76 58.76 0 0 1 16-40.67z"/><path d="M237.14 224.76c9.71-3.39 21.21-4.83 30.49.52 12.63 7.52 14.71 24.43 11.71 37.61-4 18.44-12.84 36-26.4 49.3-10.22 10.16-22.92 17.19-36.37 22.13a1 1 0 0 1-1-1.66c4.47-4.29 8.13-9.3 12.11-14 7.94-11.18 12.91-24.1 17.36-37a79.18 79.18 0 0 0 4-30.86c-.22-3.51-1.77-7.31-5.08-8.93-4-1.88-8.78.39-11.1 3.82-3.3 4.7-4.59 10.43-5.48 16-6.09 34.59-12.26 69.16-18.29 103.75-12.2 8.76-24.52 17.34-36.76 26q8.9-48.85 17.93-97.68c2-11.33 4.66-22.63 4.77-34.19.37-6.7-2-14.84-9.19-16.86q25.64-9.06 51.31-18zm284.22-88.44c5.69-.74 12 .17 16.37 4.17s5.76 10.12 5.24 15.76c-.74 9.94-6 18.84-12.37 26.26-9.81 10.19-22.71 17-36 21.51-2.15.72-2.22-1.13-1.32-1.83a70.94 70.94 0 0 0 25.64-42.11c.75-3.25.76-9.47-3.4-9.47s-8.16 6.06-10.72 10.22c-6.82 12.37-10.07 26.32-12.73 40.08-1.24 6.5-1.46 13.56 1.43 19.67a11.49 11.49 0 0 0 9.7 6.85c6.27.29 12.07-2.93 16.88-6.68 7.8-6.31 13.67-14.66 18.47-23.39l4.19 4.62c-6.83 16.84-18.11 32.5-34 41.82-9.26 5.51-20.34 9.28-31.19 7.14a25.19 25.19 0 0 1-18.64-14.87c-4.57-10.54-3.47-22.51-1-33.42 4.13-18.1 13.31-35.19 27.08-47.77 10.05-9.33 22.53-16.74 36.31-18.56z"/></g></svg>