<svg data-name="Слой 1" xmlns="http://www.w3.org/2000/svg" width="970.64" height="187.44">
    <path d="M96.43 55l58.71-.08V18.27H90c-.91-.06-1.83-.09-2.75-.09A41.74 41.74 0 0 0 70.4 98.11L112.2 119c9.84 4.91 8.25 13.84-2.88 13.84H49.63v-18.46l-24.81 18.26L0 150.91l24.82 18.27 24.82 18.27V169l71 .85a41.73 41.73 0 0 0 41.73-41.73c0-11.75-2.34-24.46-13-31.95L95.28 68c-4.35-2.27-3.76-13 1.15-13zm197.76-36.2v97.44q0 25.79-17.49 41.23t-46.52 15.43q-29 0-44.29-15t-15.35-43.1v-96h45.13v100.76a16.75 16.75 0 0 0 16.7 16.7 16.75 16.75 0 0 0 16.7-16.7V18.8zm96.6 150.29a41.74 41.74 0 0 0 20.1-78.32 39.56 39.56 0 0 0-20.1-71.71v-.41H307v150.44zm-39.08-62.21h21.65A15.72 15.72 0 0 1 389 122.56a14.67 14.67 0 0 1-14.63 14.63h-22.7v-30.31zm0-55h18.12A13.15 13.15 0 0 1 382.94 65a12.28 12.28 0 0 1-12.24 12.2h-19V51.88z"
          fill="#ffca01"/>
    <path d="M899.39 54.62v30.93A40.64 40.64 0 0 1 861 126v44h-48.51v-44.12a40.65 40.65 0 0 1-36.8-40.34v-67.1h44.38v60a14.27 14.27 0 0 0 14.23 14.23h6.49A14.27 14.27 0 0 0 855 78.43V46.58h.16V46a27.52 27.52 0 0 1 27.52-27.52H921V0l24.82 18.27 24.82 18.27-24.83 18.25L921 73.06V54.62zM685.2 169.38h-45.34V73.82q0-27.65 17.19-43t48.37-15.32q30.07 0 44.45 13.89t14.37 42.88v97.1h-45.33v-43.93H685.2zM718.91 93V67.76a16.9 16.9 0 0 0-16.85-16.85 16.9 16.9 0 0 0-16.86 16.85V93zM628.8 19.11v108.21q0 20.33-14.3 33.08t-37 12.8h-2.82c-8.17.56-25.78.8-38.93-11.14-12.75 12.94-30.31 11.56-36.85 11.3-2.35-.09-4.82-.15-7.41-.15q-23.76 0-36.43-12.8t-12.63-36.8V19.11h44.73v102.62a13.34 13.34 0 0 0 13.3 13.3 13.34 13.34 0 0 0 13.3-13.3V19.11h42.68v102.62a13.34 13.34 0 0 0 13.3 13.3 13.34 13.34 0 0 0 13.3-13.3V19.11zm253.13 128.35a11.5 11.5 0 0 1 5.52 1.45 10.32 10.32 0 0 1 4.2 4.15 11.28 11.28 0 0 1 0 11.22 10.39 10.39 0 0 1-4.15 4.16 11.28 11.28 0 0 1-11.19 0 10.45 10.45 0 0 1-4.16-4.16 11.25 11.25 0 0 1 0-11.22 10.41 10.41 0 0 1 4.21-4.15 11.5 11.5 0 0 1 5.53-1.45zm0 1.86a9.59 9.59 0 0 0-4.61 1.21 8.7 8.7 0 0 0-3.51 3.47 9.33 9.33 0 0 0 0 9.35 8.82 8.82 0 0 0 3.48 3.47 9.35 9.35 0 0 0 9.33 0 8.77 8.77 0 0 0 3.47-3.47 9.38 9.38 0 0 0 0-9.35 8.64 8.64 0 0 0-3.51-3.47 9.6 9.6 0 0 0-4.6-1.21zM877 164.9v-12.08h4.16a10.14 10.14 0 0 1 3.08.34 3 3 0 0 1 1.52 1.17 3.1 3.1 0 0 1 .56 1.77 3.19 3.19 0 0 1-1 2.3 3.75 3.75 0 0 1-2.52 1.1 3.23 3.23 0 0 1 1 .64 13.56 13.56 0 0 1 1.79 2.39l1.47 2.36h-2.37l-1.08-1.9a9.67 9.67 0 0 0-2-2.82 2.48 2.48 0 0 0-1.56-.41h-1v5.12zm2-6.8h2.37a3.84 3.84 0 0 0 2.32-.5 1.64 1.64 0 0 0 .62-1.33 1.62 1.62 0 0 0-.3-1 1.75 1.75 0 0 0-.82-.63 6.21 6.21 0 0 0-2-.21H879v3.67z"
          fill="#009945"/>
</svg>