<svg xmlns="http://www.w3.org/2000/svg" viewBox="0 0 240 240">
    <defs>
        <linearGradient id="a" x1=".67" x2=".42" y1=".17" y2=".75">
            <stop offset="0" stop-color="#37aee2"/>
            <stop offset="1" stop-color="#1e96c8"/>
        </linearGradient>
        <linearGradient id="b" x1=".66" x2=".85" y1=".44" y2=".8">
            <stop offset="0" stop-color="#eff7fc"/>
            <stop offset="1" stop-color="#fff"/>
        </linearGradient>
    </defs>
    <circle cx="120" cy="120" r="120" fill="url(#a)"/>
    <path fill="#c8daea" d="M98 175c-3.89 0-3.23-1.47-4.57-5.17L82 132.21 170 80"/>
    <path fill="#a9c9dd" d="M98 175c3 0 4.33-1.37 6-3l16-15.56-19.96-12.03"/>
    <path fill="url(#b)"
          d="M100.04 144.41l48.36 35.73c5.52 3.04 9.5 1.47 10.88-5.12l19.68-92.77c2.02-8.08-3.08-11.74-8.36-9.35L55.01 117.48c-7.89 3.16-7.84 7.56-1.44 9.52l29.67 9.26 68.67-43.32c3.24-1.97 6.22-.91 3.77 1.25"/>
</svg>