<svg width="279" height="37" xmlns="http://www.w3.org/2000/svg"><path d="M277.7 14.4v21.9h-7V21.7h-25.6v14.6h-7V14.4h39.6zm.9-14.4c-.8 3.2-3.5 6.6-7.3 7.3h-27c-3.7-.8-6.5-4.1-7.3-7.3zm-61.8 36.3c3.5-1.5 5.4-4.1 6.2-7.1h-31.5V.1h-7.1v36.2h32.4M131.9 7.2h25c3.8-1.1 6.9-4 7.7-7.1H125v21.4h32.4V29H132c-4 1.1-7.4 3.8-9.1 7.3h41.5V14.4H132l-.1-7.2M104.6 29c-.7 3.2-3.5 6.6-7.3 7.3h-27c-3.8-.7-6.6-4.1-7.4-7.3zM45.7 0v.1c-.8 3.2-3.5 6.2-7.3 7.2H27l-.6.2v28.7h-7.1V7.5l-.6-.2H7.3C3.6 6.5.8 3.3 0 .1L45.7 0zm58.9 14.3c-.682 3.118-3.358 6.426-7.01 7.24l-.29.06h-27c-3.7-.779-6.452-3.928-7.333-7.047L62.9 14.3h41.7zm0-14.3c-.682 3.118-3.358 6.426-7.01 7.24l-.29.06h-27c-3.7-.779-6.452-3.928-7.333-7.047L62.9 0h41.7z"/></svg>