<svg xmlns="http://www.w3.org/2000/svg" width="119.88" height="14.64"><path d="M11.7.24l.02 3.72-.22.04C10.6 1.74 9.9.6 7.14.6h-.31v12c0 .6.06 1 .36 1.29.22.19.98.28 1.6.28v.27H2.93v-.27c.62 0 1.4-.1 1.6-.28.3-.28.37-.7.37-1.29V.6h-.32C1.83.6 1.13 1.74.24 4L0 3.96.02.24H11.7m3.5 12.5c0 .54-.06.98-.34 1.2-.23.2-.7.25-1.38.25v.25h5.3v-.25c-.69 0-1.15-.05-1.38-.24-.28-.23-.35-.67-.35-1.21V4.98c0-.55.07-.98.35-1.21.23-.2.7-.25 1.38-.25v-.25h-5.3v.25c.69 0 1.15.06 1.38.25.28.23.35.66.35 1.2v7.77m13.92-9.47h-8.18v.25c.62 0 1.06.06 1.27.25.25.23.31.66.31 1.2v7.77c0 .54-.06.98-.31 1.2-.21.2-.65.25-1.27.25v.25h5.2v-.25c-.69 0-1.2-.05-1.43-.24-.28-.23-.34-.67-.34-1.21V8.98h.81c.86 0 1.3.14 1.66.42.3.23.54.73.54 1.18h.21V7.03h-.21c0 .46-.24.97-.54 1.2-.37.28-.8.43-1.66.43h-.81V3.62h1.02c2.53 0 3.22 1.2 3.6 2.6l.17-.03-.04-2.92m9.85 0H30.8v.25c.62 0 1.06.06 1.27.25.25.23.3.66.3 1.2v7.77c0 .54-.05.98-.3 1.2-.21.2-.65.25-1.27.25v.25H36v-.25c-.69 0-1.2-.05-1.43-.24-.28-.23-.34-.67-.34-1.21V8.98h.81c.86 0 1.3.15 1.66.42.3.23.54.73.54 1.18h.21V7.04h-.21c0 .45-.24.97-.54 1.2-.37.27-.8.42-1.66.42h-.81V3.62h1.02c2.53 0 3.22 1.2 3.6 2.6l.17-.03-.04-2.91M50.01 14.2c-.89-.1-1.16-.41-1.56-1.46L44.8 2.99h-.39l-3.57 9.54c-.48 1.26-.86 1.44-1.93 1.67v.24h3.36v-.24c-.97-.06-1.43-.45-.96-1.67l.78-2.13h3.63l.83 2.18c.4 1.05 0 1.55-1.01 1.62v.24H50v-.24zm-7.8-4.14l1.67-4.54 1.7 4.54h-3.37m19.66-6.79h-3.83v.25c.84.08 1.25.15 1.47.53.25.43.35 1.17.35 2.13v5.36l-6.31-8.27H50.4v.25c1.18 0 1.74.66 1.74 1.62v6.42c0 .96-.06 1.67-.3 2.1-.23.37-.45.46-1.24.53v.25h3.8v-.25c-.85-.07-1.25-.15-1.47-.53a4.43 4.43 0 0 1-.36-2.1V5.02l7.4 9.52h.32V6.18c0-.97.06-1.7.31-2.13.22-.38.43-.45 1.27-.52v-.25m11.27-.01h-3.28v.25c1.02.04 1.38.41 1.01 1.16L68.64 8.9 66.2 4.6c-.36-.7.04-1.09 1.06-1.09v-.25h-4.62v.25c.9.07 1.14.28 1.5.99L67 9.6v3.13c0 .54-.07.98-.32 1.2-.2.2-.67.25-1.29.25v.25h5.06v-.25c-.62 0-1.08-.05-1.3-.24-.24-.23-.3-.67-.3-1.21V9.28l2.54-4.63c.43-.83.85-1.05 1.74-1.13v-.25M88.6 7.66h-4.47v.24c1.1.01 1.69.44 1.27 1.32a11.4 11.4 0 0 1-1.1 1.86L81.04 6.9c1.92-.92 2.93-1.87 2.93-3.36 0-1.08-1.12-2.26-2.75-2.26-1.68 0-3.15 1.38-3.15 2.9 0 .99.28 1.69 1.24 3.05-1.9.68-3.55 2.21-3.55 3.99 0 2 1.6 3.42 3.71 3.42 1.56 0 2.87-.83 3.95-1.98l1.33 1.78h3.36v-.25c-.6 0-.8-.06-1.18-.25a4.54 4.54 0 0 1-1.33-1.2l-1.06-1.37c.62-.82 1.16-1.69 1.71-2.47.43-.6.89-.87 2.35-.99v-.25zm-7.31-5.98c1.03 0 1.65.79 1.65 2.04 0 1.12-.9 2.38-2.16 2.86-.94-1.31-1.16-2.14-1.16-2.92 0-1.4.67-1.98 1.67-1.98m-3.65 8.84c0-1.41.66-2.4 1.88-2.98l3.64 4.8a4.2 4.2 0 0 1-2.72 1.3c-1.57 0-2.8-1.23-2.8-3.12m26.42-.3l-.22.02c-.52 2.5-2.36 4-4.05 4-3.22 0-5.29-2.86-5.29-6.86s1.8-6.95 5-6.95c1.85 0 3.72 1.46 4.26 3.83l.22-.04-.11-4.22h-.24c-.08.62-.47.97-1.1.73A8.56 8.56 0 0 0 99.5.04a7.46 7.46 0 0 0-7.45 7.34 7.37 7.37 0 0 0 7.45 7.26 7.4 7.4 0 0 0 4.37-1.2l.2-3.22m1.75-1.36a5.65 5.65 0 0 0 5.58 5.74 5.65 5.65 0 0 0 5.6-5.74 5.65 5.65 0 0 0-5.59-5.74 5.65 5.65 0 0 0-5.58 5.74zm9 0c0 3.15-1.17 5.42-3.42 5.42S108 12 108 8.86s1.16-5.42 3.41-5.42 3.42 2.27 3.42 5.42m3.92 3.43c.63 0 1.13.5 1.13 1.15 0 .65-.5 1.16-1.13 1.16-.63 0-1.13-.51-1.13-1.16 0-.64.5-1.15 1.13-1.15"/></svg>