<svg xmlns="http://www.w3.org/2000/svg" width="313" height="107">
    <path fill="#D51920"
          d="M305.21 52.23h-18.06c-1.75-4.44-3.71-7.89-13.83-7.89-7 0-10 2.88-10 5.77 0 3.16 2.49 5.82 10.2 7.53L289.88 62c10.71 2.86 15.9 11.36 15.9 20.34 0 5-1.08 11-5.82 16-3.54 3.69-8.9 8.56-26.67 8.56-24.44 0-32.47-15.45-32.47-24.78h19c1.87 6.82 6.55 9.41 15.81 9.41 6.42 0 11.93-2.29 11.93-7.2 0-4.67-4-6.43-9.15-7.84L265.48 73c-6.23-1.9-11.44-3.42-15.12-6.53-9.63-8.16-8.93-22.89 1.54-30.55 5.8-4.24 11.74-6.45 21.17-6.45 11.08 0 17.41 3.16 22.39 6.6 4.42 3 9.67 10.38 9.67 16.2l.08-.04zM.13.04c.15.65 37.8 106 37.8 106H60.4l34.61-87.7h215L311.64.01H78.54L49.82 72.68 24.01 0H.18L.13.04zm185.88 68.05l28.06 37.89h17.56V31.05h-20.22V71.8l-25.4-40.75h-19.4v74.93h19.4V68.09zm126.35 34a4 4 0 1 0-4 4 4 4 0 0 0 4.05-4h-.05zm-.46 0a3.52 3.52 0 1 1-3.51-3.53 3.5 3.5 0 0 1 3.56 3.53h-.05zm-1.62-.83a1.43 1.43 0 0 0-1.66-1.4h-1.88v4.24h.94v-1.36h.74l.9 1.36h1.09l-1-1.52c.57-.18.95-.72.92-1.32h-.05zm-.95.05a.62.62 0 0 1-.72.62h-.94v-1.24h.91a.63.63 0 0 1 .8.63l-.05-.01zm-230.32 4.67h21.55l4-11.72h28.53l4.13 11.72h21.22l-27.16-74.93h-22.85l-29.42 74.93zm31.6-25.28l8.35-24.91 8.24 24.91h-16.64.05z"/>
</svg>